700 0 2 0           
30 Autodesk Translation Framework 20 ASM 228.3.1.65535 NT 24 Sat Apr 29 16:58:48 2023 
1 9.999999999999999547e-07 1.000000000000000036e-10 
body $2 -1 $-1 $3 $-1 $4 #
body $5 -1 $-1 $6 $-1 $7 #
rgb_color-st-attrib $-1 -1 $8 $-1 $0 0.7450980392156862919 0.737254901960784359 0.7294117647058823151 #
lump $-1 -1 $-1 $-1 $9 $0 #
transform $-1 -1 1 0 0 0 1 0 0 0 1 0 0 0 1 no_rotate no_reflect no_shear #
rgb_color-st-attrib $-1 -1 $10 $-1 $1 0.7490196078431372584 0.7490196078431372584 0.7490196078431372584 #
lump $-1 -1 $-1 $-1 $11 $1 #
transform $-1 -1 1 0 0 0 1 0 0 0 1 0 0 0 1 no_rotate no_reflect no_shear #
DXID-attrib $-1 -1 $-1 $2 $0 @10 ASM ENTITY @107 SQUARE_PROFILE_H1.IPT|:|0795B9D8FD5446AB9EF64EE0354186194CDEF64C|:|DA4B9237BACCCDF19C0760CAB7AEC4A8359010B0 #
shell $-1 -1 $-1 $-1 $-1 $12 $-1 $3 #
DXID-attrib $-1 -1 $-1 $5 $1 @10 ASM ENTITY @110 STEEL_PLATE_L1_HOLES.IPT|:|34731630547C04AE8473BD8BBABC7AC003727525|:|DA4B9237BACCCDF19C0760CAB7AEC4A8359010B0 #
shell $-1 -1 $-1 $-1 $-1 $13 $-1 $6 #
face $14 -1 $-1 $15 $16 $9 $-1 $17 forward single #
face $18 -1 $-1 $19 $20 $11 $-1 $21 forward single #
DXID-attrib $-1 -1 $-1 $-1 $12 @10 ASM ENTITY @36 3a72c43c-8da4-44ff-8edb-e8205d05c714 #
face $22 -1 $-1 $23 $24 $9 $-1 $25 forward single #
loop $-1 -1 $-1 $-1 $26 $12 #
plane-surface $-1 -1 $-1 19.50000000000004974 5.000000000000008882 19.49999999999996092 6.418476861114187235e-16 6.383782391594639261e-16 -1 -10 -8.326672684688692986e-15 -6.41847686111419256e-15 forward_v I I I I #
DXID-attrib $-1 -1 $-1 $-1 $13 @10 ASM ENTITY @36 d4f01d56-c1c8-474c-9e8b-50bb5f32d9fe #
face $27 -1 $-1 $28 $29 $11 $-1 $30 forward single #
loop $-1 -1 $-1 $31 $32 $13 #
cone-surface $-1 -1 $-1 19.99999999999997868 -4.207506063840300639e-14 35.00000000000002842 -5.551115123125811052e-17 1 1.233865247515089862e-15 2.5 1.387778780781420531e-16 2.616832935663693359e-15 1 I I 0 -1 2.5 forward I I I I #
DXID-attrib $-1 -1 $-1 $-1 $15 @10 ASM ENTITY @36 f0b9a3dd-f459-4688-9720-fec5b6f84b69 #
face $33 -1 $-1 $34 $35 $9 $-1 $36 forward single #
loop $-1 -1 $-1 $-1 $37 $15 #
plane-surface $-1 -1 $-1 19.50000000000007816 5.000000000000033751 -19.50000000000004263 -1 -8.326672684688692789e-16 -6.418476861114192166e-16 -6.418476861114187038e-15 -6.383782391594639063e-15 10 forward_v I I I I #
coedge $-1 -1 $-1 $38 $39 $40 $41 forward $16 $-1 #
DXID-attrib $-1 -1 $-1 $-1 $19 @10 ASM ENTITY @36 a5f34844-1fe3-4138-a3cd-4092519b7821 #
face $42 -1 $-1 $43 $44 $11 $-1 $45 forward single #
loop $-1 -1 $-1 $46 $47 $19 #
cone-surface $-1 -1 $-1 -20.00000000000002132 -4.429550668765329423e-14 34.99999999999999289 -5.551115123125811052e-17 1 1.233865247515089862e-15 2.5 1.387778780781420531e-16 2.616832935663693359e-15 1 I I 0 -1 2.5 forward I I I I #
loop $-1 -1 $-1 $-1 $48 $13 #
coedge $-1 -1 $-1 $32 $32 $49 $50 reversed $20 $-1 #
DXID-attrib $-1 -1 $-1 $-1 $23 @10 ASM ENTITY @36 daaaf4da-7cc2-42ef-ac46-4f1fb2c6efcc #
face $51 -1 $-1 $52 $53 $9 $-1 $54 forward single #
loop $-1 -1 $-1 $-1 $55 $23 #
plane-surface $-1 -1 $-1 -19.49999999999992895 5.000000000000001776 -19.5000000000000675 -6.418476861114187235e-16 -6.383782391594639261e-16 1 10 8.326672684688692986e-15 6.41847686111419256e-15 forward_v I I I I #
coedge $-1 -1 $-1 $56 $57 $58 $59 forward $24 $-1 #
coedge $-1 -1 $-1 $60 $26 $61 $62 forward $16 $-1 #
coedge $-1 -1 $-1 $26 $60 $56 $63 reversed $16 $-1 #
coedge $-1 -1 $-1 $58 $64 $26 $41 reversed $65 $-1 #
edge $66 -1 $-1 $67 -0 $68 3.900000000000000355 $26 $69 forward @7 unknown #
DXID-attrib $-1 -1 $-1 $-1 $28 @10 ASM ENTITY @36 5ee5d600-a144-4ffa-ab4a-614d50bc14f1 #
face $70 -1 $-1 $71 $72 $11 $-1 $73 forward single #
loop $-1 -1 $-1 $74 $75 $28 #
cone-surface $-1 -1 $-1 20.00000000000003908 4.429550668765326898e-14 -34.99999999999997158 -5.551115123125811052e-17 1 1.233865247515089862e-15 2.5 1.387778780781420531e-16 2.616832935663693359e-15 1 I I 0 -1 2.5 forward I I I I #
loop $-1 -1 $-1 $-1 $76 $19 #
coedge $-1 -1 $-1 $47 $47 $77 $78 reversed $29 $-1 #
coedge $-1 -1 $-1 $48 $48 $79 $80 forward $31 $-1 #
coedge $-1 -1 $-1 $49 $49 $32 $50 forward $81 $-1 #
edge $82 -1 $-1 $83 -3.141592653589793116 $83 3.141592653589793116 $32 $84 forward @7 unknown #
DXID-attrib $-1 -1 $-1 $-1 $34 @10 ASM ENTITY @36 c209dd5e-d179-4ed6-8c43-360e63914452 #
face $85 -1 $-1 $86 $87 $9 $-1 $88 forward single #
loop $-1 -1 $-1 $-1 $89 $34 #
plane-surface $-1 -1 $-1 -19.49999999999995026 4.999999999999976907 19.49999999999993605 1 8.326672684688692789e-16 6.418476861114192166e-16 6.418476861114187038e-15 6.383782391594639063e-15 -10 forward_v I I I I #
coedge $-1 -1 $-1 $90 $91 $92 $93 forward $35 $-1 #
coedge $-1 -1 $-1 $94 $37 $39 $63 forward $24 $-1 #
coedge $-1 -1 $-1 $37 $94 $90 $95 reversed $24 $-1 #
coedge $-1 -1 $-1 $92 $40 $37 $59 reversed $65 $-1 #
edge $96 -1 $-1 $97 0 $67 3.900000000000000355 $37 $98 forward @7 unknown #
coedge $-1 -1 $-1 $39 $38 $99 $100 reversed $16 $-1 #
coedge $-1 -1 $-1 $89 $101 $38 $62 reversed $53 $-1 #
edge $102 -1 $-1 $68 0 $103 6 $61 $104 forward @7 unknown #
edge $105 -1 $-1 $67 0 $106 6 $56 $107 forward @7 unknown #
coedge $-1 -1 $-1 $40 $92 $89 $108 reversed $65 $-1 #
loop $-1 -1 $-1 $-1 $64 $109 #
DXID-attrib $-1 -1 $-1 $-1 $41 @10 ASM ENTITY @36 8bca9620-e361-45a2-860e-a12284c38be9 #
vertex $-1 -1 $-1 $41 $110 #
vertex $-1 -1 $-1 $41 $111 #
straight-curve $-1 -1 $-1 19.50000000000004974 5.000000000000008882 19.49999999999996092 -10 -8.326672684688692986e-15 -6.41847686111419256e-15 F -0 F 3.900000000000000355 #
DXID-attrib $-1 -1 $-1 $-1 $43 @10 ASM ENTITY @36 0e4c8bb7-3331-4c8a-a3cb-e3cd2a666abb #
face $112 -1 $-1 $113 $114 $11 $-1 $115 forward single #
loop $-1 -1 $-1 $116 $117 $43 #
cone-surface $-1 -1 $-1 -19.99999999999996447 4.207506063840300008e-14 -35.00000000000000711 -5.551115123125811052e-17 1 1.233865247515089862e-15 2.5 1.387778780781420531e-16 2.616832935663693359e-15 1 I I 0 -1 2.5 forward I I I I #
loop $-1 -1 $-1 $-1 $118 $28 #
coedge $-1 -1 $-1 $75 $75 $119 $120 reversed $44 $-1 #
coedge $-1 -1 $-1 $76 $76 $121 $122 forward $46 $-1 #
coedge $-1 -1 $-1 $77 $77 $47 $78 forward $123 $-1 #
edge $124 -1 $-1 $125 -3.141592653589793116 $125 3.141592653589793116 $47 $126 forward @7 unknown #
coedge $-1 -1 $-1 $79 $79 $48 $80 reversed $127 $-1 #
edge $128 -1 $-1 $129 -3.141592653589793116 $129 3.141592653589793116 $48 $130 forward @7 unknown #
loop $-1 -1 $-1 $-1 $49 $131 #
DXID-attrib $-1 -1 $-1 $-1 $50 @10 ASM ENTITY @36 6a75537f-6ae5-44a4-b500-d0968027a6a6 #
vertex $-1 -1 $-1 $50 $132 #
ellipse-curve $-1 -1 $-1 19.99999999999997868 4.999999999999957367 35.00000000000002842 5.551115123125811052e-17 -1 -1.233865247515089862e-15 2.5 1.387778780781420531e-16 2.616832935663693359e-15 1 I I #
DXID-attrib $-1 -1 $-1 $-1 $52 @10 ASM ENTITY @36 8f917637-51aa-4703-b0f0-ee501d45dc91 #
face $133 -1 $-1 $134 $135 $9 $-1 $136 forward single #
loop $-1 -1 $-1 $-1 $137 $52 #
plane-surface $-1 -1 $-1 -22.49999999999995026 4.999999999999972466 22.4999999999999325 -6.418476861114187235e-16 -6.383782391594639261e-16 1 10 8.326672684688692986e-15 6.41847686111419256e-15 forward_v I I I I #
coedge $-1 -1 $-1 $138 $61 $64 $108 forward $53 $-1 #
coedge $-1 -1 $-1 $139 $55 $57 $95 forward $35 $-1 #
coedge $-1 -1 $-1 $55 $139 $138 $140 reversed $35 $-1 #
coedge $-1 -1 $-1 $64 $58 $55 $93 reversed $65 $-1 #
edge $141 -1 $-1 $142 0 $97 3.900000000000000355 $55 $143 forward @7 unknown #
coedge $-1 -1 $-1 $57 $56 $144 $145 reversed $24 $-1 #
edge $146 -1 $-1 $97 0 $147 6 $90 $148 forward @7 unknown #
DXID-attrib $-1 -1 $-1 $-1 $59 @10 ASM ENTITY @36 c99d2cee-6157-41d5-9df7-be9cab3abda4 #
vertex $-1 -1 $-1 $59 $149 #
straight-curve $-1 -1 $-1 19.50000000000007816 5.000000000000033751 -19.50000000000004263 -6.418476861114187038e-15 -6.383782391594639063e-15 10 F 0 F 3.900000000000000355 #
coedge $-1 -1 $-1 $150 $144 $60 $100 forward $151 $-1 #
edge $152 -1 $-1 $106 -0 $103 3.900000000000000355 $60 $153 forward @7 unknown #
coedge $-1 -1 $-1 $61 $138 $150 $154 reversed $53 $-1 #
DXID-attrib $-1 -1 $-1 $-1 $62 @10 ASM ENTITY @36 43307f46-6fbd-4782-b99f-3ef112cfaa38 #
vertex $-1 -1 $-1 $62 $155 #
straight-curve $-1 -1 $-1 -19.49999999999995026 4.999999999999976907 19.49999999999993605 -8.326672684688696141e-15 10 6.38378239159463433e-15 I I #
DXID-attrib $-1 -1 $-1 $-1 $63 @10 ASM ENTITY @36 2681c48c-6396-4a96-9261-d9db37cbc939 #
vertex $-1 -1 $-1 $100 $156 #
straight-curve $-1 -1 $-1 19.50000000000004974 5.000000000000008882 19.49999999999996092 -8.326672684688696141e-15 10 6.38378239159463433e-15 I I #
edge $157 -1 $-1 $68 -0 $142 3.900000000000000355 $89 $158 forward @7 unknown #
face $159 -1 $-1 $-1 $160 $9 $-1 $161 reversed single #
point $-1 -1 $-1 19.50000000000004974 5.000000000000008882 19.49999999999996092 #
point $-1 -1 $-1 -19.49999999999995026 4.999999999999976907 19.49999999999993605 #
DXID-attrib $-1 -1 $-1 $-1 $71 @10 ASM ENTITY @36 95e4384b-be0f-4283-8e82-ddd4ac76fd6f #
face $162 -1 $-1 $163 $164 $11 $-1 $165 forward single #
loop $-1 -1 $-1 $-1 $166 $71 #
plane-surface $-1 -1 $-1 -30.00000000000004974 -5.718927067511674193e-14 44.99999999999996447 -1.046733174265477383e-15 -1.233865247515089862e-15 1 10 5.551115123125682122e-16 1.046733174265477344e-14 forward_v I I I I #
loop $-1 -1 $-1 $-1 $167 $43 #
coedge $-1 -1 $-1 $117 $117 $168 $169 reversed $72 $-1 #
coedge $-1 -1 $-1 $118 $118 $170 $171 forward $74 $-1 #
coedge $-1 -1 $-1 $119 $119 $75 $120 forward $172 $-1 #
edge $173 -1 $-1 $174 -3.141592653589793116 $174 3.141592653589793116 $75 $175 forward @7 unknown #
coedge $-1 -1 $-1 $121 $121 $76 $122 reversed $176 $-1 #
edge $177 -1 $-1 $178 -3.141592653589793116 $178 3.141592653589793116 $76 $179 forward @7 unknown #
loop $-1 -1 $-1 $81 $77 $131 #
DXID-attrib $-1 -1 $-1 $-1 $78 @10 ASM ENTITY @36 8c20ce08-c232-44f1-acbb-36543767af7d #
vertex $-1 -1 $-1 $78 $180 #
ellipse-curve $-1 -1 $-1 -20.00000000000002132 4.999999999999955591 35 5.551115123125811052e-17 -1 -1.233865247515089862e-15 2.5 1.387778780781420531e-16 2.616832935663693359e-15 1 I I #
loop $-1 -1 $-1 $-1 $79 $181 #
DXID-attrib $-1 -1 $-1 $-1 $80 @10 ASM ENTITY @36 45d704c4-c45f-4385-b4a5-f62882cc64be #
vertex $-1 -1 $-1 $80 $182 #
ellipse-curve $-1 -1 $-1 19.99999999999997868 -4.207506063840300639e-14 35.00000000000002842 5.551115123125811052e-17 -1 -1.233865247515089862e-15 2.5 1.387778780781420531e-16 2.616832935663693359e-15 1 I I #
face $183 -1 $-1 $181 $184 $11 $-1 $185 forward single #
point $-1 -1 $-1 17.49999999999997868 4.999999999999957367 35.00000000000002842 #
DXID-attrib $-1 -1 $-1 $-1 $86 @10 ASM ENTITY @36 f7191727-3a03-4120-8264-bf35adffeedb #
face $186 -1 $-1 $187 $188 $9 $-1 $189 forward single #
loop $-1 -1 $-1 $-1 $190 $86 #
plane-surface $-1 -1 $-1 -22.49999999999992184 5.000000000000000888 -22.5000000000000675 -1 -8.326672684688692789e-16 -6.418476861114192166e-16 -6.418476861114187038e-15 -6.383782391594639063e-15 10 forward_v I I I I #
coedge $-1 -1 $-1 $191 $192 $193 $194 forward $87 $-1 #
coedge $-1 -1 $-1 $101 $89 $91 $140 forward $53 $-1 #
coedge $-1 -1 $-1 $91 $90 $195 $196 reversed $35 $-1 #
edge $197 -1 $-1 $142 0 $198 6 $138 $199 forward @7 unknown #
DXID-attrib $-1 -1 $-1 $-1 $93 @10 ASM ENTITY @36 b88a62dd-64fc-4d3f-8966-a29ec96f629e #
vertex $-1 -1 $-1 $93 $200 #
straight-curve $-1 -1 $-1 -19.49999999999992895 5.000000000000001776 -19.5000000000000675 10 8.326672684688692986e-15 6.41847686111419256e-15 F 0 F 3.900000000000000355 #
coedge $-1 -1 $-1 $99 $195 $94 $145 forward $151 $-1 #
edge $201 -1 $-1 $147 0 $106 3.900000000000000355 $94 $202 forward @7 unknown #
DXID-attrib $-1 -1 $-1 $-1 $95 @10 ASM ENTITY @36 cf71c7c2-5f8a-4ed5-8265-e11b3cad7704 #
vertex $-1 -1 $-1 $145 $203 #
straight-curve $-1 -1 $-1 19.50000000000007816 5.000000000000033751 -19.50000000000004263 -8.326672684688696141e-15 10 6.38378239159463433e-15 I I #
point $-1 -1 $-1 19.50000000000007816 5.000000000000033751 -19.50000000000004263 #
coedge $-1 -1 $-1 $195 $99 $101 $154 forward $151 $-1 #
loop $-1 -1 $-1 $-1 $150 $204 #
DXID-attrib $-1 -1 $-1 $-1 $100 @10 ASM ENTITY @36 62b39c2d-0c5e-491c-afd2-2ad86d8c3ed1 #
straight-curve $-1 -1 $-1 19.5 65.00000000000001421 19.5 -10 -8.326672684688692986e-15 -6.41847686111419256e-15 I I #
edge $205 -1 $-1 $103 -0 $198 3.900000000000000355 $101 $206 forward @7 unknown #
point $-1 -1 $-1 -19.50000000000000711 64.99999999999997158 19.49999999999997513 #
point $-1 -1 $-1 19.5 65.00000000000001421 19.5 #
DXID-attrib $-1 -1 $-1 $-1 $108 @10 ASM ENTITY @36 981c373b-7b33-40a6-a825-a5cfefbef5b1 #
straight-curve $-1 -1 $-1 -19.49999999999995026 4.999999999999976907 19.49999999999993605 6.418476861114187038e-15 6.383782391594639063e-15 -10 F -0 F 3.900000000000000355 #
DXID-attrib $-1 -1 $-1 $-1 $109 @10 ASM ENTITY @36 bf1b77bd-685e-4fca-9ef2-0557160c56b1 #
loop $-1 -1 $-1 $65 $207 $109 #
plane-surface $-1 -1 $-1 6.217248937900876626e-14 5.000000000000005329 -5.329070518200751394e-14 -8.326672684688696733e-16 1 6.38378239159463433e-16 -6.418476861114187038e-15 -6.383782391594639063e-15 10 forward_v I I I I #
DXID-attrib $-1 -1 $-1 $-1 $113 @10 ASM ENTITY @36 6ab00a6e-d1f1-40f5-8065-593706c5fd43 #
face $208 -1 $-1 $209 $210 $11 $-1 $211 forward single #
loop $-1 -1 $-1 $-1 $212 $113 #
plane-surface $-1 -1 $-1 -29.99999999999995026 5.385860160124133542e-14 -45.00000000000003553 -1 -5.551115123125682246e-17 -1.046733174265477383e-15 -1.046733174265477344e-14 -1.233865247515089783e-14 10 forward_v I I I I #
coedge $-1 -1 $-1 $213 $214 $215 $216 forward $114 $-1 #
coedge $-1 -1 $-1 $167 $167 $217 $218 forward $116 $-1 #
coedge $-1 -1 $-1 $168 $168 $117 $169 forward $219 $-1 #
edge $220 -1 $-1 $221 -3.141592653589793116 $221 3.141592653589793116 $117 $222 forward @7 unknown #
coedge $-1 -1 $-1 $170 $170 $118 $171 reversed $223 $-1 #
edge $224 -1 $-1 $225 -3.141592653589793116 $225 3.141592653589793116 $118 $226 forward @7 unknown #
loop $-1 -1 $-1 $123 $119 $131 #
DXID-attrib $-1 -1 $-1 $-1 $120 @10 ASM ENTITY @36 e02e9998-6a2e-4e51-bada-8ef86bda37f2 #
vertex $-1 -1 $-1 $120 $227 #
ellipse-curve $-1 -1 $-1 20.00000000000003908 5.000000000000044409 -34.99999999999997158 5.551115123125811052e-17 -1 -1.233865247515089862e-15 2.5 1.387778780781420531e-16 2.616832935663693359e-15 1 I I #
loop $-1 -1 $-1 $127 $121 $181 #
DXID-attrib $-1 -1 $-1 $-1 $122 @10 ASM ENTITY @36 f26ccf96-5183-484b-9e24-6efd2874ceca #
vertex $-1 -1 $-1 $122 $228 #
ellipse-curve $-1 -1 $-1 -20.00000000000002132 -4.429550668765329423e-14 34.99999999999999289 5.551115123125811052e-17 -1 -1.233865247515089862e-15 2.5 1.387778780781420531e-16 2.616832935663693359e-15 1 I I #
point $-1 -1 $-1 -22.50000000000001776 4.999999999999955591 34.99999999999999289 #
face $229 -1 $-1 $-1 $230 $11 $-1 $231 reversed single #
point $-1 -1 $-1 17.49999999999997868 -4.221383851648115096e-14 35.00000000000002132 #
DXID-attrib $-1 -1 $-1 $-1 $131 @10 ASM ENTITY @36 bacd8b93-6d4d-4183-8d10-553e6b650fc4 #
loop $-1 -1 $-1 $219 $232 $131 #
plane-surface $-1 -1 $-1 -2.775557561562905649e-16 5 6.169326237575448917e-15 -5.551115123125811052e-17 1 1.233865247515089862e-15 -1.046733174265477344e-14 -1.233865247515089783e-14 10 forward_v I I I I #
DXID-attrib $-1 -1 $-1 $-1 $134 @10 ASM ENTITY @36 882cc84c-709c-4339-8106-fc3827a03fde #
face $233 -1 $-1 $204 $234 $9 $-1 $235 forward single #
loop $-1 -1 $-1 $-1 $236 $134 #
plane-surface $-1 -1 $-1 22.50000000000007816 5.000000000000038192 -22.50000000000003908 6.418476861114187235e-16 6.383782391594639261e-16 -1 -10 -8.326672684688692986e-15 -6.41847686111419256e-15 forward_v I I I I #
coedge $-1 -1 $-1 $237 $238 $239 $240 forward $135 $-1 #
coedge $-1 -1 $-1 $241 $137 $242 $243 forward $87 $-1 #
coedge $-1 -1 $-1 $137 $241 $237 $244 reversed $87 $-1 #
coedge $-1 -1 $-1 $239 $207 $137 $194 reversed $160 $-1 #
edge $245 -1 $-1 $246 0 $247 4.5 $137 $248 forward @7 unknown #
coedge $-1 -1 $-1 $144 $150 $139 $196 forward $151 $-1 #
edge $249 -1 $-1 $198 0 $147 3.900000000000000355 $139 $250 forward @7 unknown #
DXID-attrib $-1 -1 $-1 $-1 $140 @10 ASM ENTITY @36 2f7a5616-0199-4281-af97-4bb21f5db33d #
vertex $-1 -1 $-1 $196 $251 #
straight-curve $-1 -1 $-1 -19.49999999999992895 5.000000000000001776 -19.5000000000000675 -8.326672684688696141e-15 10 6.38378239159463433e-15 I I #
point $-1 -1 $-1 -19.49999999999992895 5.000000000000001776 -19.5000000000000675 #
DXID-attrib $-1 -1 $-1 $-1 $145 @10 ASM ENTITY @36 53cedd2b-d4e1-43c6-8b09-81818abd725c #
straight-curve $-1 -1 $-1 19.50000000000002842 65.00000000000002842 -19.50000000000000355 -6.418476861114187038e-15 -6.383782391594639063e-15 10 I I #
point $-1 -1 $-1 19.50000000000002842 65.00000000000002842 -19.50000000000000355 #
face $252 -1 $-1 $109 $253 $9 $-1 $254 forward single #
DXID-attrib $-1 -1 $-1 $-1 $154 @10 ASM ENTITY @36 592b376b-98d5-4f61-ae70-029eb04b793e #
straight-curve $-1 -1 $-1 -19.50000000000000711 64.99999999999997158 19.49999999999997513 6.418476861114187038e-15 6.383782391594639063e-15 -10 I I #
coedge $-1 -1 $-1 $193 $255 $256 $257 reversed $160 $-1 #
DXID-attrib $-1 -1 $-1 $-1 $163 @10 ASM ENTITY @36 3401fbab-13e1-4d66-a8a2-c6788a6a1d51 #
face $258 -1 $-1 $131 $259 $11 $-1 $260 forward single #
loop $-1 -1 $-1 $-1 $261 $163 #
plane-surface $-1 -1 $-1 30.00000000000004974 5.718927067511674193e-14 -44.99999999999996447 1.046733174265477383e-15 1.233865247515089862e-15 -1 -10 -5.551115123125682122e-16 -1.046733174265477344e-14 forward_v I I I I #
coedge $-1 -1 $-1 $262 $263 $264 $265 forward $164 $-1 #
coedge $-1 -1 $-1 $266 $166 $267 $268 forward $114 $-1 #
coedge $-1 -1 $-1 $166 $266 $262 $269 reversed $114 $-1 #
coedge $-1 -1 $-1 $264 $270 $166 $216 reversed $230 $-1 #
edge $271 -1 $-1 $272 0 $273 6 $166 $274 forward @7 unknown #
coedge $-1 -1 $-1 $217 $217 $167 $218 reversed $275 $-1 #
edge $276 -1 $-1 $277 -3.141592653589793116 $277 3.141592653589793116 $167 $278 forward @7 unknown #
loop $-1 -1 $-1 $172 $168 $131 #
DXID-attrib $-1 -1 $-1 $-1 $169 @10 ASM ENTITY @36 3a5f9ba5-e69b-4a56-a8f3-bb6552ce874a #
vertex $-1 -1 $-1 $169 $279 #
ellipse-curve $-1 -1 $-1 -19.99999999999996447 5.000000000000042633 -35 5.551115123125811052e-17 -1 -1.233865247515089862e-15 2.5 1.387778780781420531e-16 2.616832935663693359e-15 1 I I #
loop $-1 -1 $-1 $176 $170 $181 #
DXID-attrib $-1 -1 $-1 $-1 $171 @10 ASM ENTITY @36 464d6621-38d8-488b-8796-7e603e4d3ff1 #
vertex $-1 -1 $-1 $171 $280 #
ellipse-curve $-1 -1 $-1 20.00000000000003908 4.429550668765326898e-14 -34.99999999999997158 5.551115123125811052e-17 -1 -1.233865247515089862e-15 2.5 1.387778780781420531e-16 2.616832935663693359e-15 1 I I #
point $-1 -1 $-1 17.50000000000003908 5.000000000000044409 -34.99999999999997158 #
point $-1 -1 $-1 -22.50000000000002132 -4.44342845657314388e-14 34.99999999999999289 #
DXID-attrib $-1 -1 $-1 $-1 $181 @10 ASM ENTITY @36 7e39744a-b5bc-4349-bde9-ec4334d1bdbd #
loop $-1 -1 $-1 $275 $270 $181 #
plane-surface $-1 -1 $-1 0 0 0 -5.551115123125811052e-17 1 1.233865247515089862e-15 -1.046733174265477344e-14 -1.233865247515089783e-14 10 forward_v I I I I #
coedge $-1 -1 $-1 $281 $282 $283 $284 forward $184 $-1 #
DXID-attrib $-1 -1 $-1 $-1 $187 @10 ASM ENTITY @36 89a4f1f6-505b-4058-9d17-fbf31edd4e72 #
loop $-1 -1 $-1 $-1 $256 $187 #
plane-surface $-1 -1 $-1 22.50000000000004974 5.00000000000000977 22.49999999999996092 1 8.326672684688692789e-16 6.418476861114192166e-16 6.418476861114187038e-15 6.383782391594639063e-15 -10 forward_v I I I I #
coedge $-1 -1 $-1 $285 $286 $255 $287 forward $188 $-1 #
coedge $-1 -1 $-1 $288 $190 $192 $244 forward $135 $-1 #
coedge $-1 -1 $-1 $190 $288 $285 $289 reversed $135 $-1 #
coedge $-1 -1 $-1 $255 $193 $190 $240 reversed $160 $-1 #
edge $290 -1 $-1 $291 0 $246 4.5 $190 $292 forward @7 unknown #
coedge $-1 -1 $-1 $192 $191 $293 $294 reversed $87 $-1 #
coedge $-1 -1 $-1 $256 $295 $191 $243 reversed $234 $-1 #
edge $296 -1 $-1 $247 0 $297 6 $242 $298 forward @7 unknown #
edge $299 -1 $-1 $246 0 $300 6 $237 $301 forward @7 unknown #
DXID-attrib $-1 -1 $-1 $-1 $194 @10 ASM ENTITY @36 b219541d-749d-438c-bf78-81bd4b06c5d7 #
vertex $-1 -1 $-1 $194 $302 #
vertex $-1 -1 $-1 $194 $303 #
straight-curve $-1 -1 $-1 -22.49999999999995026 4.999999999999972466 22.4999999999999325 10 8.326672684688692986e-15 6.41847686111419256e-15 F 0 F 4.5 #
DXID-attrib $-1 -1 $-1 $-1 $196 @10 ASM ENTITY @36 1f5409c3-1a0d-4771-9f6c-a0d94660a653 #
straight-curve $-1 -1 $-1 -19.49999999999997868 65 -19.50000000000002842 10 8.326672684688692986e-15 6.41847686111419256e-15 I I #
point $-1 -1 $-1 -19.49999999999997868 65 -19.50000000000002842 #
DXID-attrib $-1 -1 $-1 $-1 $204 @10 ASM ENTITY @36 c6ce4263-55cb-44c9-826f-17f407e543b7 #
loop $-1 -1 $-1 $151 $304 $204 #
plane-surface $-1 -1 $-1 1.221245327087658942e-14 65 -1.498801083243970796e-14 -8.326672684688696733e-16 1 6.38378239159463433e-16 -6.418476861114187038e-15 -6.383782391594639063e-15 10 forward_v I I I I #
coedge $-1 -1 $-1 $207 $239 $236 $287 reversed $160 $-1 #
coedge $-1 -1 $-1 $305 $242 $207 $257 forward $234 $-1 #
edge $306 -1 $-1 $247 0 $307 4.5 $256 $308 forward @7 unknown #
DXID-attrib $-1 -1 $-1 $-1 $209 @10 ASM ENTITY @36 b9dfe795-5ad2-4981-8f28-c668acb10021 #
loop $-1 -1 $-1 $-1 $309 $209 #
plane-surface $-1 -1 $-1 29.99999999999995026 -5.385860160124133542e-14 45.00000000000003553 1 5.551115123125682246e-17 1.046733174265477383e-15 1.046733174265477344e-14 1.233865247515089783e-14 -10 forward_v I I I I #
coedge $-1 -1 $-1 $310 $311 $312 $313 forward $210 $-1 #
coedge $-1 -1 $-1 $314 $212 $214 $269 forward $164 $-1 #
coedge $-1 -1 $-1 $212 $314 $310 $315 reversed $164 $-1 #
coedge $-1 -1 $-1 $312 $215 $212 $265 reversed $230 $-1 #
edge $316 -1 $-1 $317 0 $272 9 $212 $318 forward @7 unknown #
coedge $-1 -1 $-1 $214 $213 $282 $319 reversed $114 $-1 #
coedge $-1 -1 $-1 $309 $283 $213 $268 reversed $259 $-1 #
edge $320 -1 $-1 $273 0 $321 0.5 $267 $322 forward @7 unknown #
edge $323 -1 $-1 $272 0 $324 0.5 $262 $325 forward @7 unknown #
coedge $-1 -1 $-1 $215 $312 $309 $326 reversed $230 $-1 #
DXID-attrib $-1 -1 $-1 $-1 $216 @10 ASM ENTITY @36 4a34db21-4654-4009-b6d3-e69a816966c1 #
vertex $-1 -1 $-1 $216 $327 #
vertex $-1 -1 $-1 $216 $328 #
straight-curve $-1 -1 $-1 -30.00000000000004974 -5.718927067511674193e-14 44.99999999999996447 10 5.551115123125682122e-16 1.046733174265477344e-14 F 0 F 6 #
loop $-1 -1 $-1 $223 $217 $181 #
DXID-attrib $-1 -1 $-1 $-1 $218 @10 ASM ENTITY @36 2a2e9376-6be0-4b5e-a689-f1c7ffc22ddd #
vertex $-1 -1 $-1 $218 $329 #
ellipse-curve $-1 -1 $-1 -19.99999999999996447 4.207506063840300008e-14 -35.00000000000000711 5.551115123125811052e-17 -1 -1.233865247515089862e-15 2.5 1.387778780781420531e-16 2.616832935663693359e-15 1 I I #
point $-1 -1 $-1 -22.49999999999996447 5.000000000000042633 -35 #
point $-1 -1 $-1 17.50000000000003908 4.415672880957513704e-14 -34.99999999999997868 #
coedge $-1 -1 $-1 $330 $232 $331 $332 forward $184 $-1 #
coedge $-1 -1 $-1 $232 $330 $266 $319 forward $184 $-1 #
coedge $-1 -1 $-1 $267 $333 $232 $284 reversed $259 $-1 #
edge $334 -1 $-1 $321 0 $335 9 $283 $336 forward @7 unknown #
coedge $-1 -1 $-1 $337 $236 $238 $289 forward $188 $-1 #
coedge $-1 -1 $-1 $236 $337 $305 $338 reversed $188 $-1 #
edge $339 -1 $-1 $307 0 $291 4.5 $236 $340 forward @7 unknown #
coedge $-1 -1 $-1 $238 $237 $341 $342 reversed $135 $-1 #
edge $343 -1 $-1 $291 0 $344 6 $285 $345 forward @7 unknown #
DXID-attrib $-1 -1 $-1 $-1 $240 @10 ASM ENTITY @36 e3998081-07c4-4d26-8b45-1b8eb1ced608 #
vertex $-1 -1 $-1 $240 $346 #
straight-curve $-1 -1 $-1 -22.49999999999992184 5.000000000000000888 -22.5000000000000675 -6.418476861114187038e-15 -6.383782391594639063e-15 10 F 0 F 4.5 #
coedge $-1 -1 $-1 $304 $341 $241 $294 forward $253 $-1 #
edge $347 -1 $-1 $300 0 $297 4.5 $241 $348 forward @7 unknown #
coedge $-1 -1 $-1 $242 $305 $304 $349 reversed $234 $-1 #
DXID-attrib $-1 -1 $-1 $-1 $243 @10 ASM ENTITY @36 5c374dd4-8523-4a68-a79e-1c84cbd8fe28 #
vertex $-1 -1 $-1 $243 $350 #
straight-curve $-1 -1 $-1 22.50000000000004974 5.00000000000000977 22.49999999999996092 -8.326672684688696141e-15 10 6.38378239159463433e-15 I I #
DXID-attrib $-1 -1 $-1 $-1 $244 @10 ASM ENTITY @36 1678a412-a46d-45ed-9306-6c69b3ff35ae #
vertex $-1 -1 $-1 $294 $351 #
straight-curve $-1 -1 $-1 -22.49999999999995026 4.999999999999972466 22.4999999999999325 -8.326672684688696141e-15 10 6.38378239159463433e-15 I I #
point $-1 -1 $-1 -22.49999999999995026 4.999999999999972466 22.4999999999999325 #
point $-1 -1 $-1 22.50000000000004974 5.00000000000000977 22.49999999999996092 #
coedge $-1 -1 $-1 $352 $293 $295 $349 forward $253 $-1 #
coedge $-1 -1 $-1 $295 $256 $286 $338 forward $234 $-1 #
DXID-attrib $-1 -1 $-1 $-1 $257 @10 ASM ENTITY @36 1243f066-6abe-438d-b29d-008f490780a6 #
vertex $-1 -1 $-1 $287 $353 #
straight-curve $-1 -1 $-1 22.50000000000004974 5.00000000000000977 22.49999999999996092 6.418476861114187038e-15 6.383782391594639063e-15 -10 F 0 F 4.5 #
coedge $-1 -1 $-1 $333 $267 $270 $326 forward $259 $-1 #
coedge $-1 -1 $-1 $331 $261 $263 $315 forward $210 $-1 #
coedge $-1 -1 $-1 $261 $331 $333 $354 reversed $210 $-1 #
coedge $-1 -1 $-1 $270 $264 $261 $313 reversed $230 $-1 #
edge $355 -1 $-1 $356 0 $317 6 $261 $357 forward @7 unknown #
coedge $-1 -1 $-1 $263 $262 $330 $358 reversed $164 $-1 #
edge $359 -1 $-1 $317 0 $360 0.5 $310 $361 forward @7 unknown #
DXID-attrib $-1 -1 $-1 $-1 $265 @10 ASM ENTITY @36 6e214713-d43b-493a-ba4a-add1a6132feb #
vertex $-1 -1 $-1 $265 $362 #
straight-curve $-1 -1 $-1 -29.99999999999995026 5.385860160124133542e-14 -45.00000000000003553 -1.046733174265477344e-14 -1.233865247515089783e-14 10 F 0 F 9 #
edge $363 -1 $-1 $324 0 $321 6 $266 $364 forward @7 unknown #
DXID-attrib $-1 -1 $-1 $-1 $268 @10 ASM ENTITY @36 9305d2f3-f62c-45da-8915-37ac11db03af #
vertex $-1 -1 $-1 $268 $365 #
straight-curve $-1 -1 $-1 29.99999999999995026 -5.385860160124133542e-14 45.00000000000003553 -5.551115123125811298e-16 10 1.233865247515089783e-14 I I #
DXID-attrib $-1 -1 $-1 $-1 $269 @10 ASM ENTITY @36 820410d5-a1da-4ce0-84a8-04dffe17073a #
vertex $-1 -1 $-1 $319 $366 #
straight-curve $-1 -1 $-1 -30.00000000000004974 -5.718927067511674193e-14 44.99999999999996447 -5.551115123125811298e-16 10 1.233865247515089783e-14 I I #
edge $367 -1 $-1 $273 0 $356 9 $309 $368 forward @7 unknown #
point $-1 -1 $-1 -30.00000000000004974 -5.718927067511674193e-14 44.99999999999996447 #
point $-1 -1 $-1 29.99999999999995026 -5.385860160124133542e-14 45.00000000000003553 #
point $-1 -1 $-1 -22.49999999999996447 4.193628276032485551e-14 -35.00000000000000711 #
coedge $-1 -1 $-1 $282 $281 $314 $358 forward $184 $-1 #
coedge $-1 -1 $-1 $311 $310 $281 $332 reversed $210 $-1 #
edge $369 -1 $-1 $335 0 $360 6 $331 $370 forward @7 unknown #
coedge $-1 -1 $-1 $283 $309 $311 $354 forward $259 $-1 #
DXID-attrib $-1 -1 $-1 $-1 $284 @10 ASM ENTITY @36 1ae1f4ad-e552-43c4-805e-f5386ae846b1 #
vertex $-1 -1 $-1 $332 $371 #
straight-curve $-1 -1 $-1 29.99999999999995026 4.999999999999945821 45.00000000000003553 1.046733174265477344e-14 1.233865247515089783e-14 -10 I I #
coedge $-1 -1 $-1 $286 $285 $352 $372 reversed $188 $-1 #
edge $373 -1 $-1 $307 0 $374 6 $305 $375 forward @7 unknown #
DXID-attrib $-1 -1 $-1 $-1 $287 @10 ASM ENTITY @36 4383ef7b-1772-40e8-8c54-8e7607fb9fe9 #
straight-curve $-1 -1 $-1 22.50000000000007816 5.000000000000038192 -22.50000000000003908 -10 -8.326672684688692986e-15 -6.41847686111419256e-15 F 0 F 4.5 #
coedge $-1 -1 $-1 $293 $352 $288 $342 forward $253 $-1 #
edge $376 -1 $-1 $344 0 $300 4.5 $288 $377 forward @7 unknown #
DXID-attrib $-1 -1 $-1 $-1 $289 @10 ASM ENTITY @36 72b3a43a-7228-49d5-bc8e-4a3bc5ab735e #
vertex $-1 -1 $-1 $342 $378 #
straight-curve $-1 -1 $-1 -22.49999999999992184 5.000000000000000888 -22.5000000000000675 -8.326672684688696141e-15 10 6.38378239159463433e-15 I I #
point $-1 -1 $-1 -22.49999999999992184 5.000000000000000888 -22.5000000000000675 #
DXID-attrib $-1 -1 $-1 $-1 $294 @10 ASM ENTITY @36 60a02889-2261-4967-83cc-878791bb8c15 #
straight-curve $-1 -1 $-1 -22.5 64.99999999999997158 22.49999999999996803 10 8.326672684688692986e-15 6.41847686111419256e-15 I I #
edge $379 -1 $-1 $297 0 $374 4.5 $295 $380 forward @7 unknown #
point $-1 -1 $-1 22.5 65 22.5 #
point $-1 -1 $-1 -22.5 64.99999999999997158 22.49999999999996803 #
coedge $-1 -1 $-1 $341 $304 $337 $372 forward $253 $-1 #
point $-1 -1 $-1 22.50000000000007816 5.000000000000038192 -22.50000000000003908 #
edge $381 -1 $-1 $356 0 $335 0.5 $333 $382 forward @7 unknown #
DXID-attrib $-1 -1 $-1 $-1 $313 @10 ASM ENTITY @36 5c121f58-ce12-4b39-8eb1-0922047419ca #
vertex $-1 -1 $-1 $313 $383 #
straight-curve $-1 -1 $-1 30.00000000000004974 5.718927067511674193e-14 -44.99999999999996447 -10 -5.551115123125682122e-16 -1.046733174265477344e-14 F 0 F 6 #
edge $384 -1 $-1 $360 0 $324 9 $314 $385 forward @7 unknown #
DXID-attrib $-1 -1 $-1 $-1 $315 @10 ASM ENTITY @36 4d1d763a-d867-4f9a-86ed-94805da4e553 #
vertex $-1 -1 $-1 $358 $386 #
straight-curve $-1 -1 $-1 -29.99999999999995026 5.385860160124133542e-14 -45.00000000000003553 -5.551115123125811298e-16 10 1.233865247515089783e-14 I I #
point $-1 -1 $-1 -29.99999999999995026 5.385860160124133542e-14 -45.00000000000003553 #
DXID-attrib $-1 -1 $-1 $-1 $319 @10 ASM ENTITY @36 2ebdd7e8-77c5-438c-bde0-0cf2548d2383 #
straight-curve $-1 -1 $-1 -30.00000000000004974 4.999999999999943157 44.99999999999997158 10 5.551115123125682122e-16 1.046733174265477344e-14 I I #
point $-1 -1 $-1 29.99999999999995026 4.999999999999945821 45.00000000000003553 #
point $-1 -1 $-1 -30.00000000000004974 4.999999999999943157 44.99999999999997158 #
DXID-attrib $-1 -1 $-1 $-1 $326 @10 ASM ENTITY @36 60e80bf9-8bcf-4a51-b3f8-c5c2cd587722 #
straight-curve $-1 -1 $-1 29.99999999999995026 -5.385860160124133542e-14 45.00000000000003553 1.046733174265477344e-14 1.233865247515089783e-14 -10 F 0 F 9 #
DXID-attrib $-1 -1 $-1 $-1 $332 @10 ASM ENTITY @36 b34459ff-b6d7-450f-a380-b7acd45d46f3 #
straight-curve $-1 -1 $-1 30.00000000000004974 5.000000000000056843 -44.99999999999996447 -10 -5.551115123125682122e-16 -1.046733174265477344e-14 I I #
point $-1 -1 $-1 30.00000000000004974 5.000000000000056843 -44.99999999999996447 #
edge $387 -1 $-1 $374 0 $344 4.5 $337 $388 forward @7 unknown #
DXID-attrib $-1 -1 $-1 $-1 $338 @10 ASM ENTITY @36 bbc7706f-95c8-40ad-9ea6-45506b64c9ed #
vertex $-1 -1 $-1 $372 $389 #
straight-curve $-1 -1 $-1 22.50000000000007816 5.000000000000038192 -22.50000000000003908 -8.326672684688696141e-15 10 6.38378239159463433e-15 I I #
DXID-attrib $-1 -1 $-1 $-1 $342 @10 ASM ENTITY @36 127471bf-aab0-48b4-9807-2287bd1667f6 #
straight-curve $-1 -1 $-1 -22.49999999999997158 65 -22.50000000000003197 -6.418476861114187038e-15 -6.383782391594639063e-15 10 I I #
point $-1 -1 $-1 -22.49999999999997158 65 -22.50000000000003197 #
DXID-attrib $-1 -1 $-1 $-1 $349 @10 ASM ENTITY @36 34ec5bd8-5ed6-4780-b434-e1ad668d923b #
straight-curve $-1 -1 $-1 22.5 65 22.5 6.418476861114187038e-15 6.383782391594639063e-15 -10 I I #
DXID-attrib $-1 -1 $-1 $-1 $354 @10 ASM ENTITY @36 892323ea-a9ea-45cf-819a-f42d53b754b9 #
straight-curve $-1 -1 $-1 30.00000000000004974 5.718927067511674193e-14 -44.99999999999996447 -5.551115123125811298e-16 10 1.233865247515089783e-14 I I #
point $-1 -1 $-1 30.00000000000004974 5.718927067511674193e-14 -44.99999999999996447 #
DXID-attrib $-1 -1 $-1 $-1 $358 @10 ASM ENTITY @36 4f1e4321-a393-4a90-b305-7a404c0f3a27 #
straight-curve $-1 -1 $-1 -29.99999999999995026 5.000000000000054179 -45.00000000000002842 -1.046733174265477344e-14 -1.233865247515089783e-14 10 I I #
point $-1 -1 $-1 -29.99999999999995026 5.000000000000054179 -45.00000000000002842 #
DXID-attrib $-1 -1 $-1 $-1 $372 @10 ASM ENTITY @36 9ab3d5f6-01c6-45f2-95f5-59375e3c610e #
straight-curve $-1 -1 $-1 22.50000000000002842 65.00000000000004263 -22.5 -10 -8.326672684688692986e-15 -6.41847686111419256e-15 I I #
point $-1 -1 $-1 22.50000000000002842 65.00000000000004263 -22.5 #
End-of-ACIS-data 