700 0 2 0           
30 Autodesk Translation Framework 20 ASM 228.3.1.65535 NT 24 Mon May  1 19:29:09 2023 
1 9.999999999999999547e-07 1.000000000000000036e-10 
body $2 -1 $-1 $3 $-1 $4 #
body $5 -1 $-1 $6 $-1 $7 #
rgb_color-st-attrib $-1 -1 $8 $-1 $0 0.7450980392156862919 0.737254901960784359 0.7294117647058823151 #
lump $-1 -1 $-1 $-1 $9 $0 #
transform $-1 -1 1 0 0 0 1 0 0 0 1 0 0 0 1 no_rotate no_reflect no_shear #
rgb_color-st-attrib $-1 -1 $10 $-1 $1 0.7490196078431372584 0.7490196078431372584 0.7490196078431372584 #
lump $-1 -1 $-1 $-1 $11 $1 #
transform $-1 -1 1 0 0 0 1 0 0 0 1 0 0 0 1 no_rotate no_reflect no_shear #
DXID-attrib $-1 -1 $-1 $2 $0 @10 ASM ENTITY @107 SQUARE_PROFILE_H1.IPT|:|0795B9D8FD5446AB9EF64EE0354186194CDEF64C|:|DA4B9237BACCCDF19C0760CAB7AEC4A8359010B0 #
shell $-1 -1 $-1 $-1 $-1 $12 $-1 $3 #
DXID-attrib $-1 -1 $-1 $5 $1 @10 ASM ENTITY @116 STEEL_PLATE_L1_COUNTERSINK.IPT|:|34731630547C04AE8473BD8BBABC7AC003727525|:|DA4B9237BACCCDF19C0760CAB7AEC4A8359010B0 #
shell $-1 -1 $-1 $-1 $-1 $13 $-1 $6 #
face $14 -1 $-1 $15 $16 $9 $-1 $17 forward single #
face $18 -1 $-1 $19 $20 $11 $-1 $21 forward single #
DXID-attrib $-1 -1 $-1 $-1 $12 @10 ASM ENTITY @36 1668a749-fa20-477d-8d68-deaf056d63d5 #
face $22 -1 $-1 $23 $24 $9 $-1 $25 forward single #
loop $-1 -1 $-1 $-1 $26 $12 #
plane-surface $-1 -1 $-1 19.5 4.999999999999984901 19.50000000000011369 -2.839294206145516523e-16 1.146249310199860637e-15 -1 -10 -3.747002708109893858e-15 2.839294206145512086e-15 forward_v I I I I #
DXID-attrib $-1 -1 $-1 $-1 $13 @10 ASM ENTITY @36 29e0500d-319c-4c67-b131-b9ce37b942cd #
face $27 -1 $-1 $28 $29 $11 $-1 $30 forward single #
loop $-1 -1 $-1 $31 $32 $13 #
cone-surface $-1 -1 $-1 20.00000000000002132 3.65000000000001501 35 7.678336174697258825e-32 1 -4.241612732404111306e-16 3.600000000000000977 -6.077449298477055002e-31 -7.811293686182705327e-16 1 I I -0.6316729511622359849 -0.775234985517288977 3.600000000000000977 forward I I I I #
DXID-attrib $-1 -1 $-1 $-1 $15 @10 ASM ENTITY @36 5b5ed75a-1802-44e3-84db-3baa1f35a5b8 #
face $33 -1 $-1 $34 $35 $9 $-1 $36 forward single #
loop $-1 -1 $-1 $-1 $37 $15 #
plane-surface $-1 -1 $-1 19.49999999999998934 5.00000000000002931 -19.49999999999988987 -1 -3.747002708109893956e-16 2.839294206145512086e-16 2.839294206145516424e-15 -1.146249310199860597e-14 10 forward_v I I I I #
coedge $-1 -1 $-1 $38 $39 $40 $41 forward $16 $-1 #
DXID-attrib $-1 -1 $-1 $-1 $19 @10 ASM ENTITY @36 9380f77a-8de4-4d93-b1c0-2324b606349a #
face $42 -1 $-1 $43 $44 $11 $-1 $45 forward single #
loop $-1 -1 $-1 $46 $47 $19 #
plane-surface $-1 -1 $-1 -6.021593227914017717e-31 5 -2.120806366202055702e-15 7.678336174697258825e-32 1 -4.241612732404111306e-16 2.16980380171741762e-15 4.241612732404111405e-15 10 forward_v I I I I #
loop $-1 -1 $-1 $-1 $48 $13 #
coedge $-1 -1 $-1 $32 $32 $49 $50 forward $20 $-1 #
DXID-attrib $-1 -1 $-1 $-1 $23 @10 ASM ENTITY @36 e54bde50-e4cc-4442-aab5-5f683a3f0ea9 #
face $51 -1 $-1 $52 $53 $9 $-1 $54 forward single #
loop $-1 -1 $-1 $-1 $55 $23 #
plane-surface $-1 -1 $-1 -19.50000000000001421 5.000000000000015099 -19.49999999999987921 2.839294206145516523e-16 -1.146249310199860637e-15 1 10 3.747002708109893858e-15 -2.839294206145512086e-15 forward_v I I I I #
coedge $-1 -1 $-1 $56 $57 $58 $59 forward $24 $-1 #
coedge $-1 -1 $-1 $60 $26 $61 $62 forward $16 $-1 #
coedge $-1 -1 $-1 $26 $60 $56 $63 reversed $16 $-1 #
coedge $-1 -1 $-1 $58 $64 $26 $41 reversed $65 $-1 #
edge $66 -1 $-1 $67 -0 $68 3.900000000000000355 $26 $69 forward @7 unknown #
DXID-attrib $-1 -1 $-1 $-1 $28 @10 ASM ENTITY @36 d64e07cd-be88-49ba-a273-fff88d7e69b5 #
face $70 -1 $-1 $71 $72 $11 $-1 $73 forward single #
loop $-1 -1 $-1 $74 $75 $28 #
cone-surface $-1 -1 $-1 20.00000000000002132 1.484564456341438834e-14 35 7.678336174697258825e-32 1 -4.241612732404111306e-16 2.5 -4.220450901720175795e-31 -5.424509504293544051e-16 1 I I 0 -1 2.5 forward I I I I #
loop $-1 -1 $-1 $76 $77 $19 #
coedge $-1 -1 $-1 $47 $47 $78 $79 reversed $29 $-1 #
coedge $-1 -1 $-1 $48 $48 $80 $81 forward $31 $-1 #
coedge $-1 -1 $-1 $49 $49 $32 $50 reversed $74 $-1 #
edge $-1 -1 $-1 $82 -3.141592653589793116 $82 3.141592653589793116 $49 $83 forward @7 unknown #
DXID-attrib $-1 -1 $-1 $-1 $34 @10 ASM ENTITY @36 8b4402f9-41bb-43e6-9c32-8cd5025f595c #
face $84 -1 $-1 $85 $86 $9 $-1 $87 forward single #
loop $-1 -1 $-1 $-1 $88 $34 #
plane-surface $-1 -1 $-1 -19.50000000000000355 4.99999999999997069 19.50000000000012434 1 3.747002708109893956e-16 -2.839294206145512086e-16 -2.839294206145516424e-15 1.146249310199860597e-14 -10 forward_v I I I I #
coedge $-1 -1 $-1 $89 $90 $91 $92 forward $35 $-1 #
coedge $-1 -1 $-1 $93 $37 $39 $63 forward $24 $-1 #
coedge $-1 -1 $-1 $37 $93 $89 $94 reversed $24 $-1 #
coedge $-1 -1 $-1 $91 $40 $37 $59 reversed $65 $-1 #
edge $95 -1 $-1 $96 0 $67 3.900000000000000355 $37 $97 forward @7 unknown #
coedge $-1 -1 $-1 $39 $38 $98 $99 reversed $16 $-1 #
coedge $-1 -1 $-1 $88 $100 $38 $62 reversed $53 $-1 #
edge $101 -1 $-1 $68 0 $102 6 $61 $103 forward @7 unknown #
edge $104 -1 $-1 $67 0 $105 6 $56 $106 forward @7 unknown #
coedge $-1 -1 $-1 $40 $91 $88 $107 reversed $65 $-1 #
loop $-1 -1 $-1 $-1 $64 $108 #
DXID-attrib $-1 -1 $-1 $-1 $41 @10 ASM ENTITY @36 4add9d74-9323-48f3-9d04-deaa676415a4 #
vertex $-1 -1 $-1 $41 $109 #
vertex $-1 -1 $-1 $41 $110 #
straight-curve $-1 -1 $-1 19.5 4.999999999999984901 19.50000000000011369 -10 -3.747002708109893858e-15 2.839294206145512086e-15 F -0 F 3.900000000000000355 #
DXID-attrib $-1 -1 $-1 $-1 $43 @10 ASM ENTITY @36 b80fb9fb-84c3-4c76-81c4-fda0ba03915e #
face $111 -1 $-1 $112 $113 $11 $-1 $114 forward single #
loop $-1 -1 $-1 $115 $116 $43 #
cone-surface $-1 -1 $-1 19.99999999999999645 3.649999999999984812 -35 7.678336174697258825e-32 1 -4.241612732404111306e-16 3.600000000000000977 -6.077449298477055002e-31 -7.811293686182705327e-16 1 I I -0.6316729511622359849 -0.775234985517288977 3.600000000000000977 forward I I I I #
loop $-1 -1 $-1 $-1 $49 $28 #
coedge $-1 -1 $-1 $75 $75 $117 $118 forward $44 $-1 #
loop $-1 -1 $-1 $119 $120 $19 #
coedge $-1 -1 $-1 $77 $77 $121 $122 reversed $46 $-1 #
coedge $-1 -1 $-1 $78 $78 $47 $79 forward $115 $-1 #
edge $-1 -1 $-1 $123 -3.141592653589793116 $123 3.141592653589793116 $47 $124 forward @7 unknown #
coedge $-1 -1 $-1 $80 $80 $48 $81 reversed $125 $-1 #
edge $-1 -1 $-1 $126 -3.141592653589793116 $126 3.141592653589793116 $80 $127 forward @7 unknown #
vertex $-1 -1 $-1 $50 $128 #
ellipse-curve $-1 -1 $-1 20.00000000000002132 2.300000000000014477 35 -7.678336174697258825e-32 -1 4.241612732404111306e-16 2.5 -4.220450901720175795e-31 -5.424509504293544051e-16 1 I I #
DXID-attrib $-1 -1 $-1 $-1 $52 @10 ASM ENTITY @36 84e4c196-d54a-4ba6-ab56-cd0bc848e33b #
face $129 -1 $-1 $130 $131 $9 $-1 $132 forward single #
loop $-1 -1 $-1 $-1 $133 $52 #
plane-surface $-1 -1 $-1 -22.50000000000000355 4.999999999999965361 22.50000000000012079 2.839294206145516523e-16 -1.146249310199860637e-15 1 10 3.747002708109893858e-15 -2.839294206145512086e-15 forward_v I I I I #
coedge $-1 -1 $-1 $134 $61 $64 $107 forward $53 $-1 #
coedge $-1 -1 $-1 $135 $55 $57 $94 forward $35 $-1 #
coedge $-1 -1 $-1 $55 $135 $134 $136 reversed $35 $-1 #
coedge $-1 -1 $-1 $64 $58 $55 $92 reversed $65 $-1 #
edge $137 -1 $-1 $138 0 $96 3.900000000000000355 $55 $139 forward @7 unknown #
coedge $-1 -1 $-1 $57 $56 $140 $141 reversed $24 $-1 #
edge $142 -1 $-1 $96 0 $143 6 $89 $144 forward @7 unknown #
DXID-attrib $-1 -1 $-1 $-1 $59 @10 ASM ENTITY @36 7c85b03b-3371-4955-98da-96d09a90c4b7 #
vertex $-1 -1 $-1 $59 $145 #
straight-curve $-1 -1 $-1 19.49999999999998934 5.00000000000002931 -19.49999999999988987 2.839294206145516424e-15 -1.146249310199860597e-14 10 F 0 F 3.900000000000000355 #
coedge $-1 -1 $-1 $146 $140 $60 $99 forward $147 $-1 #
edge $148 -1 $-1 $105 -0 $102 3.900000000000000355 $60 $149 forward @7 unknown #
coedge $-1 -1 $-1 $61 $134 $146 $150 reversed $53 $-1 #
DXID-attrib $-1 -1 $-1 $-1 $62 @10 ASM ENTITY @36 d92b3f69-7069-406c-8a59-a5909b7726f0 #
vertex $-1 -1 $-1 $62 $151 #
straight-curve $-1 -1 $-1 -19.50000000000000355 4.99999999999997069 19.50000000000012434 -3.747002708109890702e-15 10 1.146249310199860913e-14 I I #
DXID-attrib $-1 -1 $-1 $-1 $63 @10 ASM ENTITY @36 d390ba12-eb79-41f6-a4d9-b92c4498ee1e #
vertex $-1 -1 $-1 $99 $152 #
straight-curve $-1 -1 $-1 19.5 4.999999999999984901 19.50000000000011369 -3.747002708109890702e-15 10 1.146249310199860913e-14 I I #
edge $153 -1 $-1 $68 -0 $138 3.900000000000000355 $88 $154 forward @7 unknown #
face $155 -1 $-1 $-1 $156 $9 $-1 $157 reversed single #
point $-1 -1 $-1 19.5 4.999999999999984901 19.50000000000011369 #
point $-1 -1 $-1 -19.50000000000000355 4.99999999999997069 19.50000000000012434 #
DXID-attrib $-1 -1 $-1 $-1 $71 @10 ASM ENTITY @36 67d4fee2-d0f3-490c-ba9c-c0c90f4541d8 #
face $158 -1 $-1 $159 $160 $11 $-1 $161 forward single #
loop $-1 -1 $-1 $162 $163 $71 #
cone-surface $-1 -1 $-1 19.99999999999999645 -1.484564456341439149e-14 -35 7.678336174697258825e-32 1 -4.241612732404111306e-16 2.5 -4.220450901720175795e-31 -5.424509504293544051e-16 1 I I 0 -1 2.5 forward I I I I #
loop $-1 -1 $-1 $-1 $78 $43 #
coedge $-1 -1 $-1 $116 $116 $164 $165 forward $72 $-1 #
coedge $-1 -1 $-1 $117 $117 $75 $118 reversed $166 $-1 #
edge $167 -1 $-1 $168 -3.141592653589793116 $168 3.141592653589793116 $75 $169 forward @7 unknown #
loop $-1 -1 $-1 $125 $170 $19 #
coedge $-1 -1 $-1 $171 $172 $173 $174 forward $76 $-1 #
coedge $-1 -1 $-1 $121 $121 $77 $122 forward $175 $-1 #
edge $-1 -1 $-1 $176 -3.141592653589793116 $176 3.141592653589793116 $77 $177 forward @7 unknown #
vertex $-1 -1 $-1 $79 $178 #
ellipse-curve $-1 -1 $-1 19.99999999999999645 4.999999999999984901 -35 7.678336174697258825e-32 1 -4.241612732404111306e-16 4.700000000000001954 -7.934447695233933332e-31 -1.019807786807186562e-15 1 I I #
loop $-1 -1 $-1 $-1 $80 $19 #
vertex $-1 -1 $-1 $81 $179 #
ellipse-curve $-1 -1 $-1 20.00000000000002132 5.000000000000014211 35 7.678336174697258825e-32 1 -4.241612732404111306e-16 4.700000000000001954 -7.934447695233933332e-31 -1.019807786807186562e-15 1 I I #
point $-1 -1 $-1 17.50000000000002132 2.300000000000014477 35 #
DXID-attrib $-1 -1 $-1 $-1 $85 @10 ASM ENTITY @36 b778bdfa-3acf-49ae-a554-ec86b3b14b2c #
face $180 -1 $-1 $181 $182 $9 $-1 $183 forward single #
loop $-1 -1 $-1 $-1 $184 $85 #
plane-surface $-1 -1 $-1 -22.50000000000001066 5.000000000000017764 -22.49999999999987921 -1 -3.747002708109893956e-16 2.839294206145512086e-16 2.839294206145516424e-15 -1.146249310199860597e-14 10 forward_v I I I I #
coedge $-1 -1 $-1 $185 $186 $187 $188 forward $86 $-1 #
coedge $-1 -1 $-1 $100 $88 $90 $136 forward $53 $-1 #
coedge $-1 -1 $-1 $90 $89 $189 $190 reversed $35 $-1 #
edge $191 -1 $-1 $138 0 $192 6 $134 $193 forward @7 unknown #
DXID-attrib $-1 -1 $-1 $-1 $92 @10 ASM ENTITY @36 61487162-70a4-40d7-ac45-e8ccdc6c99c1 #
vertex $-1 -1 $-1 $92 $194 #
straight-curve $-1 -1 $-1 -19.50000000000001421 5.000000000000015099 -19.49999999999987921 10 3.747002708109893858e-15 -2.839294206145512086e-15 F 0 F 3.900000000000000355 #
coedge $-1 -1 $-1 $98 $189 $93 $141 forward $147 $-1 #
edge $195 -1 $-1 $143 0 $105 3.900000000000000355 $93 $196 forward @7 unknown #
DXID-attrib $-1 -1 $-1 $-1 $94 @10 ASM ENTITY @36 a07d19e3-a88a-4653-8fb4-a58861a067c8 #
vertex $-1 -1 $-1 $141 $197 #
straight-curve $-1 -1 $-1 19.49999999999998934 5.00000000000002931 -19.49999999999988987 -3.747002708109890702e-15 10 1.146249310199860913e-14 I I #
point $-1 -1 $-1 19.49999999999998934 5.00000000000002931 -19.49999999999988987 #
coedge $-1 -1 $-1 $189 $98 $100 $150 forward $147 $-1 #
loop $-1 -1 $-1 $-1 $146 $198 #
DXID-attrib $-1 -1 $-1 $-1 $99 @10 ASM ENTITY @36 29919453-be76-413f-9042-d3260ed000c1 #
straight-curve $-1 -1 $-1 19.49999999999997868 64.99999999999998579 19.50000000000018119 -10 -3.747002708109893858e-15 2.839294206145512086e-15 I I #
edge $199 -1 $-1 $102 -0 $192 3.900000000000000355 $100 $200 forward @7 unknown #
point $-1 -1 $-1 -19.50000000000002842 64.99999999999997158 19.50000000000019185 #
point $-1 -1 $-1 19.49999999999997868 64.99999999999998579 19.50000000000018119 #
DXID-attrib $-1 -1 $-1 $-1 $107 @10 ASM ENTITY @36 d5adae68-5ef8-479b-ad3e-0fd1727bae4a #
straight-curve $-1 -1 $-1 -19.50000000000000355 4.99999999999997069 19.50000000000012434 -2.839294206145516424e-15 1.146249310199860597e-14 -10 F -0 F 3.900000000000000355 #
DXID-attrib $-1 -1 $-1 $-1 $108 @10 ASM ENTITY @36 7566352d-99dc-4daf-ae4f-f23e6d11f354 #
loop $-1 -1 $-1 $65 $201 $108 #
plane-surface $-1 -1 $-1 -8.881784197001241279e-15 5 1.154631945610163054e-13 -3.747002708109890505e-16 1 1.146249310199860834e-15 2.839294206145516424e-15 -1.146249310199860597e-14 10 forward_v I I I I #
DXID-attrib $-1 -1 $-1 $-1 $112 @10 ASM ENTITY @36 ceba38b7-c704-4f4f-9c9d-1cf2b964be7d #
face $202 -1 $-1 $203 $204 $11 $-1 $205 forward single #
loop $-1 -1 $-1 $206 $207 $112 #
cone-surface $-1 -1 $-1 -20.00000000000000711 3.649999999999984812 -34.99999999999998579 7.678336174697258825e-32 1 -4.241612732404111306e-16 3.599999999999999645 -6.077449298477052374e-31 -7.811293686182702369e-16 1 I I -0.6316729511622356519 -0.7752349855172894211 3.599999999999999645 forward I I I I #
loop $-1 -1 $-1 $-1 $164 $71 #
coedge $-1 -1 $-1 $163 $163 $208 $209 forward $113 $-1 #
coedge $-1 -1 $-1 $164 $164 $116 $165 reversed $162 $-1 #
edge $-1 -1 $-1 $210 -3.141592653589793116 $210 3.141592653589793116 $164 $211 forward @7 unknown #
loop $-1 -1 $-1 $-1 $117 $212 #
DXID-attrib $-1 -1 $-1 $-1 $118 @10 ASM ENTITY @36 3bed1cdc-08fd-4ad7-8ddd-dda73c73e975 #
vertex $-1 -1 $-1 $118 $213 #
ellipse-curve $-1 -1 $-1 20.00000000000002132 1.484564456341438834e-14 35 -7.678336174697258825e-32 -1 4.241612732404111306e-16 2.5 -4.220450901720175795e-31 -5.424509504293544051e-16 1 I I #
coedge $-1 -1 $-1 $170 $170 $214 $215 reversed $119 $-1 #
coedge $-1 -1 $-1 $216 $120 $217 $218 forward $76 $-1 #
coedge $-1 -1 $-1 $120 $216 $219 $220 forward $76 $-1 #
coedge $-1 -1 $-1 $221 $222 $120 $174 reversed $223 $-1 #
edge $224 -1 $-1 $225 0 $226 9 $173 $227 forward @7 unknown #
loop $-1 -1 $-1 $-1 $121 $203 #
vertex $-1 -1 $-1 $122 $228 #
ellipse-curve $-1 -1 $-1 -19.99999999999997868 5.000000000000014211 35.00000000000001421 7.678336174697258825e-32 1 -4.241612732404111306e-16 4.699999999999999289 -7.934447695233929829e-31 -1.019807786807186167e-15 1 I I #
point $-1 -1 $-1 15.29999999999999538 4.999999999999984901 -35 #
point $-1 -1 $-1 15.30000000000001847 5.000000000000014211 35 #
DXID-attrib $-1 -1 $-1 $-1 $130 @10 ASM ENTITY @36 0e3b01a0-375a-4772-9d8c-8d1cdecdf946 #
face $229 -1 $-1 $198 $230 $9 $-1 $231 forward single #
loop $-1 -1 $-1 $-1 $232 $130 #
plane-surface $-1 -1 $-1 22.49999999999998934 5.000000000000034639 -22.49999999999988631 -2.839294206145516523e-16 1.146249310199860637e-15 -1 -10 -3.747002708109893858e-15 2.839294206145512086e-15 forward_v I I I I #
coedge $-1 -1 $-1 $233 $234 $235 $236 forward $131 $-1 #
coedge $-1 -1 $-1 $237 $133 $238 $239 forward $86 $-1 #
coedge $-1 -1 $-1 $133 $237 $233 $240 reversed $86 $-1 #
coedge $-1 -1 $-1 $235 $201 $133 $188 reversed $156 $-1 #
edge $241 -1 $-1 $242 0 $243 4.5 $133 $244 forward @7 unknown #
coedge $-1 -1 $-1 $140 $146 $135 $190 forward $147 $-1 #
edge $245 -1 $-1 $192 0 $143 3.900000000000000355 $135 $246 forward @7 unknown #
DXID-attrib $-1 -1 $-1 $-1 $136 @10 ASM ENTITY @36 5dc7c2ca-c3ce-4558-b940-02e4bc445b29 #
vertex $-1 -1 $-1 $190 $247 #
straight-curve $-1 -1 $-1 -19.50000000000001421 5.000000000000015099 -19.49999999999987921 -3.747002708109890702e-15 10 1.146249310199860913e-14 I I #
point $-1 -1 $-1 -19.50000000000001421 5.000000000000015099 -19.49999999999987921 #
DXID-attrib $-1 -1 $-1 $-1 $141 @10 ASM ENTITY @36 877e5832-7002-4798-86a2-10549a198ff9 #
straight-curve $-1 -1 $-1 19.49999999999996803 65.00000000000002842 -19.49999999999982236 2.839294206145516424e-15 -1.146249310199860597e-14 10 I I #
point $-1 -1 $-1 19.49999999999996803 65.00000000000002842 -19.49999999999982236 #
face $248 -1 $-1 $108 $249 $9 $-1 $250 forward single #
DXID-attrib $-1 -1 $-1 $-1 $150 @10 ASM ENTITY @36 58ee1295-541f-462a-818a-746f7b84a8ee #
straight-curve $-1 -1 $-1 -19.50000000000002842 64.99999999999997158 19.50000000000019185 -2.839294206145516424e-15 1.146249310199860597e-14 -10 I I #
coedge $-1 -1 $-1 $187 $251 $252 $253 reversed $156 $-1 #
DXID-attrib $-1 -1 $-1 $-1 $159 @10 ASM ENTITY @36 0349ed7e-b620-49bb-b511-a7ba82a5dc60 #
face $254 -1 $-1 $255 $256 $11 $-1 $257 forward single #
loop $-1 -1 $-1 $258 $259 $159 #
cone-surface $-1 -1 $-1 -20.00000000000000711 -1.484564456341438203e-14 -34.99999999999998579 7.678336174697258825e-32 1 -4.241612732404111306e-16 2.5 -4.220450901720175795e-31 -5.424509504293544051e-16 1 I I 0 -1 2.5 forward I I I I #
loop $-1 -1 $-1 $-1 $214 $112 #
coedge $-1 -1 $-1 $207 $207 $260 $261 forward $160 $-1 #
coedge $-1 -1 $-1 $208 $208 $163 $209 reversed $262 $-1 #
edge $263 -1 $-1 $264 -3.141592653589793116 $264 3.141592653589793116 $163 $265 forward @7 unknown #
vertex $-1 -1 $-1 $165 $266 #
ellipse-curve $-1 -1 $-1 19.99999999999999645 2.299999999999985167 -35 -7.678336174697258825e-32 -1 4.241612732404111306e-16 2.5 -4.220450901720175795e-31 -5.424509504293544051e-16 1 I I #
face $267 -1 $-1 $-1 $268 $11 $-1 $269 reversed single #
point $-1 -1 $-1 17.50000000000002132 1.484564456341439149e-14 35 #
coedge $-1 -1 $-1 $214 $214 $170 $215 forward $206 $-1 #
edge $-1 -1 $-1 $270 -3.141592653589793116 $270 3.141592653589793116 $170 $271 forward @7 unknown #
coedge $-1 -1 $-1 $172 $171 $272 $273 forward $76 $-1 #
coedge $-1 -1 $-1 $274 $275 $171 $218 reversed $276 $-1 #
edge $277 -1 $-1 $226 0 $278 6 $217 $279 forward @7 unknown #
coedge $-1 -1 $-1 $280 $281 $172 $220 reversed $282 $-1 #
edge $283 -1 $-1 $284 0 $225 6 $219 $285 forward @7 unknown #
coedge $-1 -1 $-1 $286 $173 $281 $287 reversed $223 $-1 #
coedge $-1 -1 $-1 $173 $286 $274 $288 forward $223 $-1 #
loop $-1 -1 $-1 $-1 $286 $289 #
DXID-attrib $-1 -1 $-1 $-1 $174 @10 ASM ENTITY @36 412c60ba-0e27-4b99-88f0-11d3b4c223a6 #
vertex $-1 -1 $-1 $174 $290 #
vertex $-1 -1 $-1 $174 $291 #
straight-curve $-1 -1 $-1 30.00000000000000711 5.000000000000018652 44.99999999999999289 -2.16980380171741762e-15 -4.241612732404111405e-15 -10 I I #
point $-1 -1 $-1 -24.69999999999998153 5.000000000000014211 35.00000000000001421 #
DXID-attrib $-1 -1 $-1 $-1 $181 @10 ASM ENTITY @36 861a8e64-96f7-4ad2-a399-772f37216ad0 #
loop $-1 -1 $-1 $-1 $252 $181 #
plane-surface $-1 -1 $-1 22.49999999999999645 4.999999999999982236 22.50000000000011369 1 3.747002708109893956e-16 -2.839294206145512086e-16 -2.839294206145516424e-15 1.146249310199860597e-14 -10 forward_v I I I I #
coedge $-1 -1 $-1 $292 $293 $251 $294 forward $182 $-1 #
coedge $-1 -1 $-1 $295 $184 $186 $240 forward $131 $-1 #
coedge $-1 -1 $-1 $184 $295 $292 $296 reversed $131 $-1 #
coedge $-1 -1 $-1 $251 $187 $184 $236 reversed $156 $-1 #
edge $297 -1 $-1 $298 0 $242 4.5 $184 $299 forward @7 unknown #
coedge $-1 -1 $-1 $186 $185 $300 $301 reversed $86 $-1 #
coedge $-1 -1 $-1 $252 $302 $185 $239 reversed $230 $-1 #
edge $303 -1 $-1 $243 0 $304 6 $238 $305 forward @7 unknown #
edge $306 -1 $-1 $242 0 $307 6 $233 $308 forward @7 unknown #
DXID-attrib $-1 -1 $-1 $-1 $188 @10 ASM ENTITY @36 e7c835b1-5dad-402c-9c3f-94ce4b3cf636 #
vertex $-1 -1 $-1 $188 $309 #
vertex $-1 -1 $-1 $188 $310 #
straight-curve $-1 -1 $-1 -22.50000000000000355 4.999999999999965361 22.50000000000012079 10 3.747002708109893858e-15 -2.839294206145512086e-15 F 0 F 4.5 #
DXID-attrib $-1 -1 $-1 $-1 $190 @10 ASM ENTITY @36 f892b15b-1b5e-4db4-9354-0e539db841e6 #
straight-curve $-1 -1 $-1 -19.50000000000003553 65.00000000000001421 -19.49999999999981171 10 3.747002708109893858e-15 -2.839294206145512086e-15 I I #
point $-1 -1 $-1 -19.50000000000003553 65.00000000000001421 -19.49999999999981171 #
DXID-attrib $-1 -1 $-1 $-1 $198 @10 ASM ENTITY @36 9e80fbb0-e768-4901-94d9-d22193108186 #
loop $-1 -1 $-1 $147 $311 $198 #
plane-surface $-1 -1 $-1 -3.136380044566058391e-14 65 1.842381531730079539e-13 -3.747002708109890505e-16 1 1.146249310199860834e-15 2.839294206145516424e-15 -1.146249310199860597e-14 10 forward_v I I I I #
coedge $-1 -1 $-1 $201 $235 $232 $294 reversed $156 $-1 #
coedge $-1 -1 $-1 $312 $238 $201 $253 forward $230 $-1 #
edge $313 -1 $-1 $243 0 $314 4.5 $252 $315 forward @7 unknown #
DXID-attrib $-1 -1 $-1 $-1 $203 @10 ASM ENTITY @36 94363617-eed8-45b3-84fd-d495084d450f #
face $316 -1 $-1 $317 $318 $11 $-1 $319 forward single #
loop $-1 -1 $-1 $175 $320 $203 #
cone-surface $-1 -1 $-1 -19.99999999999997868 3.65000000000001501 35.00000000000001421 7.678336174697258825e-32 1 -4.241612732404111306e-16 3.599999999999999645 -6.077449298477052374e-31 -7.811293686182702369e-16 1 I I -0.6316729511622356519 -0.7752349855172894211 3.599999999999999645 forward I I I I #
loop $-1 -1 $-1 $-1 $260 $159 #
coedge $-1 -1 $-1 $259 $259 $321 $322 forward $204 $-1 #
coedge $-1 -1 $-1 $260 $260 $207 $261 reversed $258 $-1 #
edge $-1 -1 $-1 $323 -3.141592653589793116 $323 3.141592653589793116 $260 $324 forward @7 unknown #
loop $-1 -1 $-1 $325 $208 $212 #
DXID-attrib $-1 -1 $-1 $-1 $209 @10 ASM ENTITY @36 74d9ce95-40bc-4590-bd47-65140e7e68d5 #
vertex $-1 -1 $-1 $209 $326 #
ellipse-curve $-1 -1 $-1 19.99999999999999645 -1.484564456341439149e-14 -35 -7.678336174697258825e-32 -1 4.241612732404111306e-16 2.5 -4.220450901720175795e-31 -5.424509504293544051e-16 1 I I #
point $-1 -1 $-1 17.49999999999999645 2.299999999999985167 -35 #
DXID-attrib $-1 -1 $-1 $-1 $212 @10 ASM ENTITY @36 7768450d-f5be-4781-a584-f325ea699781 #
loop $-1 -1 $-1 $327 $328 $212 #
plane-surface $-1 -1 $-1 -9.860761315262647568e-31 0 0 7.678336174697258825e-32 1 -4.241612732404111306e-16 2.16980380171741762e-15 4.241612732404111405e-15 10 forward_v I I I I #
vertex $-1 -1 $-1 $215 $329 #
ellipse-curve $-1 -1 $-1 -20.00000000000000711 4.999999999999984901 -34.99999999999998579 7.678336174697258825e-32 1 -4.241612732404111306e-16 4.699999999999999289 -7.934447695233929829e-31 -1.019807786807186167e-15 1 I I #
coedge $-1 -1 $-1 $330 $331 $216 $273 reversed $332 $-1 #
edge $333 -1 $-1 $278 0 $284 9 $272 $334 forward @7 unknown #
coedge $-1 -1 $-1 $335 $217 $222 $288 reversed $276 $-1 #
coedge $-1 -1 $-1 $217 $335 $330 $336 forward $276 $-1 #
loop $-1 -1 $-1 $-1 $335 $337 #
DXID-attrib $-1 -1 $-1 $-1 $218 @10 ASM ENTITY @36 ce56e90d-6065-40f2-9b20-38012fb29346 #
vertex $-1 -1 $-1 $218 $338 #
straight-curve $-1 -1 $-1 29.99999999999999289 4.999999999999981348 -45.00000000000000711 -10 1.688180360688070318e-30 2.16980380171741762e-15 I I #
coedge $-1 -1 $-1 $339 $219 $331 $340 reversed $282 $-1 #
coedge $-1 -1 $-1 $219 $339 $221 $287 forward $282 $-1 #
loop $-1 -1 $-1 $-1 $339 $317 #
DXID-attrib $-1 -1 $-1 $-1 $220 @10 ASM ENTITY @36 20fe7308-75ad-4dcf-ad5e-f17116f203c4 #
vertex $-1 -1 $-1 $273 $341 #
straight-curve $-1 -1 $-1 -29.99999999999999289 5.000000000000018652 45 10 -1.688180360688070318e-30 -2.16980380171741762e-15 I I #
coedge $-1 -1 $-1 $222 $221 $328 $342 forward $223 $-1 #
edge $343 -1 $-1 $344 0 $225 0.5 $221 $345 forward @7 unknown #
edge $346 -1 $-1 $347 0 $226 0.5 $222 $348 forward @7 unknown #
face $349 -1 $-1 $212 $223 $11 $-1 $350 forward single #
point $-1 -1 $-1 30.00000000000000711 5.000000000000018652 44.99999999999999289 #
point $-1 -1 $-1 29.99999999999999289 4.999999999999981348 -45.00000000000000711 #
coedge $-1 -1 $-1 $351 $232 $234 $296 forward $182 $-1 #
coedge $-1 -1 $-1 $232 $351 $312 $352 reversed $182 $-1 #
edge $353 -1 $-1 $314 0 $298 4.5 $232 $354 forward @7 unknown #
coedge $-1 -1 $-1 $234 $233 $355 $356 reversed $131 $-1 #
edge $357 -1 $-1 $298 0 $358 6 $292 $359 forward @7 unknown #
DXID-attrib $-1 -1 $-1 $-1 $236 @10 ASM ENTITY @36 ee270357-375f-48a2-8934-b798532d4776 #
vertex $-1 -1 $-1 $236 $360 #
straight-curve $-1 -1 $-1 -22.50000000000001066 5.000000000000017764 -22.49999999999987921 2.839294206145516424e-15 -1.146249310199860597e-14 10 F 0 F 4.5 #
coedge $-1 -1 $-1 $311 $355 $237 $301 forward $249 $-1 #
edge $361 -1 $-1 $307 0 $304 4.5 $237 $362 forward @7 unknown #
coedge $-1 -1 $-1 $238 $312 $311 $363 reversed $230 $-1 #
DXID-attrib $-1 -1 $-1 $-1 $239 @10 ASM ENTITY @36 40560019-3da4-4a4d-ba78-b6c6c4034caa #
vertex $-1 -1 $-1 $239 $364 #
straight-curve $-1 -1 $-1 22.49999999999999645 4.999999999999982236 22.50000000000011369 -3.747002708109890702e-15 10 1.146249310199860913e-14 I I #
DXID-attrib $-1 -1 $-1 $-1 $240 @10 ASM ENTITY @36 85d0025a-d9f0-4b10-bb38-8341ebc160ac #
vertex $-1 -1 $-1 $301 $365 #
straight-curve $-1 -1 $-1 -22.50000000000000355 4.999999999999965361 22.50000000000012079 -3.747002708109890702e-15 10 1.146249310199860913e-14 I I #
point $-1 -1 $-1 -22.50000000000000355 4.999999999999965361 22.50000000000012079 #
point $-1 -1 $-1 22.49999999999999645 4.999999999999982236 22.50000000000011369 #
coedge $-1 -1 $-1 $366 $300 $302 $363 forward $249 $-1 #
coedge $-1 -1 $-1 $302 $252 $293 $352 forward $230 $-1 #
DXID-attrib $-1 -1 $-1 $-1 $253 @10 ASM ENTITY @36 9c0ce08b-e402-497f-b654-e9212ab251cf #
vertex $-1 -1 $-1 $294 $367 #
straight-curve $-1 -1 $-1 22.49999999999999645 4.999999999999982236 22.50000000000011369 -2.839294206145516424e-15 1.146249310199860597e-14 -10 F 0 F 4.5 #
DXID-attrib $-1 -1 $-1 $-1 $255 @10 ASM ENTITY @36 b831ae3b-802b-4b35-a44b-2312a782605a #
face $368 -1 $-1 $369 $282 $11 $-1 $370 forward single #
loop $-1 -1 $-1 $371 $372 $255 #
cone-surface $-1 -1 $-1 -19.99999999999997868 1.484564456341439781e-14 35.00000000000001421 7.678336174697258825e-32 1 -4.241612732404111306e-16 2.5 -4.220450901720175795e-31 -5.424509504293544051e-16 1 I I 0 -1 2.5 forward I I I I #
coedge $-1 -1 $-1 $320 $320 $373 $374 forward $256 $-1 #
coedge $-1 -1 $-1 $321 $321 $259 $322 reversed $327 $-1 #
edge $375 -1 $-1 $376 -3.141592653589793116 $376 3.141592653589793116 $259 $377 forward @7 unknown #
vertex $-1 -1 $-1 $261 $378 #
ellipse-curve $-1 -1 $-1 -20.00000000000000711 2.299999999999985167 -34.99999999999998579 -7.678336174697258825e-32 -1 4.241612732404111306e-16 2.5 -4.220450901720175795e-31 -5.424509504293544051e-16 1 I I #
loop $-1 -1 $-1 $166 $379 $212 #
point $-1 -1 $-1 17.49999999999999645 -1.484564456341439149e-14 -35 #
loop $-1 -1 $-1 $262 $321 $212 #
coedge $-1 -1 $-1 $380 $381 $286 $342 reversed $268 $-1 #
point $-1 -1 $-1 -24.70000000000000639 4.999999999999984901 -34.99999999999998579 #
coedge $-1 -1 $-1 $382 $272 $275 $336 reversed $332 $-1 #
coedge $-1 -1 $-1 $272 $382 $280 $340 forward $332 $-1 #
loop $-1 -1 $-1 $-1 $382 $369 #
DXID-attrib $-1 -1 $-1 $-1 $273 @10 ASM ENTITY @36 581c8b58-af26-40f2-a5d2-cba4e7e5eeee #
straight-curve $-1 -1 $-1 -30.00000000000000711 4.999999999999981348 -45 2.16980380171741762e-15 4.241612732404111405e-15 10 I I #
coedge $-1 -1 $-1 $275 $274 $381 $383 forward $276 $-1 #
edge $384 -1 $-1 $385 0 $278 0.5 $275 $386 forward @7 unknown #
face $387 -1 $-1 $289 $276 $11 $-1 $388 forward single #
point $-1 -1 $-1 -30.00000000000000711 4.999999999999981348 -45 #
coedge $-1 -1 $-1 $281 $280 $380 $389 forward $282 $-1 #
edge $390 -1 $-1 $391 0 $284 0.5 $331 $392 forward @7 unknown #
point $-1 -1 $-1 -29.99999999999999289 5.000000000000018652 45 #
edge $393 -1 $-1 $344 0 $347 9 $286 $394 forward @7 unknown #
DXID-attrib $-1 -1 $-1 $-1 $287 @10 ASM ENTITY @36 682403d0-57cb-4bef-a6df-64ef436c29f0 #
vertex $-1 -1 $-1 $389 $395 #
straight-curve $-1 -1 $-1 30.00000000000000711 1.908725729581849659e-14 44.99999999999999289 7.678336174697258825e-31 10 -4.241612732404111405e-15 I I #
DXID-attrib $-1 -1 $-1 $-1 $288 @10 ASM ENTITY @36 9c39df95-ecbf-4f0d-beba-71a58e2631ea #
vertex $-1 -1 $-1 $383 $396 #
straight-curve $-1 -1 $-1 29.99999999999999289 -1.908725729581850605e-14 -45.00000000000000711 7.678336174697258825e-31 10 -4.241612732404111405e-15 I I #
DXID-attrib $-1 -1 $-1 $-1 $289 @10 ASM ENTITY @36 2008f734-c51f-4801-8003-7c986da239fe #
plane-surface $-1 -1 $-1 30.00000000000000711 1.908725729581849659e-14 44.99999999999999289 1 -1.688180360688070274e-31 -2.169803801717417571e-16 -2.16980380171741762e-15 -4.241612732404111405e-15 -10 forward_v I I I I #
coedge $-1 -1 $-1 $293 $292 $366 $397 reversed $182 $-1 #
edge $398 -1 $-1 $314 0 $399 6 $312 $400 forward @7 unknown #
DXID-attrib $-1 -1 $-1 $-1 $294 @10 ASM ENTITY @36 153f5ade-de87-4e2e-86e8-95d814a92e64 #
straight-curve $-1 -1 $-1 22.49999999999998934 5.000000000000034639 -22.49999999999988631 -10 -3.747002708109893858e-15 2.839294206145512086e-15 F 0 F 4.5 #
coedge $-1 -1 $-1 $300 $366 $295 $356 forward $249 $-1 #
edge $401 -1 $-1 $358 0 $307 4.5 $295 $402 forward @7 unknown #
DXID-attrib $-1 -1 $-1 $-1 $296 @10 ASM ENTITY @36 99866872-8be3-402e-ac29-a0b009048547 #
vertex $-1 -1 $-1 $356 $403 #
straight-curve $-1 -1 $-1 -22.50000000000001066 5.000000000000017764 -22.49999999999987921 -3.747002708109890702e-15 10 1.146249310199860913e-14 I I #
point $-1 -1 $-1 -22.50000000000001066 5.000000000000017764 -22.49999999999987921 #
DXID-attrib $-1 -1 $-1 $-1 $301 @10 ASM ENTITY @36 66f3b731-59c6-4d27-93c1-3a14d4934beb #
straight-curve $-1 -1 $-1 -22.50000000000002487 64.99999999999997158 22.50000000000019185 10 3.747002708109893858e-15 -2.839294206145512086e-15 I I #
edge $404 -1 $-1 $304 0 $399 4.5 $302 $405 forward @7 unknown #
point $-1 -1 $-1 22.49999999999997513 64.99999999999998579 22.50000000000018119 #
point $-1 -1 $-1 -22.50000000000002487 64.99999999999997158 22.50000000000019185 #
coedge $-1 -1 $-1 $355 $311 $351 $397 forward $249 $-1 #
point $-1 -1 $-1 22.49999999999998934 5.000000000000034639 -22.49999999999988631 #
DXID-attrib $-1 -1 $-1 $-1 $317 @10 ASM ENTITY @36 91a62b27-69a8-4623-8dfa-91c6922798b2 #
face $406 -1 $-1 $337 $332 $11 $-1 $407 forward single #
plane-surface $-1 -1 $-1 -29.99999999999999289 1.908725729581850605e-14 45.00000000000000711 2.169803801717417571e-16 4.241612732404111306e-16 1 10 -1.688180360688070318e-30 -2.16980380171741762e-15 forward_v I I I I #
loop $-1 -1 $-1 $-1 $373 $255 #
coedge $-1 -1 $-1 $372 $372 $379 $408 forward $318 $-1 #
coedge $-1 -1 $-1 $373 $373 $320 $374 reversed $371 $-1 #
edge $-1 -1 $-1 $409 -3.141592653589793116 $409 3.141592653589793116 $373 $410 forward @7 unknown #
DXID-attrib $-1 -1 $-1 $-1 $322 @10 ASM ENTITY @36 401b41d5-b594-4da2-979d-84814f6b0cd2 #
vertex $-1 -1 $-1 $322 $411 #
ellipse-curve $-1 -1 $-1 -20.00000000000000711 -1.484564456341438203e-14 -34.99999999999998579 -7.678336174697258825e-32 -1 4.241612732404111306e-16 2.5 -4.220450901720175795e-31 -5.424509504293544051e-16 1 I I #
point $-1 -1 $-1 -22.50000000000000711 2.299999999999985167 -34.99999999999998579 #
coedge $-1 -1 $-1 $379 $379 $372 $408 reversed $325 $-1 #
coedge $-1 -1 $-1 $412 $328 $339 $389 reversed $268 $-1 #
coedge $-1 -1 $-1 $328 $412 $335 $383 reversed $268 $-1 #
coedge $-1 -1 $-1 $331 $330 $412 $413 forward $332 $-1 #
edge $414 -1 $-1 $347 0 $385 6 $335 $415 forward @7 unknown #
DXID-attrib $-1 -1 $-1 $-1 $336 @10 ASM ENTITY @36 36297f15-84b7-4f98-826f-84d672db45dd #
vertex $-1 -1 $-1 $413 $416 #
straight-curve $-1 -1 $-1 -30.00000000000000711 -1.908725729581849659e-14 -44.99999999999999289 7.678336174697258825e-31 10 -4.241612732404111405e-15 I I #
DXID-attrib $-1 -1 $-1 $-1 $337 @10 ASM ENTITY @36 2e1645d3-bf65-4336-bcac-03b156fd9d95 #
plane-surface $-1 -1 $-1 29.99999999999999289 -1.908725729581850605e-14 -45.00000000000000711 -2.169803801717417571e-16 -4.241612732404111306e-16 -1 -10 1.688180360688070318e-30 2.16980380171741762e-15 forward_v I I I I #
edge $417 -1 $-1 $391 0 $344 6 $339 $418 forward @7 unknown #
DXID-attrib $-1 -1 $-1 $-1 $340 @10 ASM ENTITY @36 ba68f070-2815-4a94-85cb-23e3cc08f13c #
vertex $-1 -1 $-1 $389 $419 #
straight-curve $-1 -1 $-1 -29.99999999999999289 1.908725729581850605e-14 45.00000000000000711 7.678336174697258825e-31 10 -4.241612732404111405e-15 I I #
DXID-attrib $-1 -1 $-1 $-1 $342 @10 ASM ENTITY @36 2556ef9d-17e2-4274-af6b-73fa26c731c7 #
straight-curve $-1 -1 $-1 30.00000000000000711 1.908725729581849659e-14 44.99999999999999289 -2.16980380171741762e-15 -4.241612732404111405e-15 -10 F 0 F 9 #
point $-1 -1 $-1 30.00000000000000711 1.908725729581849659e-14 44.99999999999999289 #
point $-1 -1 $-1 29.99999999999999289 -1.908725729581850605e-14 -45.00000000000000711 #
edge $420 -1 $-1 $399 0 $358 4.5 $351 $421 forward @7 unknown #
DXID-attrib $-1 -1 $-1 $-1 $352 @10 ASM ENTITY @36 e80c8950-7348-489f-badf-bf9063e97033 #
vertex $-1 -1 $-1 $397 $422 #
straight-curve $-1 -1 $-1 22.49999999999998934 5.000000000000034639 -22.49999999999988631 -3.747002708109890702e-15 10 1.146249310199860913e-14 I I #
DXID-attrib $-1 -1 $-1 $-1 $356 @10 ASM ENTITY @36 bc7186e6-3228-4bb4-84c0-13e8294143c1 #
straight-curve $-1 -1 $-1 -22.50000000000003553 65.00000000000001421 -22.49999999999980815 2.839294206145516424e-15 -1.146249310199860597e-14 10 I I #
point $-1 -1 $-1 -22.50000000000003553 65.00000000000001421 -22.49999999999980815 #
DXID-attrib $-1 -1 $-1 $-1 $363 @10 ASM ENTITY @36 2c35ccb8-bbd8-44f0-9235-598f6d763dd8 #
straight-curve $-1 -1 $-1 22.49999999999997513 64.99999999999998579 22.50000000000018119 -2.839294206145516424e-15 1.146249310199860597e-14 -10 I I #
DXID-attrib $-1 -1 $-1 $-1 $369 @10 ASM ENTITY @36 ad605641-ae29-4e50-8fd3-2e171e8af625 #
plane-surface $-1 -1 $-1 -30.00000000000000711 -1.908725729581849659e-14 -44.99999999999999289 -1 1.688180360688070274e-31 2.169803801717417571e-16 2.16980380171741762e-15 4.241612732404111405e-15 10 forward_v I I I I #
edge $423 -1 $-1 $424 -3.141592653589793116 $424 3.141592653589793116 $372 $425 forward @7 unknown #
vertex $-1 -1 $-1 $374 $426 #
ellipse-curve $-1 -1 $-1 -19.99999999999997868 2.300000000000014477 35.00000000000001421 -7.678336174697258825e-32 -1 4.241612732404111306e-16 2.5 -4.220450901720175795e-31 -5.424509504293544051e-16 1 I I #
point $-1 -1 $-1 -22.50000000000000711 -1.484564456341438203e-14 -34.99999999999998579 #
coedge $-1 -1 $-1 $381 $380 $382 $413 reversed $268 $-1 #
edge $427 -1 $-1 $385 0 $391 9 $382 $428 forward @7 unknown #
DXID-attrib $-1 -1 $-1 $-1 $383 @10 ASM ENTITY @36 e12049c5-9005-4339-8e06-38340de9e5ed #
straight-curve $-1 -1 $-1 29.99999999999999289 -1.908725729581850605e-14 -45.00000000000000711 -10 1.688180360688070318e-30 2.16980380171741762e-15 F 0 F 6 #
point $-1 -1 $-1 -30.00000000000000711 -1.908725729581849659e-14 -44.99999999999999289 #
DXID-attrib $-1 -1 $-1 $-1 $389 @10 ASM ENTITY @36 103b0309-f440-4c60-bd56-e12efdf7a13a #
straight-curve $-1 -1 $-1 -29.99999999999999289 1.908725729581850605e-14 45.00000000000000711 10 -1.688180360688070318e-30 -2.16980380171741762e-15 F 0 F 6 #
point $-1 -1 $-1 -29.99999999999999289 1.908725729581850605e-14 45.00000000000000711 #
DXID-attrib $-1 -1 $-1 $-1 $397 @10 ASM ENTITY @36 5a3ac14e-7fad-435c-9b65-4971ab0686bf #
straight-curve $-1 -1 $-1 22.49999999999996447 65.00000000000002842 -22.49999999999981881 -10 -3.747002708109893858e-15 2.839294206145512086e-15 I I #
point $-1 -1 $-1 22.49999999999996447 65.00000000000002842 -22.49999999999981881 #
DXID-attrib $-1 -1 $-1 $-1 $408 @10 ASM ENTITY @36 0fe80d3a-1036-40b5-b4ad-8150265e30b2 #
vertex $-1 -1 $-1 $408 $429 #
ellipse-curve $-1 -1 $-1 -19.99999999999997868 1.484564456341439781e-14 35.00000000000001421 -7.678336174697258825e-32 -1 4.241612732404111306e-16 2.5 -4.220450901720175795e-31 -5.424509504293544051e-16 1 I I #
point $-1 -1 $-1 -22.49999999999997868 2.300000000000014477 35.00000000000001421 #
DXID-attrib $-1 -1 $-1 $-1 $413 @10 ASM ENTITY @36 3665c940-5a46-47ff-92cd-7320a13cb435 #
straight-curve $-1 -1 $-1 -30.00000000000000711 -1.908725729581849659e-14 -44.99999999999999289 2.16980380171741762e-15 4.241612732404111405e-15 10 F 0 F 9 #
point $-1 -1 $-1 -22.49999999999997868 1.484564456341439781e-14 35.00000000000001421 #
End-of-ACIS-data 