700 0 2 0           
30 Autodesk Translation Framework 20 ASM 228.3.1.65535 NT 24 Thu Apr 27 18:52:22 2023 
1 9.999999999999999547e-07 1.000000000000000036e-10 
body $2 -1 $-1 $3 $-1 $4 #
body $5 -1 $-1 $6 $-1 $7 #
rgb_color-st-attrib $-1 -1 $8 $-1 $0 0.7450980392156862919 0.737254901960784359 0.7294117647058823151 #
lump $-1 -1 $-1 $-1 $9 $0 #
transform $-1 -1 1 0 0 0 1 0 0 0 1 0 0 0 1 no_rotate no_reflect no_shear #
rgb_color-st-attrib $-1 -1 $10 $-1 $1 0.7450980392156862919 0.737254901960784359 0.7294117647058823151 #
lump $-1 -1 $-1 $-1 $11 $1 #
transform $-1 -1 1 0 0 0 1 0 0 0 1 0 0 0 1 no_rotate no_reflect no_shear #
DXID-attrib $-1 -1 $-1 $2 $0 @10 ASM ENTITY @104 STEEL_PLATE_L1.IPT|:|34731630547C04AE8473BD8BBABC7AC003727525|:|DA4B9237BACCCDF19C0760CAB7AEC4A8359010B0 #
shell $-1 -1 $-1 $-1 $-1 $12 $-1 $3 #
DXID-attrib $-1 -1 $-1 $5 $1 @10 ASM ENTITY @107 SQUARE_PROFILE_H1.IPT|:|0795B9D8FD5446AB9EF64EE0354186194CDEF64C|:|DA4B9237BACCCDF19C0760CAB7AEC4A8359010B0 #
shell $-1 -1 $-1 $-1 $-1 $13 $-1 $6 #
face $14 -1 $-1 $15 $16 $9 $-1 $17 forward single #
face $18 -1 $-1 $19 $20 $11 $-1 $21 forward single #
DXID-attrib $-1 -1 $-1 $-1 $12 @10 ASM ENTITY @36 9a7f7e0d-1a2b-4305-ab2b-77ff4746bfe0 #
face $22 -1 $-1 $23 $24 $9 $-1 $25 forward single #
loop $-1 -1 $-1 $-1 $26 $12 #
plane-surface $-1 -1 $-1 -29.99999999999965183 -45.00000000000022737 3.954962853264700222e-15 7.660538869913576973e-15 -1 -1.387824707884177704e-16 10 7.660538869913577605e-14 -3.400058012914500095e-15 forward_v I I I I #
DXID-attrib $-1 -1 $-1 $-1 $13 @10 ASM ENTITY @36 76aceff7-1e3e-431d-a945-33e3473f310b #
face $27 -1 $-1 $28 $29 $11 $-1 $30 forward single #
loop $-1 -1 $-1 $-1 $31 $13 #
plane-surface $-1 -1 $-1 19.50000000000005684 -19.49999999999978684 4.999999999999971578 -5.717648576819567227e-15 1 1.066674101195275153e-16 -10 -5.717648576819567543e-14 3.781697177629390556e-15 forward_v I I I I #
DXID-attrib $-1 -1 $-1 $-1 $15 @10 ASM ENTITY @36 ef2e3bf1-8701-482e-86a7-7abd9b7cc7c8 #
face $32 -1 $-1 $33 $34 $9 $-1 $35 forward single #
loop $-1 -1 $-1 $-1 $36 $15 #
plane-surface $-1 -1 $-1 -30.00000000000034817 44.99999999999977263 1.644538522422229877e-14 -1 -7.660538869913576973e-15 3.400058012914499997e-16 7.660538869913577605e-14 -10 -1.387824707884177704e-15 forward_v I I I I #
coedge $-1 -1 $-1 $37 $38 $39 $40 forward $16 $-1 #
DXID-attrib $-1 -1 $-1 $-1 $19 @10 ASM ENTITY @36 a5083c10-d54f-4718-9400-5bc81c17dfad #
face $41 -1 $-1 $42 $43 $11 $-1 $44 forward single #
loop $-1 -1 $-1 $-1 $45 $19 #
plane-surface $-1 -1 $-1 19.49999999999983302 19.50000000000021672 4.999999999999976019 -1 -5.717648576819567227e-15 3.781697177629390655e-16 5.717648576819567543e-14 -10 -1.066674101195275227e-15 forward_v I I I I #
coedge $-1 -1 $-1 $46 $47 $48 $49 forward $20 $-1 #
DXID-attrib $-1 -1 $-1 $-1 $23 @10 ASM ENTITY @36 67b1127b-946b-4c2a-af20-f28b2876b5dd #
face $50 -1 $-1 $51 $52 $9 $-1 $53 forward single #
loop $-1 -1 $-1 $-1 $54 $23 #
plane-surface $-1 -1 $-1 29.99999999999965183 45.00000000000022737 -3.954962853264700222e-15 -7.660538869913576973e-15 1 1.387824707884177704e-16 -10 -7.660538869913577605e-14 3.400058012914500095e-15 forward_v I I I I #
coedge $-1 -1 $-1 $55 $56 $57 $58 forward $24 $-1 #
coedge $-1 -1 $-1 $59 $26 $60 $61 forward $16 $-1 #
coedge $-1 -1 $-1 $26 $59 $55 $62 reversed $16 $-1 #
coedge $-1 -1 $-1 $57 $63 $26 $40 reversed $64 $-1 #
edge $65 -1 $-1 $66 0 $67 6 $26 $68 forward @7 unknown #
DXID-attrib $-1 -1 $-1 $-1 $28 @10 ASM ENTITY @36 36a95ade-713b-43ee-a67b-8e281df4e062 #
face $69 -1 $-1 $70 $71 $11 $-1 $72 forward single #
loop $-1 -1 $-1 $-1 $73 $28 #
plane-surface $-1 -1 $-1 -19.50000000000017053 19.49999999999999289 4.999999999999991118 5.717648576819567227e-15 -1 -1.066674101195275153e-16 10 5.717648576819567543e-14 -3.781697177629390556e-15 forward_v I I I I #
coedge $-1 -1 $-1 $74 $75 $76 $77 forward $29 $-1 #
coedge $-1 -1 $-1 $78 $31 $79 $80 forward $20 $-1 #
coedge $-1 -1 $-1 $31 $78 $74 $81 reversed $20 $-1 #
coedge $-1 -1 $-1 $76 $82 $31 $49 reversed $83 $-1 #
edge $84 -1 $-1 $85 -0 $86 3.900000000000000355 $31 $87 forward @7 unknown #
DXID-attrib $-1 -1 $-1 $-1 $33 @10 ASM ENTITY @36 73506ad4-59f2-43e0-ae69-5e96ca8a696a #
face $88 -1 $-1 $89 $90 $9 $-1 $91 forward single #
loop $-1 -1 $-1 $-1 $92 $33 #
plane-surface $-1 -1 $-1 30.00000000000034817 -44.99999999999977263 -1.644538522422229877e-14 1 7.660538869913576973e-15 -3.400058012914499997e-16 -7.660538869913577605e-14 10 1.387824707884177704e-15 forward_v I I I I #
coedge $-1 -1 $-1 $93 $94 $95 $96 forward $34 $-1 #
coedge $-1 -1 $-1 $97 $36 $38 $62 forward $24 $-1 #
coedge $-1 -1 $-1 $36 $97 $93 $98 reversed $24 $-1 #
coedge $-1 -1 $-1 $95 $39 $36 $58 reversed $64 $-1 #
edge $99 -1 $-1 $100 0 $66 9 $36 $101 forward @7 unknown #
coedge $-1 -1 $-1 $38 $37 $102 $103 reversed $16 $-1 #
coedge $-1 -1 $-1 $92 $104 $37 $61 reversed $52 $-1 #
edge $105 -1 $-1 $67 0 $106 0.5 $60 $107 forward @7 unknown #
edge $108 -1 $-1 $66 0 $109 0.5 $55 $110 forward @7 unknown #
coedge $-1 -1 $-1 $39 $95 $92 $111 reversed $64 $-1 #
loop $-1 -1 $-1 $-1 $63 $89 #
DXID-attrib $-1 -1 $-1 $-1 $40 @10 ASM ENTITY @36 18cb61db-bfc6-46b2-86ab-ce8a42bfd1cd #
vertex $-1 -1 $-1 $40 $112 #
vertex $-1 -1 $-1 $40 $113 #
straight-curve $-1 -1 $-1 -29.99999999999965183 -45.00000000000022737 3.954962853264700222e-15 10 7.660538869913577605e-14 -3.400058012914500095e-15 F 0 F 6 #
DXID-attrib $-1 -1 $-1 $-1 $42 @10 ASM ENTITY @36 f0933d19-a4f9-4775-936d-aab3a306b53a #
face $114 -1 $-1 $115 $116 $11 $-1 $117 forward single #
loop $-1 -1 $-1 $-1 $118 $42 #
plane-surface $-1 -1 $-1 -19.49999999999994671 -19.50000000000001066 4.999999999999986677 1 5.717648576819567227e-15 -3.781697177629390655e-16 -5.717648576819567543e-14 10 1.066674101195275227e-15 forward_v I I I I #
coedge $-1 -1 $-1 $119 $120 $121 $122 forward $43 $-1 #
coedge $-1 -1 $-1 $123 $45 $47 $81 forward $29 $-1 #
coedge $-1 -1 $-1 $45 $123 $119 $124 reversed $29 $-1 #
coedge $-1 -1 $-1 $121 $48 $45 $77 reversed $83 $-1 #
edge $125 -1 $-1 $126 0 $85 3.900000000000000355 $45 $127 forward @7 unknown #
coedge $-1 -1 $-1 $47 $46 $128 $129 reversed $20 $-1 #
coedge $-1 -1 $-1 $118 $130 $46 $80 reversed $71 $-1 #
edge $131 -1 $-1 $86 0 $132 6 $79 $133 forward @7 unknown #
edge $134 -1 $-1 $85 0 $135 6 $74 $136 forward @7 unknown #
coedge $-1 -1 $-1 $48 $121 $118 $137 reversed $83 $-1 #
loop $-1 -1 $-1 $-1 $82 $138 #
DXID-attrib $-1 -1 $-1 $-1 $49 @10 ASM ENTITY @36 310a4989-11ba-4fdd-9b80-81b6fc453eab #
vertex $-1 -1 $-1 $49 $139 #
vertex $-1 -1 $-1 $49 $140 #
straight-curve $-1 -1 $-1 19.50000000000005684 -19.49999999999978684 4.999999999999971578 -10 -5.717648576819567543e-14 3.781697177629390556e-15 F -0 F 3.900000000000000355 #
DXID-attrib $-1 -1 $-1 $-1 $51 @10 ASM ENTITY @36 2f7659a9-3147-42bd-b749-68c344cee5b0 #
face $141 -1 $-1 $-1 $64 $9 $-1 $142 reversed single #
loop $-1 -1 $-1 $-1 $143 $51 #
plane-surface $-1 -1 $-1 1.700029006457255373e-15 -6.93912353942075836e-16 5 3.400058012914510844e-16 -1.387824707884151573e-16 1 7.660538869913577605e-14 -10 -1.387824707884177704e-15 forward_v I I I I #
coedge $-1 -1 $-1 $144 $60 $63 $111 forward $52 $-1 #
coedge $-1 -1 $-1 $145 $54 $56 $98 forward $34 $-1 #
coedge $-1 -1 $-1 $54 $145 $144 $146 reversed $34 $-1 #
coedge $-1 -1 $-1 $63 $57 $54 $96 reversed $64 $-1 #
edge $147 -1 $-1 $148 0 $100 6 $54 $149 forward @7 unknown #
coedge $-1 -1 $-1 $56 $55 $150 $151 reversed $24 $-1 #
edge $152 -1 $-1 $100 0 $153 0.5 $93 $154 forward @7 unknown #
DXID-attrib $-1 -1 $-1 $-1 $58 @10 ASM ENTITY @36 31699482-86dd-40f9-a1ca-0f31c93d9891 #
vertex $-1 -1 $-1 $58 $155 #
straight-curve $-1 -1 $-1 -30.00000000000034817 44.99999999999977263 1.644538522422229877e-14 7.660538869913577605e-14 -10 -1.387824707884177704e-15 F 0 F 9 #
coedge $-1 -1 $-1 $143 $150 $59 $103 forward $90 $-1 #
edge $156 -1 $-1 $109 0 $106 6 $59 $157 forward @7 unknown #
coedge $-1 -1 $-1 $60 $144 $143 $158 reversed $52 $-1 #
DXID-attrib $-1 -1 $-1 $-1 $61 @10 ASM ENTITY @36 599fbc0b-8d33-4549-81fe-1c9ba5767577 #
vertex $-1 -1 $-1 $61 $159 #
straight-curve $-1 -1 $-1 30.00000000000034817 -44.99999999999977263 -1.644538522422229877e-14 3.400058012914510745e-15 -1.387824707884151672e-15 10 I I #
DXID-attrib $-1 -1 $-1 $-1 $62 @10 ASM ENTITY @36 764ece5a-a02f-4e14-b58b-6a008d1e3c4f #
vertex $-1 -1 $-1 $103 $160 #
straight-curve $-1 -1 $-1 -29.99999999999965183 -45.00000000000022737 3.954962853264700222e-15 3.400058012914510745e-15 -1.387824707884151672e-15 10 I I #
edge $161 -1 $-1 $67 0 $148 9 $92 $162 forward @7 unknown #
point $-1 -1 $-1 -29.99999999999965183 -45.00000000000022737 3.954962853264700222e-15 #
point $-1 -1 $-1 30.00000000000034817 -44.99999999999977263 -1.644538522422229877e-14 #
DXID-attrib $-1 -1 $-1 $-1 $70 @10 ASM ENTITY @36 f6ac0bc4-c657-4c76-b5f5-1babe8d1c6b1 #
face $163 -1 $-1 $164 $165 $11 $-1 $166 forward single #
loop $-1 -1 $-1 $-1 $167 $70 #
plane-surface $-1 -1 $-1 -22.49999999999992895 -22.50000000000002487 4.999999999999987566 5.717648576819567227e-15 -1 -1.066674101195275153e-16 10 5.717648576819567543e-14 -3.781697177629390556e-15 forward_v I I I I #
coedge $-1 -1 $-1 $168 $79 $82 $137 forward $71 $-1 #
coedge $-1 -1 $-1 $169 $73 $75 $124 forward $43 $-1 #
coedge $-1 -1 $-1 $73 $169 $168 $170 reversed $43 $-1 #
coedge $-1 -1 $-1 $82 $76 $73 $122 reversed $83 $-1 #
edge $171 -1 $-1 $172 0 $126 3.900000000000000355 $73 $173 forward @7 unknown #
coedge $-1 -1 $-1 $75 $74 $174 $175 reversed $29 $-1 #
edge $176 -1 $-1 $126 0 $177 6 $119 $178 forward @7 unknown #
DXID-attrib $-1 -1 $-1 $-1 $77 @10 ASM ENTITY @36 8763ca21-3afa-422a-803a-f981ff340093 #
vertex $-1 -1 $-1 $77 $179 #
straight-curve $-1 -1 $-1 19.49999999999983302 19.50000000000021672 4.999999999999976019 5.717648576819567543e-14 -10 -1.066674101195275227e-15 F 0 F 3.900000000000000355 #
coedge $-1 -1 $-1 $180 $174 $78 $129 forward $181 $-1 #
edge $182 -1 $-1 $135 -0 $132 3.900000000000000355 $78 $183 forward @7 unknown #
coedge $-1 -1 $-1 $79 $168 $180 $184 reversed $71 $-1 #
DXID-attrib $-1 -1 $-1 $-1 $80 @10 ASM ENTITY @36 4690d781-6f8c-4026-8be9-93176e22a6d0 #
vertex $-1 -1 $-1 $80 $185 #
straight-curve $-1 -1 $-1 -19.49999999999994671 -19.50000000000001066 4.999999999999986677 3.781697177629396867e-15 -1.066674101195253533e-15 10 I I #
DXID-attrib $-1 -1 $-1 $-1 $81 @10 ASM ENTITY @36 684609c4-9d12-46be-8f77-47829bfe5669 #
vertex $-1 -1 $-1 $129 $186 #
straight-curve $-1 -1 $-1 19.50000000000005684 -19.49999999999978684 4.999999999999971578 3.781697177629396867e-15 -1.066674101195253533e-15 10 I I #
edge $187 -1 $-1 $86 -0 $172 3.900000000000000355 $118 $188 forward @7 unknown #
face $189 -1 $-1 $-1 $190 $11 $-1 $191 reversed single #
point $-1 -1 $-1 19.50000000000005684 -19.49999999999978684 4.999999999999971578 #
point $-1 -1 $-1 -19.49999999999994671 -19.50000000000001066 4.999999999999986677 #
DXID-attrib $-1 -1 $-1 $-1 $89 @10 ASM ENTITY @36 cce2d2fe-0ce5-4e24-9910-54f7cc918ed2 #
plane-surface $-1 -1 $-1 -8.474240394686520743e-76 -6.491724793648785448e-90 2.881290895731763268e-91 3.400058012914510844e-16 -1.387824707884151573e-16 1 7.660538869913577605e-14 -10 -1.387824707884177704e-15 forward_v I I I I #
coedge $-1 -1 $-1 $192 $102 $104 $158 forward $90 $-1 #
coedge $-1 -1 $-1 $104 $92 $94 $146 forward $52 $-1 #
coedge $-1 -1 $-1 $94 $93 $192 $193 reversed $34 $-1 #
edge $194 -1 $-1 $148 0 $195 0.5 $144 $196 forward @7 unknown #
DXID-attrib $-1 -1 $-1 $-1 $96 @10 ASM ENTITY @36 1ed82bea-0db4-4727-8d29-dfe3749c83d9 #
vertex $-1 -1 $-1 $96 $197 #
straight-curve $-1 -1 $-1 29.99999999999965183 45.00000000000022737 -3.954962853264700222e-15 -10 -7.660538869913577605e-14 3.400058012914500095e-15 F 0 F 6 #
coedge $-1 -1 $-1 $102 $192 $97 $151 forward $90 $-1 #
edge $198 -1 $-1 $153 0 $109 9 $97 $199 forward @7 unknown #
DXID-attrib $-1 -1 $-1 $-1 $98 @10 ASM ENTITY @36 4bf7da63-ce31-41ad-ba33-097ecae95d09 #
vertex $-1 -1 $-1 $151 $200 #
straight-curve $-1 -1 $-1 -30.00000000000034817 44.99999999999977263 1.644538522422229877e-14 3.400058012914510745e-15 -1.387824707884151672e-15 10 I I #
point $-1 -1 $-1 -30.00000000000034817 44.99999999999977263 1.644538522422229877e-14 #
DXID-attrib $-1 -1 $-1 $-1 $103 @10 ASM ENTITY @36 2f91f971-3279-448b-b56b-4066b7c75d72 #
straight-curve $-1 -1 $-1 -29.99999999999965183 -45.00000000000022737 5.000000000000003553 10 7.660538869913577605e-14 -3.400058012914500095e-15 I I #
edge $201 -1 $-1 $106 0 $195 9 $104 $202 forward @7 unknown #
point $-1 -1 $-1 30.00000000000034817 -44.99999999999977263 4.999999999999984013 #
point $-1 -1 $-1 -29.99999999999965183 -45.00000000000022737 5.000000000000003553 #
DXID-attrib $-1 -1 $-1 $-1 $111 @10 ASM ENTITY @36 0451c875-d61c-4a53-ae3c-4b94b80b3884 #
straight-curve $-1 -1 $-1 30.00000000000034817 -44.99999999999977263 -1.644538522422229877e-14 -7.660538869913577605e-14 10 1.387824707884177704e-15 F 0 F 9 #
DXID-attrib $-1 -1 $-1 $-1 $115 @10 ASM ENTITY @36 76d8b530-5cc0-43ed-a098-908eb92b79c9 #
face $203 -1 $-1 $204 $205 $11 $-1 $206 forward single #
loop $-1 -1 $-1 $-1 $207 $115 #
plane-surface $-1 -1 $-1 -22.50000000000018474 22.49999999999997513 4.999999999999992006 -1 -5.717648576819567227e-15 3.781697177629390655e-16 5.717648576819567543e-14 -10 -1.066674101195275227e-15 forward_v I I I I #
coedge $-1 -1 $-1 $208 $209 $210 $211 forward $116 $-1 #
coedge $-1 -1 $-1 $130 $118 $120 $170 forward $71 $-1 #
coedge $-1 -1 $-1 $120 $119 $212 $213 reversed $43 $-1 #
edge $214 -1 $-1 $172 0 $215 6 $168 $216 forward @7 unknown #
DXID-attrib $-1 -1 $-1 $-1 $122 @10 ASM ENTITY @36 28d2413f-bd2c-4375-9da0-a39585a8579f #
vertex $-1 -1 $-1 $122 $217 #
straight-curve $-1 -1 $-1 -19.50000000000017053 19.49999999999999289 4.999999999999991118 10 5.717648576819567543e-14 -3.781697177629390556e-15 F 0 F 3.900000000000000355 #
coedge $-1 -1 $-1 $128 $212 $123 $175 forward $181 $-1 #
edge $218 -1 $-1 $177 0 $135 3.900000000000000355 $123 $219 forward @7 unknown #
DXID-attrib $-1 -1 $-1 $-1 $124 @10 ASM ENTITY @36 fd4a2224-8d7f-4210-bd32-2a1f9a469266 #
vertex $-1 -1 $-1 $175 $220 #
straight-curve $-1 -1 $-1 19.49999999999983302 19.50000000000021672 4.999999999999976019 3.781697177629396867e-15 -1.066674101195253533e-15 10 I I #
point $-1 -1 $-1 19.49999999999983302 19.50000000000021672 4.999999999999976019 #
coedge $-1 -1 $-1 $212 $128 $130 $184 forward $181 $-1 #
loop $-1 -1 $-1 $-1 $180 $221 #
DXID-attrib $-1 -1 $-1 $-1 $129 @10 ASM ENTITY @36 2990176b-c54e-4cce-a6fa-d28e0277daef #
straight-curve $-1 -1 $-1 19.50000000000007816 -19.49999999999979394 64.99999999999997158 -10 -5.717648576819567543e-14 3.781697177629390556e-15 I I #
edge $222 -1 $-1 $132 -0 $215 3.900000000000000355 $130 $223 forward @7 unknown #
point $-1 -1 $-1 -19.49999999999992539 -19.50000000000001776 64.99999999999998579 #
point $-1 -1 $-1 19.50000000000007816 -19.49999999999979394 64.99999999999997158 #
DXID-attrib $-1 -1 $-1 $-1 $137 @10 ASM ENTITY @36 d8a8c1ba-3658-4273-b0ce-31ba939fb2b7 #
straight-curve $-1 -1 $-1 -19.49999999999994671 -19.50000000000001066 4.999999999999986677 -5.717648576819567543e-14 10 1.066674101195275227e-15 F -0 F 3.900000000000000355 #
DXID-attrib $-1 -1 $-1 $-1 $138 @10 ASM ENTITY @36 ea8290af-b690-4a51-b10f-0a38fef0cec7 #
loop $-1 -1 $-1 $83 $224 $138 #
plane-surface $-1 -1 $-1 -5.773159728050816535e-14 1.021405182655143891e-13 4.999999999999981348 3.781697177629396572e-16 -1.066674101195253582e-16 1 5.717648576819567543e-14 -10 -1.066674101195275227e-15 forward_v I I I I #
coedge $-1 -1 $-1 $150 $143 $145 $193 forward $90 $-1 #
edge $225 -1 $-1 $195 0 $153 6 $145 $226 forward @7 unknown #
DXID-attrib $-1 -1 $-1 $-1 $146 @10 ASM ENTITY @36 58a38921-36fa-486e-a87f-55653e649f37 #
vertex $-1 -1 $-1 $193 $227 #
straight-curve $-1 -1 $-1 29.99999999999965183 45.00000000000022737 -3.954962853264700222e-15 3.400058012914510745e-15 -1.387824707884151672e-15 10 I I #
point $-1 -1 $-1 29.99999999999965183 45.00000000000022737 -3.954962853264700222e-15 #
DXID-attrib $-1 -1 $-1 $-1 $151 @10 ASM ENTITY @36 07b5a898-0c06-48d4-911d-e062724c287a #
straight-curve $-1 -1 $-1 -30.00000000000034817 44.99999999999977263 5.000000000000016875 7.660538869913577605e-14 -10 -1.387824707884177704e-15 I I #
point $-1 -1 $-1 -30.00000000000034817 44.99999999999977263 5.000000000000016875 #
DXID-attrib $-1 -1 $-1 $-1 $158 @10 ASM ENTITY @36 575a66b7-a45a-400b-903c-896be57cdde5 #
straight-curve $-1 -1 $-1 30.00000000000034817 -44.99999999999977263 4.999999999999984013 -7.660538869913577605e-14 10 1.387824707884177704e-15 I I #
DXID-attrib $-1 -1 $-1 $-1 $164 @10 ASM ENTITY @36 88ba7872-5e61-46af-ada0-ccb34b7d6c9e #
face $228 -1 $-1 $221 $229 $11 $-1 $230 forward single #
loop $-1 -1 $-1 $-1 $231 $164 #
plane-surface $-1 -1 $-1 22.49999999999981526 22.50000000000023093 4.999999999999975131 -5.717648576819567227e-15 1 1.066674101195275153e-16 -10 -5.717648576819567543e-14 3.781697177629390556e-15 forward_v I I I I #
coedge $-1 -1 $-1 $232 $233 $234 $235 forward $165 $-1 #
coedge $-1 -1 $-1 $236 $167 $237 $238 forward $116 $-1 #
coedge $-1 -1 $-1 $167 $236 $232 $239 reversed $116 $-1 #
coedge $-1 -1 $-1 $234 $224 $167 $211 reversed $190 $-1 #
edge $240 -1 $-1 $241 0 $242 4.5 $167 $243 forward @7 unknown #
coedge $-1 -1 $-1 $174 $180 $169 $213 forward $181 $-1 #
edge $244 -1 $-1 $215 0 $177 3.900000000000000355 $169 $245 forward @7 unknown #
DXID-attrib $-1 -1 $-1 $-1 $170 @10 ASM ENTITY @36 5c3c9031-676e-4dbc-9bc2-8a2197a61da5 #
vertex $-1 -1 $-1 $213 $246 #
straight-curve $-1 -1 $-1 -19.50000000000017053 19.49999999999999289 4.999999999999991118 3.781697177629396867e-15 -1.066674101195253533e-15 10 I I #
point $-1 -1 $-1 -19.50000000000017053 19.49999999999999289 4.999999999999991118 #
DXID-attrib $-1 -1 $-1 $-1 $175 @10 ASM ENTITY @36 ceaf67cf-c1b5-4193-9484-b40b375c449c #
straight-curve $-1 -1 $-1 19.49999999999985789 19.50000000000020961 64.99999999999997158 5.717648576819567543e-14 -10 -1.066674101195275227e-15 I I #
point $-1 -1 $-1 19.49999999999985789 19.50000000000020961 64.99999999999997158 #
face $247 -1 $-1 $138 $248 $11 $-1 $249 forward single #
DXID-attrib $-1 -1 $-1 $-1 $184 @10 ASM ENTITY @36 e5f4b394-0191-40c9-8dbd-cd0d5a58763c #
straight-curve $-1 -1 $-1 -19.49999999999992539 -19.50000000000001776 64.99999999999998579 -5.717648576819567543e-14 10 1.066674101195275227e-15 I I #
coedge $-1 -1 $-1 $210 $250 $251 $252 reversed $190 $-1 #
DXID-attrib $-1 -1 $-1 $-1 $193 @10 ASM ENTITY @36 27d06f88-a8fb-4443-b625-7214bf247a47 #
straight-curve $-1 -1 $-1 29.99999999999965183 45.00000000000022737 4.999999999999996447 -10 -7.660538869913577605e-14 3.400058012914500095e-15 I I #
point $-1 -1 $-1 29.99999999999965183 45.00000000000022737 4.999999999999996447 #
DXID-attrib $-1 -1 $-1 $-1 $204 @10 ASM ENTITY @36 fcbfa757-32d9-4fd4-a9b4-d0ea35b2b9eb #
loop $-1 -1 $-1 $-1 $251 $204 #
plane-surface $-1 -1 $-1 22.50000000000007105 -22.49999999999976907 4.99999999999997069 1 5.717648576819567227e-15 -3.781697177629390655e-16 -5.717648576819567543e-14 10 1.066674101195275227e-15 forward_v I I I I #
coedge $-1 -1 $-1 $253 $254 $250 $255 forward $205 $-1 #
coedge $-1 -1 $-1 $256 $207 $209 $239 forward $165 $-1 #
coedge $-1 -1 $-1 $207 $256 $253 $257 reversed $165 $-1 #
coedge $-1 -1 $-1 $250 $210 $207 $235 reversed $190 $-1 #
edge $258 -1 $-1 $259 0 $241 4.5 $207 $260 forward @7 unknown #
coedge $-1 -1 $-1 $209 $208 $261 $262 reversed $116 $-1 #
coedge $-1 -1 $-1 $251 $263 $208 $238 reversed $229 $-1 #
edge $264 -1 $-1 $242 0 $265 6 $237 $266 forward @7 unknown #
edge $267 -1 $-1 $241 0 $268 6 $232 $269 forward @7 unknown #
DXID-attrib $-1 -1 $-1 $-1 $211 @10 ASM ENTITY @36 0464d65d-5c89-4d2c-a16a-4e048efefeb9 #
vertex $-1 -1 $-1 $211 $270 #
vertex $-1 -1 $-1 $211 $271 #
straight-curve $-1 -1 $-1 -22.49999999999992895 -22.50000000000002487 4.999999999999987566 10 5.717648576819567543e-14 -3.781697177629390556e-15 F 0 F 4.5 #
DXID-attrib $-1 -1 $-1 $-1 $213 @10 ASM ENTITY @36 f57ac07c-bdd9-40cb-94e3-513a958a84ba #
straight-curve $-1 -1 $-1 -19.50000000000014921 19.49999999999998579 64.99999999999998579 10 5.717648576819567543e-14 -3.781697177629390556e-15 I I #
point $-1 -1 $-1 -19.50000000000014921 19.49999999999998579 64.99999999999998579 #
DXID-attrib $-1 -1 $-1 $-1 $221 @10 ASM ENTITY @36 5e4fca54-3c0c-4c85-8b18-1d849675b5f4 #
loop $-1 -1 $-1 $181 $272 $221 #
plane-surface $-1 -1 $-1 -3.504141421473178099e-14 9.574047365834287224e-14 64.99999999999998579 3.781697177629396572e-16 -1.066674101195253582e-16 1 5.717648576819567543e-14 -10 -1.066674101195275227e-15 forward_v I I I I #
coedge $-1 -1 $-1 $224 $234 $231 $255 reversed $190 $-1 #
coedge $-1 -1 $-1 $273 $237 $224 $252 forward $229 $-1 #
edge $274 -1 $-1 $242 0 $275 4.5 $251 $276 forward @7 unknown #
coedge $-1 -1 $-1 $277 $231 $233 $257 forward $205 $-1 #
coedge $-1 -1 $-1 $231 $277 $273 $278 reversed $205 $-1 #
edge $279 -1 $-1 $275 0 $259 4.5 $231 $280 forward @7 unknown #
coedge $-1 -1 $-1 $233 $232 $281 $282 reversed $165 $-1 #
edge $283 -1 $-1 $259 0 $284 6 $253 $285 forward @7 unknown #
DXID-attrib $-1 -1 $-1 $-1 $235 @10 ASM ENTITY @36 db49fe87-f021-43ec-b698-f3fa569b12ba #
vertex $-1 -1 $-1 $235 $286 #
straight-curve $-1 -1 $-1 -22.50000000000018474 22.49999999999997513 4.999999999999992006 5.717648576819567543e-14 -10 -1.066674101195275227e-15 F 0 F 4.5 #
coedge $-1 -1 $-1 $272 $281 $236 $262 forward $248 $-1 #
edge $287 -1 $-1 $268 0 $265 4.5 $236 $288 forward @7 unknown #
coedge $-1 -1 $-1 $237 $273 $272 $289 reversed $229 $-1 #
DXID-attrib $-1 -1 $-1 $-1 $238 @10 ASM ENTITY @36 808b8c55-cc5d-4690-b5c4-fbcbdd3e87ae #
vertex $-1 -1 $-1 $238 $290 #
straight-curve $-1 -1 $-1 22.50000000000007105 -22.49999999999976907 4.99999999999997069 3.781697177629396867e-15 -1.066674101195253533e-15 10 I I #
DXID-attrib $-1 -1 $-1 $-1 $239 @10 ASM ENTITY @36 68e54872-0f1f-4bea-82c4-984b6774ae13 #
vertex $-1 -1 $-1 $262 $291 #
straight-curve $-1 -1 $-1 -22.49999999999992895 -22.50000000000002487 4.999999999999987566 3.781697177629396867e-15 -1.066674101195253533e-15 10 I I #
point $-1 -1 $-1 -22.49999999999992895 -22.50000000000002487 4.999999999999987566 #
point $-1 -1 $-1 22.50000000000007105 -22.49999999999976907 4.99999999999997069 #
coedge $-1 -1 $-1 $292 $261 $263 $289 forward $248 $-1 #
coedge $-1 -1 $-1 $263 $251 $254 $278 forward $229 $-1 #
DXID-attrib $-1 -1 $-1 $-1 $252 @10 ASM ENTITY @36 3bbebd1c-ef01-4e01-9899-002c9c1a9580 #
vertex $-1 -1 $-1 $255 $293 #
straight-curve $-1 -1 $-1 22.50000000000007105 -22.49999999999976907 4.99999999999997069 -5.717648576819567543e-14 10 1.066674101195275227e-15 F 0 F 4.5 #
coedge $-1 -1 $-1 $254 $253 $292 $294 reversed $205 $-1 #
edge $295 -1 $-1 $275 0 $296 6 $273 $297 forward @7 unknown #
DXID-attrib $-1 -1 $-1 $-1 $255 @10 ASM ENTITY @36 df22b882-821e-41a6-b1c2-1b5a48c54c6c #
straight-curve $-1 -1 $-1 22.49999999999981526 22.50000000000023093 4.999999999999975131 -10 -5.717648576819567543e-14 3.781697177629390556e-15 F 0 F 4.5 #
coedge $-1 -1 $-1 $261 $292 $256 $282 forward $248 $-1 #
edge $298 -1 $-1 $284 0 $268 4.5 $256 $299 forward @7 unknown #
DXID-attrib $-1 -1 $-1 $-1 $257 @10 ASM ENTITY @36 2068eee6-5484-457d-a73b-36a657933f0c #
vertex $-1 -1 $-1 $282 $300 #
straight-curve $-1 -1 $-1 -22.50000000000018474 22.49999999999997513 4.999999999999992006 3.781697177629396867e-15 -1.066674101195253533e-15 10 I I #
point $-1 -1 $-1 -22.50000000000018474 22.49999999999997513 4.999999999999992006 #
DXID-attrib $-1 -1 $-1 $-1 $262 @10 ASM ENTITY @36 e89439a0-7811-422e-a3e1-1afa1dca83a0 #
straight-curve $-1 -1 $-1 -22.49999999999990763 -22.50000000000003197 64.99999999999998579 10 5.717648576819567543e-14 -3.781697177629390556e-15 I I #
edge $301 -1 $-1 $265 0 $296 4.5 $263 $302 forward @7 unknown #
point $-1 -1 $-1 22.50000000000009237 -22.49999999999977263 64.99999999999997158 #
point $-1 -1 $-1 -22.49999999999990763 -22.50000000000003197 64.99999999999998579 #
coedge $-1 -1 $-1 $281 $272 $277 $294 forward $248 $-1 #
point $-1 -1 $-1 22.49999999999981526 22.50000000000023093 4.999999999999975131 #
edge $303 -1 $-1 $296 0 $284 4.5 $277 $304 forward @7 unknown #
DXID-attrib $-1 -1 $-1 $-1 $278 @10 ASM ENTITY @36 6d756ea6-8415-4c16-ad65-24034dec27e0 #
vertex $-1 -1 $-1 $294 $305 #
straight-curve $-1 -1 $-1 22.49999999999981526 22.50000000000023093 4.999999999999975131 3.781697177629396867e-15 -1.066674101195253533e-15 10 I I #
DXID-attrib $-1 -1 $-1 $-1 $282 @10 ASM ENTITY @36 66860435-5bfd-4b1f-a9c2-8442671668db #
straight-curve $-1 -1 $-1 -22.50000000000016342 22.49999999999996803 64.99999999999998579 5.717648576819567543e-14 -10 -1.066674101195275227e-15 I I #
point $-1 -1 $-1 -22.50000000000016342 22.49999999999996803 64.99999999999998579 #
DXID-attrib $-1 -1 $-1 $-1 $289 @10 ASM ENTITY @36 cc3df55c-5b3c-4bab-b3f1-150168fca870 #
straight-curve $-1 -1 $-1 22.50000000000009237 -22.49999999999977263 64.99999999999997158 -5.717648576819567543e-14 10 1.066674101195275227e-15 I I #
DXID-attrib $-1 -1 $-1 $-1 $294 @10 ASM ENTITY @36 a3929159-a79b-40cb-bf50-6c00b452f5ce #
straight-curve $-1 -1 $-1 22.49999999999983658 22.50000000000022737 64.99999999999997158 -10 -5.717648576819567543e-14 3.781697177629390556e-15 I I #
point $-1 -1 $-1 22.49999999999983658 22.50000000000022737 64.99999999999997158 #
End-of-ACIS-data 