700 0 2 0           
30 Autodesk Translation Framework 20 ASM 228.3.1.65535 NT 24 Sat Apr 29 16:49:06 2023 
1 9.999999999999999547e-07 1.000000000000000036e-10 
body $2 -1 $-1 $3 $-1 $4 #
body $5 -1 $-1 $6 $-1 $7 #
rgb_color-st-attrib $-1 -1 $8 $-1 $0 0.7450980392156862919 0.737254901960784359 0.7294117647058823151 #
lump $-1 -1 $-1 $-1 $9 $0 #
transform $-1 -1 1 0 0 0 1 0 0 0 1 0 0 0 1 no_rotate no_reflect no_shear #
rgb_color-st-attrib $-1 -1 $10 $-1 $1 0.7450980392156862919 0.737254901960784359 0.7294117647058823151 #
lump $-1 -1 $-1 $-1 $11 $1 #
transform $-1 -1 1 0 0 0 1 0 0 0 1 0 0 0 1 no_rotate no_reflect no_shear #
DXID-attrib $-1 -1 $-1 $2 $0 @10 ASM ENTITY @104 STEEL_PLATE_L2.IPT|:|34731630547C04AE8473BD8BBABC7AC003727525|:|DA4B9237BACCCDF19C0760CAB7AEC4A8359010B0 #
shell $-1 -1 $-1 $-1 $-1 $12 $-1 $3 #
DXID-attrib $-1 -1 $-1 $5 $1 @10 ASM ENTITY @107 SQUARE_PROFILE_H2.IPT|:|0795B9D8FD5446AB9EF64EE0354186194CDEF64C|:|DA4B9237BACCCDF19C0760CAB7AEC4A8359010B0 #
shell $-1 -1 $-1 $-1 $-1 $13 $-1 $6 #
face $14 -1 $-1 $15 $16 $9 $-1 $17 forward single #
face $18 -1 $-1 $19 $20 $11 $-1 $21 forward single #
DXID-attrib $-1 -1 $-1 $-1 $12 @10 ASM ENTITY @36 ba997da7-6d9e-4ac8-b8b0-f39082358a07 #
face $22 -1 $-1 $23 $24 $9 $-1 $25 forward single #
loop $-1 -1 $-1 $-1 $26 $12 #
plane-surface $-1 -1 $-1 -29.99999999999998579 -2.447589888712147673e-14 60 -1.387778780781767383e-17 6.391313734700034293e-17 1 10 9.436895709313836904e-15 1.38777878078176122e-16 forward_v I I I I #
DXID-attrib $-1 -1 $-1 $-1 $13 @10 ASM ENTITY @36 8203e1da-058d-4c86-997c-c0fd28430f79 #
face $27 -1 $-1 $28 $29 $11 $-1 $30 forward single #
loop $-1 -1 $-1 $-1 $31 $13 #
plane-surface $-1 -1 $-1 19.50000000000004974 5.000000000000007105 29.50000000000015632 -1.931457733731105446e-15 -6.391313734699991152e-17 -1 -10 -5.551115123125383341e-16 1.931457733731105525e-14 forward_v I I I I #
DXID-attrib $-1 -1 $-1 $-1 $15 @10 ASM ENTITY @36 bab63c95-1232-491a-8a81-d6c1befdd799 #
face $32 -1 $-1 $33 $34 $9 $-1 $35 forward single #
loop $-1 -1 $-1 $-1 $36 $15 #
plane-surface $-1 -1 $-1 -30.00000000000000711 -3.086721262182153547e-14 -40 -1 -9.43689570931383651e-16 2.081668171172136959e-16 2.081668171172136564e-15 6.391313734700055001e-16 10 forward_v I I I I #
coedge $-1 -1 $-1 $37 $38 $39 $40 forward $16 $-1 #
DXID-attrib $-1 -1 $-1 $-1 $19 @10 ASM ENTITY @36 1dfc6739-38b0-41d3-afc7-f02452bafc86 #
face $41 -1 $-1 $42 $43 $11 $-1 $44 forward single #
loop $-1 -1 $-1 $-1 $45 $19 #
plane-surface $-1 -1 $-1 19.49999999999997513 5.000000000000004441 -9.499999999999847233 -1 -5.551115123125383341e-17 1.931457733731105446e-15 1.931457733731105525e-14 6.391313734699990906e-16 10 forward_v I I I I #
coedge $-1 -1 $-1 $46 $47 $48 $49 forward $20 $-1 #
DXID-attrib $-1 -1 $-1 $-1 $23 @10 ASM ENTITY @36 7891ad40-1f9f-4c53-89bf-2f709e1c73f6 #
face $50 -1 $-1 $51 $52 $9 $-1 $53 forward single #
loop $-1 -1 $-1 $-1 $54 $23 #
plane-surface $-1 -1 $-1 29.99999999999999289 2.575416163406148595e-14 -40 1.387778780781767383e-17 -6.391313734700034293e-17 -1 -10 -9.436895709313836904e-15 -1.38777878078176122e-16 forward_v I I I I #
coedge $-1 -1 $-1 $55 $56 $57 $58 forward $24 $-1 #
coedge $-1 -1 $-1 $59 $26 $60 $61 forward $16 $-1 #
coedge $-1 -1 $-1 $26 $59 $55 $62 reversed $16 $-1 #
coedge $-1 -1 $-1 $57 $63 $26 $40 reversed $64 $-1 #
edge $65 -1 $-1 $66 0 $67 5.999999999999998224 $26 $68 forward @7 unknown #
DXID-attrib $-1 -1 $-1 $-1 $28 @10 ASM ENTITY @36 9c9819ec-0475-449c-b284-8584205373a3 #
face $69 -1 $-1 $70 $71 $11 $-1 $72 forward single #
loop $-1 -1 $-1 $-1 $73 $28 #
plane-surface $-1 -1 $-1 -19.50000000000002842 5.000000000000001776 -9.499999999999772626 1.931457733731105446e-15 6.391313734699991152e-17 1 10 5.551115123125383341e-16 -1.931457733731105525e-14 forward_v I I I I #
coedge $-1 -1 $-1 $74 $75 $76 $77 forward $29 $-1 #
coedge $-1 -1 $-1 $78 $31 $79 $80 forward $20 $-1 #
coedge $-1 -1 $-1 $31 $78 $74 $81 reversed $20 $-1 #
coedge $-1 -1 $-1 $76 $82 $31 $49 reversed $83 $-1 #
edge $84 -1 $-1 $85 -0 $86 3.900000000000000355 $31 $87 forward @7 unknown #
DXID-attrib $-1 -1 $-1 $-1 $33 @10 ASM ENTITY @36 3a81b5a4-00e4-4710-81ff-c8701a738889 #
face $88 -1 $-1 $89 $90 $9 $-1 $91 forward single #
loop $-1 -1 $-1 $-1 $92 $33 #
plane-surface $-1 -1 $-1 30 3.214547536876152577e-14 60 1 9.43689570931383651e-16 -7.494005416219491597e-17 -7.494005416219485187e-16 -6.391313734700043168e-16 -10 forward_v I I I I #
coedge $-1 -1 $-1 $93 $94 $95 $96 forward $34 $-1 #
coedge $-1 -1 $-1 $97 $36 $38 $62 forward $24 $-1 #
coedge $-1 -1 $-1 $36 $97 $93 $98 reversed $24 $-1 #
coedge $-1 -1 $-1 $95 $39 $36 $58 reversed $64 $-1 #
edge $99 -1 $-1 $100 0 $66 10 $36 $101 forward @7 unknown #
coedge $-1 -1 $-1 $38 $37 $102 $103 reversed $16 $-1 #
coedge $-1 -1 $-1 $92 $104 $37 $61 reversed $52 $-1 #
edge $105 -1 $-1 $67 0 $106 0.5 $60 $107 forward @7 unknown #
edge $108 -1 $-1 $66 0 $109 0.5 $55 $110 forward @7 unknown #
coedge $-1 -1 $-1 $39 $95 $92 $111 reversed $64 $-1 #
loop $-1 -1 $-1 $-1 $63 $89 #
DXID-attrib $-1 -1 $-1 $-1 $40 @10 ASM ENTITY @36 cf8ee901-80d0-49a2-acf7-0747b082fcc6 #
vertex $-1 -1 $-1 $40 $112 #
vertex $-1 -1 $-1 $40 $113 #
straight-curve $-1 -1 $-1 -29.99999999999998579 -2.447589888712147673e-14 60 10 9.436895709313836904e-15 1.38777878078176122e-16 F 0 F 5.999999999999998224 #
DXID-attrib $-1 -1 $-1 $-1 $42 @10 ASM ENTITY @36 77438685-d2b4-4d12-a8b7-cf091304fbed #
face $114 -1 $-1 $115 $116 $11 $-1 $117 forward single #
loop $-1 -1 $-1 $-1 $118 $42 #
plane-surface $-1 -1 $-1 -19.49999999999995381 5.000000000000004441 29.50000000000023093 1 5.551115123125383341e-17 -1.931457733731105446e-15 -1.931457733731105525e-14 -6.391313734699990906e-16 -10 forward_v I I I I #
coedge $-1 -1 $-1 $119 $120 $121 $122 forward $43 $-1 #
coedge $-1 -1 $-1 $123 $45 $47 $81 forward $29 $-1 #
coedge $-1 -1 $-1 $45 $123 $119 $124 reversed $29 $-1 #
coedge $-1 -1 $-1 $121 $48 $45 $77 reversed $83 $-1 #
edge $125 -1 $-1 $126 0 $85 3.900000000000000355 $45 $127 forward @7 unknown #
coedge $-1 -1 $-1 $47 $46 $128 $129 reversed $20 $-1 #
coedge $-1 -1 $-1 $118 $130 $46 $80 reversed $71 $-1 #
edge $131 -1 $-1 $86 0 $132 7 $79 $133 forward @7 unknown #
edge $134 -1 $-1 $85 0 $135 7 $74 $136 forward @7 unknown #
coedge $-1 -1 $-1 $48 $121 $118 $137 reversed $83 $-1 #
loop $-1 -1 $-1 $-1 $82 $138 #
DXID-attrib $-1 -1 $-1 $-1 $49 @10 ASM ENTITY @36 42f04d6e-db07-4874-9ac8-09a91f167a59 #
vertex $-1 -1 $-1 $49 $139 #
vertex $-1 -1 $-1 $49 $140 #
straight-curve $-1 -1 $-1 19.50000000000004974 5.000000000000007105 29.50000000000015632 -10 -5.551115123125383341e-16 1.931457733731105525e-14 F -0 F 3.900000000000000355 #
DXID-attrib $-1 -1 $-1 $-1 $51 @10 ASM ENTITY @36 788f3a3a-cb13-46df-ae23-32e23b3d39bd #
face $141 -1 $-1 $-1 $64 $9 $-1 $142 reversed single #
loop $-1 -1 $-1 $-1 $143 $51 #
plane-surface $-1 -1 $-1 -9.298117831235720736e-15 5.000000000000000888 10 -9.43689570931383651e-16 1 -6.391313734700035526e-17 -1.387778780781767383e-16 6.391313734700034293e-16 10 forward_v I I I I #
coedge $-1 -1 $-1 $144 $60 $63 $111 forward $52 $-1 #
coedge $-1 -1 $-1 $145 $54 $56 $98 forward $34 $-1 #
coedge $-1 -1 $-1 $54 $145 $144 $146 reversed $34 $-1 #
coedge $-1 -1 $-1 $63 $57 $54 $96 reversed $64 $-1 #
edge $147 -1 $-1 $148 0 $100 6 $54 $149 forward @7 unknown #
coedge $-1 -1 $-1 $56 $55 $150 $151 reversed $24 $-1 #
edge $152 -1 $-1 $100 0 $153 0.5 $93 $154 forward @7 unknown #
DXID-attrib $-1 -1 $-1 $-1 $58 @10 ASM ENTITY @36 be0e65ef-9692-4b90-a268-66fff0027c38 #
vertex $-1 -1 $-1 $58 $155 #
straight-curve $-1 -1 $-1 -30.00000000000000711 -3.086721262182153547e-14 -40 2.081668171172136564e-15 6.391313734700055001e-16 10 F 0 F 10 #
coedge $-1 -1 $-1 $143 $150 $59 $103 forward $90 $-1 #
edge $156 -1 $-1 $109 0 $106 5.999999999999998224 $59 $157 forward @7 unknown #
coedge $-1 -1 $-1 $60 $144 $143 $158 reversed $52 $-1 #
DXID-attrib $-1 -1 $-1 $-1 $61 @10 ASM ENTITY @36 21777774-6ce7-4fa7-8129-57b52fedcd47 #
vertex $-1 -1 $-1 $61 $159 #
straight-curve $-1 -1 $-1 30 3.214547536876152577e-14 60 -9.436895709313836904e-15 10 -6.391313734700035279e-16 I I #
DXID-attrib $-1 -1 $-1 $-1 $62 @10 ASM ENTITY @36 cce11228-c893-4f3e-8cae-1c35da998c1a #
vertex $-1 -1 $-1 $103 $160 #
straight-curve $-1 -1 $-1 -29.99999999999998579 -2.447589888712147673e-14 60 -9.436895709313836904e-15 10 -6.391313734700035279e-16 I I #
edge $161 -1 $-1 $67 0 $148 10 $92 $162 forward @7 unknown #
point $-1 -1 $-1 -29.99999999999998579 -2.447589888712147673e-14 60 #
point $-1 -1 $-1 30 3.214547536876152577e-14 60 #
DXID-attrib $-1 -1 $-1 $-1 $70 @10 ASM ENTITY @36 b35c8660-cd1d-4809-9342-d88506fd1b3d #
face $163 -1 $-1 $164 $165 $11 $-1 $166 forward single #
loop $-1 -1 $-1 $-1 $167 $70 #
plane-surface $-1 -1 $-1 -22.49999999999994671 5.000000000000004441 32.50000000000023448 1.931457733731105446e-15 6.391313734699991152e-17 1 10 5.551115123125383341e-16 -1.931457733731105525e-14 forward_v I I I I #
coedge $-1 -1 $-1 $168 $79 $82 $137 forward $71 $-1 #
coedge $-1 -1 $-1 $169 $73 $75 $124 forward $43 $-1 #
coedge $-1 -1 $-1 $73 $169 $168 $170 reversed $43 $-1 #
coedge $-1 -1 $-1 $82 $76 $73 $122 reversed $83 $-1 #
edge $171 -1 $-1 $172 0 $126 3.900000000000000355 $73 $173 forward @7 unknown #
coedge $-1 -1 $-1 $75 $74 $174 $175 reversed $29 $-1 #
edge $176 -1 $-1 $126 0 $177 7 $119 $178 forward @7 unknown #
DXID-attrib $-1 -1 $-1 $-1 $77 @10 ASM ENTITY @36 d28cf165-3e2a-4c4f-9224-880391ac5edd #
vertex $-1 -1 $-1 $77 $179 #
straight-curve $-1 -1 $-1 19.49999999999997513 5.000000000000004441 -9.499999999999847233 1.931457733731105525e-14 6.391313734699990906e-16 10 F 0 F 3.900000000000000355 #
coedge $-1 -1 $-1 $180 $174 $78 $129 forward $181 $-1 #
edge $182 -1 $-1 $135 -0 $132 3.900000000000000355 $78 $183 forward @7 unknown #
coedge $-1 -1 $-1 $79 $168 $180 $184 reversed $71 $-1 #
DXID-attrib $-1 -1 $-1 $-1 $80 @10 ASM ENTITY @36 0ea2c608-666b-46dd-9340-c77851d53647 #
vertex $-1 -1 $-1 $80 $185 #
straight-curve $-1 -1 $-1 -19.49999999999995381 5.000000000000004441 29.50000000000023093 -5.55111512312539616e-16 10 -6.391313734699980059e-16 I I #
DXID-attrib $-1 -1 $-1 $-1 $81 @10 ASM ENTITY @36 2ba4e461-1151-46b3-bded-4cf5b109fdd3 #
vertex $-1 -1 $-1 $129 $186 #
straight-curve $-1 -1 $-1 19.50000000000004974 5.000000000000007105 29.50000000000015632 -5.55111512312539616e-16 10 -6.391313734699980059e-16 I I #
edge $187 -1 $-1 $86 -0 $172 3.900000000000000355 $118 $188 forward @7 unknown #
face $189 -1 $-1 $-1 $190 $11 $-1 $191 reversed single #
point $-1 -1 $-1 19.50000000000004974 5.000000000000007105 29.50000000000015632 #
point $-1 -1 $-1 -19.49999999999995381 5.000000000000004441 29.50000000000023093 #
DXID-attrib $-1 -1 $-1 $-1 $89 @10 ASM ENTITY @36 853e6cc3-eb84-4ec8-a3f2-a056fd361ad9 #
plane-surface $-1 -1 $-1 -4.579669976578803073e-15 6.391313734699992878e-16 10 -9.43689570931383651e-16 1 -6.391313734700035526e-17 -1.387778780781767383e-16 6.391313734700034293e-16 10 forward_v I I I I #
coedge $-1 -1 $-1 $192 $102 $104 $158 forward $90 $-1 #
coedge $-1 -1 $-1 $104 $92 $94 $146 forward $52 $-1 #
coedge $-1 -1 $-1 $94 $93 $192 $193 reversed $34 $-1 #
edge $194 -1 $-1 $148 0 $195 0.5 $144 $196 forward @7 unknown #
DXID-attrib $-1 -1 $-1 $-1 $96 @10 ASM ENTITY @36 3141bb73-4883-406d-98ed-ac5f3471ecfa #
vertex $-1 -1 $-1 $96 $197 #
straight-curve $-1 -1 $-1 29.99999999999999289 2.575416163406148595e-14 -40 -10 -9.436895709313836904e-15 -1.38777878078176122e-16 F 0 F 6 #
coedge $-1 -1 $-1 $102 $192 $97 $151 forward $90 $-1 #
edge $198 -1 $-1 $153 0 $109 10 $97 $199 forward @7 unknown #
DXID-attrib $-1 -1 $-1 $-1 $98 @10 ASM ENTITY @36 efb2e94b-5f7a-444b-bc71-fbdf79cfdfbd #
vertex $-1 -1 $-1 $151 $200 #
straight-curve $-1 -1 $-1 -30.00000000000000711 -3.086721262182153547e-14 -40 -9.436895709313836904e-15 10 -6.391313734700035279e-16 I I #
point $-1 -1 $-1 -30.00000000000000711 -3.086721262182153547e-14 -40 #
DXID-attrib $-1 -1 $-1 $-1 $103 @10 ASM ENTITY @36 1dc12f2e-2aa7-491b-a1d0-b013f9dc2f1b #
straight-curve $-1 -1 $-1 -29.99999999999999289 4.999999999999975131 60 10 9.436895709313836904e-15 1.38777878078176122e-16 I I #
edge $201 -1 $-1 $106 0 $195 10 $104 $202 forward @7 unknown #
point $-1 -1 $-1 29.99999999999999645 5.000000000000031974 60 #
point $-1 -1 $-1 -29.99999999999998579 4.999999999999975131 60 #
DXID-attrib $-1 -1 $-1 $-1 $111 @10 ASM ENTITY @36 7d257a2a-793f-48e4-b818-6107a4a1b1a5 #
straight-curve $-1 -1 $-1 30 3.214547536876152577e-14 60 -7.494005416219485187e-16 -6.391313734700043168e-16 -10 F 0 F 10 #
DXID-attrib $-1 -1 $-1 $-1 $115 @10 ASM ENTITY @36 61da9679-55be-4e41-a443-b1faa294734c #
face $203 -1 $-1 $204 $205 $11 $-1 $206 forward single #
loop $-1 -1 $-1 $-1 $207 $115 #
plane-surface $-1 -1 $-1 -22.50000000000003197 5.000000000000001776 -12.49999999999976552 -1 -5.551115123125383341e-17 1.931457733731105446e-15 1.931457733731105525e-14 6.391313734699990906e-16 10 forward_v I I I I #
coedge $-1 -1 $-1 $208 $209 $210 $211 forward $116 $-1 #
coedge $-1 -1 $-1 $130 $118 $120 $170 forward $71 $-1 #
coedge $-1 -1 $-1 $120 $119 $212 $213 reversed $43 $-1 #
edge $214 -1 $-1 $172 0 $215 7 $168 $216 forward @7 unknown #
DXID-attrib $-1 -1 $-1 $-1 $122 @10 ASM ENTITY @36 eb1e521d-0c99-45c2-b50c-27c5a8275ecd #
vertex $-1 -1 $-1 $122 $217 #
straight-curve $-1 -1 $-1 -19.50000000000002842 5.000000000000001776 -9.499999999999772626 10 5.551115123125383341e-16 -1.931457733731105525e-14 F 0 F 3.900000000000000355 #
coedge $-1 -1 $-1 $128 $212 $123 $175 forward $181 $-1 #
edge $218 -1 $-1 $177 0 $135 3.900000000000000355 $123 $219 forward @7 unknown #
DXID-attrib $-1 -1 $-1 $-1 $124 @10 ASM ENTITY @36 2e13103f-6fd6-49a9-9d6f-6a7fec7fa1f5 #
vertex $-1 -1 $-1 $175 $220 #
straight-curve $-1 -1 $-1 19.49999999999997513 5.000000000000004441 -9.499999999999847233 -5.55111512312539616e-16 10 -6.391313734699980059e-16 I I #
point $-1 -1 $-1 19.49999999999997513 5.000000000000004441 -9.499999999999847233 #
coedge $-1 -1 $-1 $212 $128 $130 $184 forward $181 $-1 #
loop $-1 -1 $-1 $-1 $180 $221 #
DXID-attrib $-1 -1 $-1 $-1 $129 @10 ASM ENTITY @36 cf5aa9e4-56f1-4fd8-8935-a1522357e50c #
straight-curve $-1 -1 $-1 19.50000000000004619 75 29.50000000000015277 -10 -5.551115123125383341e-16 1.931457733731105525e-14 I I #
edge $222 -1 $-1 $132 -0 $215 3.900000000000000355 $130 $223 forward @7 unknown #
point $-1 -1 $-1 -19.49999999999995737 75 29.50000000000022737 #
point $-1 -1 $-1 19.50000000000004619 75 29.50000000000015277 #
DXID-attrib $-1 -1 $-1 $-1 $137 @10 ASM ENTITY @36 19c42095-e582-4ed8-a99c-58f25c69a54f #
straight-curve $-1 -1 $-1 -19.49999999999995381 5.000000000000004441 29.50000000000023093 -1.931457733731105525e-14 -6.391313734699990906e-16 -10 F -0 F 3.900000000000000355 #
DXID-attrib $-1 -1 $-1 $-1 $138 @10 ASM ENTITY @36 77f0261c-5896-4596-9105-d356d6b0896a #
loop $-1 -1 $-1 $83 $224 $138 #
plane-surface $-1 -1 $-1 1.187988586516387146e-14 5.000000000000004441 10.00000000000019185 -5.551115123125395667e-17 1 -6.391313734699980059e-17 1.931457733731105525e-14 6.391313734699990906e-16 10 forward_v I I I I #
coedge $-1 -1 $-1 $150 $143 $145 $193 forward $90 $-1 #
edge $225 -1 $-1 $195 0 $153 6 $145 $226 forward @7 unknown #
DXID-attrib $-1 -1 $-1 $-1 $146 @10 ASM ENTITY @36 0d6fcc10-f131-458d-a9f3-a908ccc9dcbe #
vertex $-1 -1 $-1 $193 $227 #
straight-curve $-1 -1 $-1 29.99999999999999289 2.575416163406148595e-14 -40 -9.436895709313836904e-15 10 -6.391313734700035279e-16 I I #
point $-1 -1 $-1 29.99999999999999289 2.575416163406148595e-14 -40 #
DXID-attrib $-1 -1 $-1 $-1 $151 @10 ASM ENTITY @36 99d79323-dc61-4945-920f-72a966e1731e #
straight-curve $-1 -1 $-1 -30.00000000000001421 4.999999999999968914 -40 2.081668171172136564e-15 6.391313734700055001e-16 10 I I #
point $-1 -1 $-1 -30.00000000000001421 4.999999999999968914 -40 #
DXID-attrib $-1 -1 $-1 $-1 $158 @10 ASM ENTITY @36 fd49edbd-027a-407f-9b3e-11bfd3586971 #
straight-curve $-1 -1 $-1 29.99999999999999645 5.000000000000031974 60 -7.494005416219485187e-16 -6.391313734700043168e-16 -10 I I #
DXID-attrib $-1 -1 $-1 $-1 $164 @10 ASM ENTITY @36 99752234-41ca-4c74-83a3-2f4a78aa19f4 #
face $228 -1 $-1 $221 $229 $11 $-1 $230 forward single #
loop $-1 -1 $-1 $-1 $231 $164 #
plane-surface $-1 -1 $-1 22.49999999999996803 5.000000000000004441 -12.49999999999985079 -1.931457733731105446e-15 -6.391313734699991152e-17 -1 -10 -5.551115123125383341e-16 1.931457733731105525e-14 forward_v I I I I #
coedge $-1 -1 $-1 $232 $233 $234 $235 forward $165 $-1 #
coedge $-1 -1 $-1 $236 $167 $237 $238 forward $116 $-1 #
coedge $-1 -1 $-1 $167 $236 $232 $239 reversed $116 $-1 #
coedge $-1 -1 $-1 $234 $224 $167 $211 reversed $190 $-1 #
edge $240 -1 $-1 $241 0 $242 4.5 $167 $243 forward @7 unknown #
coedge $-1 -1 $-1 $174 $180 $169 $213 forward $181 $-1 #
edge $244 -1 $-1 $215 0 $177 3.900000000000000355 $169 $245 forward @7 unknown #
DXID-attrib $-1 -1 $-1 $-1 $170 @10 ASM ENTITY @36 3b1fbfcc-3c27-46d7-b17e-51beaa933198 #
vertex $-1 -1 $-1 $213 $246 #
straight-curve $-1 -1 $-1 -19.50000000000002842 5.000000000000001776 -9.499999999999772626 -5.55111512312539616e-16 10 -6.391313734699980059e-16 I I #
point $-1 -1 $-1 -19.50000000000002842 5.000000000000001776 -9.499999999999772626 #
DXID-attrib $-1 -1 $-1 $-1 $175 @10 ASM ENTITY @36 d0b64605-b95c-43fa-a358-e8e9340bb304 #
straight-curve $-1 -1 $-1 19.49999999999997158 75 -9.499999999999850786 1.931457733731105525e-14 6.391313734699990906e-16 10 I I #
point $-1 -1 $-1 19.49999999999997158 75 -9.499999999999850786 #
face $247 -1 $-1 $138 $248 $11 $-1 $249 forward single #
DXID-attrib $-1 -1 $-1 $-1 $184 @10 ASM ENTITY @36 d9456e01-4660-4b22-b815-0dbf2c174dbb #
straight-curve $-1 -1 $-1 -19.49999999999995737 75 29.50000000000022737 -1.931457733731105525e-14 -6.391313734699990906e-16 -10 I I #
coedge $-1 -1 $-1 $210 $250 $251 $252 reversed $190 $-1 #
DXID-attrib $-1 -1 $-1 $-1 $193 @10 ASM ENTITY @36 112741bb-5d01-47e3-851e-237e7f237b6b #
straight-curve $-1 -1 $-1 29.99999999999998579 5.000000000000026645 -40 -10 -9.436895709313836904e-15 -1.38777878078176122e-16 I I #
point $-1 -1 $-1 29.99999999999998579 5.000000000000026645 -40 #
DXID-attrib $-1 -1 $-1 $-1 $204 @10 ASM ENTITY @36 cc0982e6-138e-4fdf-9a79-823f3b5490c1 #
loop $-1 -1 $-1 $-1 $251 $204 #
plane-surface $-1 -1 $-1 22.50000000000005329 5.000000000000007105 32.50000000000014921 1 5.551115123125383341e-17 -1.931457733731105446e-15 -1.931457733731105525e-14 -6.391313734699990906e-16 -10 forward_v I I I I #
coedge $-1 -1 $-1 $253 $254 $250 $255 forward $205 $-1 #
coedge $-1 -1 $-1 $256 $207 $209 $239 forward $165 $-1 #
coedge $-1 -1 $-1 $207 $256 $253 $257 reversed $165 $-1 #
coedge $-1 -1 $-1 $250 $210 $207 $235 reversed $190 $-1 #
edge $258 -1 $-1 $259 0 $241 4.5 $207 $260 forward @7 unknown #
coedge $-1 -1 $-1 $209 $208 $261 $262 reversed $116 $-1 #
coedge $-1 -1 $-1 $251 $263 $208 $238 reversed $229 $-1 #
edge $264 -1 $-1 $242 0 $265 7 $237 $266 forward @7 unknown #
edge $267 -1 $-1 $241 0 $268 7 $232 $269 forward @7 unknown #
DXID-attrib $-1 -1 $-1 $-1 $211 @10 ASM ENTITY @36 93a3fe7a-d9c4-414e-8815-45793d324922 #
vertex $-1 -1 $-1 $211 $270 #
vertex $-1 -1 $-1 $211 $271 #
straight-curve $-1 -1 $-1 -22.49999999999994671 5.000000000000004441 32.50000000000023448 10 5.551115123125383341e-16 -1.931457733731105525e-14 F 0 F 4.5 #
DXID-attrib $-1 -1 $-1 $-1 $213 @10 ASM ENTITY @36 cf5af53c-0265-45fe-b925-9690b1480901 #
straight-curve $-1 -1 $-1 -19.50000000000003197 75 -9.499999999999776179 10 5.551115123125383341e-16 -1.931457733731105525e-14 I I #
point $-1 -1 $-1 -19.50000000000003197 75 -9.499999999999776179 #
DXID-attrib $-1 -1 $-1 $-1 $221 @10 ASM ENTITY @36 6b5702df-6c71-4ec1-813c-c7b7217c698d #
loop $-1 -1 $-1 $181 $272 $221 #
plane-surface $-1 -1 $-1 7.99410527897609494e-15 75 10.00000000000018652 -5.551115123125395667e-17 1 -6.391313734699980059e-17 1.931457733731105525e-14 6.391313734699990906e-16 10 forward_v I I I I #
coedge $-1 -1 $-1 $224 $234 $231 $255 reversed $190 $-1 #
coedge $-1 -1 $-1 $273 $237 $224 $252 forward $229 $-1 #
edge $274 -1 $-1 $242 0 $275 4.5 $251 $276 forward @7 unknown #
coedge $-1 -1 $-1 $277 $231 $233 $257 forward $205 $-1 #
coedge $-1 -1 $-1 $231 $277 $273 $278 reversed $205 $-1 #
edge $279 -1 $-1 $275 0 $259 4.5 $231 $280 forward @7 unknown #
coedge $-1 -1 $-1 $233 $232 $281 $282 reversed $165 $-1 #
edge $283 -1 $-1 $259 0 $284 7 $253 $285 forward @7 unknown #
DXID-attrib $-1 -1 $-1 $-1 $235 @10 ASM ENTITY @36 ba46fba2-c76b-45d1-9a91-2eb9ebda1657 #
vertex $-1 -1 $-1 $235 $286 #
straight-curve $-1 -1 $-1 -22.50000000000003197 5.000000000000001776 -12.49999999999976552 1.931457733731105525e-14 6.391313734699990906e-16 10 F 0 F 4.5 #
coedge $-1 -1 $-1 $272 $281 $236 $262 forward $248 $-1 #
edge $287 -1 $-1 $268 0 $265 4.5 $236 $288 forward @7 unknown #
coedge $-1 -1 $-1 $237 $273 $272 $289 reversed $229 $-1 #
DXID-attrib $-1 -1 $-1 $-1 $238 @10 ASM ENTITY @36 83a80834-527c-440c-a2c5-c99da514770c #
vertex $-1 -1 $-1 $238 $290 #
straight-curve $-1 -1 $-1 22.50000000000005329 5.000000000000007105 32.50000000000014921 -5.55111512312539616e-16 10 -6.391313734699980059e-16 I I #
DXID-attrib $-1 -1 $-1 $-1 $239 @10 ASM ENTITY @36 e8765539-6c25-4529-8efe-20326d558b61 #
vertex $-1 -1 $-1 $262 $291 #
straight-curve $-1 -1 $-1 -22.49999999999994671 5.000000000000004441 32.50000000000023448 -5.55111512312539616e-16 10 -6.391313734699980059e-16 I I #
point $-1 -1 $-1 -22.49999999999994671 5.000000000000004441 32.50000000000023448 #
point $-1 -1 $-1 22.50000000000005329 5.000000000000007105 32.50000000000014921 #
coedge $-1 -1 $-1 $292 $261 $263 $289 forward $248 $-1 #
coedge $-1 -1 $-1 $263 $251 $254 $278 forward $229 $-1 #
DXID-attrib $-1 -1 $-1 $-1 $252 @10 ASM ENTITY @36 151274dc-c67d-44d7-bf3f-381f7cc9bde7 #
vertex $-1 -1 $-1 $255 $293 #
straight-curve $-1 -1 $-1 22.50000000000005329 5.000000000000007105 32.50000000000014921 -1.931457733731105525e-14 -6.391313734699990906e-16 -10 F 0 F 4.5 #
coedge $-1 -1 $-1 $254 $253 $292 $294 reversed $205 $-1 #
edge $295 -1 $-1 $275 0 $296 7 $273 $297 forward @7 unknown #
DXID-attrib $-1 -1 $-1 $-1 $255 @10 ASM ENTITY @36 90eb381c-d535-4909-bab8-0b62ac2ba224 #
straight-curve $-1 -1 $-1 22.49999999999996803 5.000000000000004441 -12.49999999999985079 -10 -5.551115123125383341e-16 1.931457733731105525e-14 F 0 F 4.5 #
coedge $-1 -1 $-1 $261 $292 $256 $282 forward $248 $-1 #
edge $298 -1 $-1 $284 0 $268 4.5 $256 $299 forward @7 unknown #
DXID-attrib $-1 -1 $-1 $-1 $257 @10 ASM ENTITY @36 d95883ca-f470-48b2-8402-d73c7c3f350c #
vertex $-1 -1 $-1 $282 $300 #
straight-curve $-1 -1 $-1 -22.50000000000003197 5.000000000000001776 -12.49999999999976552 -5.55111512312539616e-16 10 -6.391313734699980059e-16 I I #
point $-1 -1 $-1 -22.50000000000003197 5.000000000000001776 -12.49999999999976552 #
DXID-attrib $-1 -1 $-1 $-1 $262 @10 ASM ENTITY @36 dc17742c-b5b1-4c45-b74b-b5a387609d17 #
straight-curve $-1 -1 $-1 -22.49999999999995026 75 32.50000000000022737 10 5.551115123125383341e-16 -1.931457733731105525e-14 I I #
edge $301 -1 $-1 $265 0 $296 4.5 $263 $302 forward @7 unknown #
point $-1 -1 $-1 22.50000000000004974 75 32.50000000000014211 #
point $-1 -1 $-1 -22.49999999999995026 75 32.50000000000022737 #
coedge $-1 -1 $-1 $281 $272 $277 $294 forward $248 $-1 #
point $-1 -1 $-1 22.49999999999996803 5.000000000000004441 -12.49999999999985079 #
edge $303 -1 $-1 $296 0 $284 4.5 $277 $304 forward @7 unknown #
DXID-attrib $-1 -1 $-1 $-1 $278 @10 ASM ENTITY @36 b19420b0-b54f-400e-91d6-a26251faee66 #
vertex $-1 -1 $-1 $294 $305 #
straight-curve $-1 -1 $-1 22.49999999999996803 5.000000000000004441 -12.49999999999985079 -5.55111512312539616e-16 10 -6.391313734699980059e-16 I I #
DXID-attrib $-1 -1 $-1 $-1 $282 @10 ASM ENTITY @36 f340a039-3e17-44dc-90b9-7dd5d5a34aa8 #
straight-curve $-1 -1 $-1 -22.50000000000003908 75 -12.49999999999976907 1.931457733731105525e-14 6.391313734699990906e-16 10 I I #
point $-1 -1 $-1 -22.50000000000003908 75 -12.49999999999976907 #
DXID-attrib $-1 -1 $-1 $-1 $289 @10 ASM ENTITY @36 28172d27-7c25-4af4-9ec8-3352cbb0aa0f #
straight-curve $-1 -1 $-1 22.50000000000004974 75 32.50000000000014211 -1.931457733731105525e-14 -6.391313734699990906e-16 -10 I I #
DXID-attrib $-1 -1 $-1 $-1 $294 @10 ASM ENTITY @36 49443b26-a801-44c2-8183-4530bef4bd58 #
straight-curve $-1 -1 $-1 22.49999999999996092 75 -12.49999999999985789 -10 -5.551115123125383341e-16 1.931457733731105525e-14 I I #
point $-1 -1 $-1 22.49999999999996092 75 -12.49999999999985789 #
End-of-ACIS-data 