700 0 2 0           
30 Autodesk Translation Framework 20 ASM 228.3.1.65535 NT 24 Sat Apr 29 17:01:04 2023 
1 9.999999999999999547e-07 1.000000000000000036e-10 
body $2 -1 $-1 $3 $-1 $4 #
body $5 -1 $-1 $6 $-1 $7 #
rgb_color-st-attrib $-1 -1 $8 $-1 $0 0.7450980392156862919 0.737254901960784359 0.7294117647058823151 #
lump $-1 -1 $-1 $-1 $9 $0 #
transform $-1 -1 1 0 0 0 1 0 0 0 1 0 0 0 1 no_rotate no_reflect no_shear #
rgb_color-st-attrib $-1 -1 $10 $-1 $1 0.7450980392156862919 0.737254901960784359 0.7294117647058823151 #
lump $-1 -1 $-1 $-1 $11 $1 #
transform $-1 -1 1 0 0 0 1 0 0 0 1 0 0 0 1 no_rotate no_reflect no_shear #
DXID-attrib $-1 -1 $-1 $2 $0 @10 ASM ENTITY @107 SQUARE_PROFILE_H2.IPT|:|0795B9D8FD5446AB9EF64EE0354186194CDEF64C|:|DA4B9237BACCCDF19C0760CAB7AEC4A8359010B0 #
shell $-1 -1 $-1 $-1 $-1 $12 $-1 $3 #
DXID-attrib $-1 -1 $-1 $5 $1 @10 ASM ENTITY @110 STEEL_PLATE_L2_HOLES.IPT|:|34731630547C04AE8473BD8BBABC7AC003727525|:|DA4B9237BACCCDF19C0760CAB7AEC4A8359010B0 #
shell $-1 -1 $-1 $-1 $-1 $13 $-1 $6 #
face $14 -1 $-1 $15 $16 $9 $-1 $17 forward single #
face $18 -1 $-1 $19 $20 $11 $-1 $21 forward single #
DXID-attrib $-1 -1 $-1 $-1 $12 @10 ASM ENTITY @36 64b3f834-37f3-4ba4-bc0c-4c198050864f #
face $22 -1 $-1 $23 $24 $9 $-1 $25 forward single #
loop $-1 -1 $-1 $-1 $26 $12 #
plane-surface $-1 -1 $-1 19.50000000000003197 5.000000000000050626 19.49999999999998934 -3.629197509083670551e-16 -1.776356839400252042e-15 -1 -10 -1.332267629550187217e-14 3.629197509083694217e-15 forward_v I I I I #
DXID-attrib $-1 -1 $-1 $-1 $13 @10 ASM ENTITY @36 a18daad3-18db-4d5d-8027-11966f33f3fa #
face $27 -1 $-1 $28 $29 $11 $-1 $30 forward single #
loop $-1 -1 $-1 $31 $32 $13 #
cone-surface $-1 -1 $-1 20.00000000000001776 1.010191475224174204e-13 39.99999999999999289 -8.881784197001246407e-16 1 -2.081389478210372973e-15 2.499999999999999556 2.220446049250309531e-15 -8.326672684688669123e-16 1 I I 0 -1 2.499999999999999556 forward I I I I #
DXID-attrib $-1 -1 $-1 $-1 $15 @10 ASM ENTITY @36 0d59fd05-5733-4254-973a-b30e4d7fb2d6 #
face $33 -1 $-1 $34 $35 $9 $-1 $36 forward single #
loop $-1 -1 $-1 $-1 $37 $15 #
plane-surface $-1 -1 $-1 19.50000000000002132 4.999999999999981348 -19.50000000000001421 -1 -1.332267629550187257e-15 3.629197509083694217e-16 3.629197509083670551e-15 1.776356839400252042e-14 10 forward_v I I I I #
coedge $-1 -1 $-1 $38 $39 $40 $41 forward $16 $-1 #
DXID-attrib $-1 -1 $-1 $-1 $19 @10 ASM ENTITY @36 a50cff5b-bb46-4612-9426-6d6db2d79cb4 #
face $42 -1 $-1 $43 $44 $11 $-1 $45 forward single #
loop $-1 -1 $-1 $46 $47 $19 #
cone-surface $-1 -1 $-1 -19.99999999999997868 6.549201073441249946e-14 40.00000000000002842 -8.881784197001246407e-16 1 -2.081389478210372973e-15 2.499999999999999556 2.220446049250309531e-15 -8.326672684688669123e-16 1 I I 0 -1 2.499999999999999556 forward I I I I #
loop $-1 -1 $-1 $-1 $48 $13 #
coedge $-1 -1 $-1 $32 $32 $49 $50 reversed $20 $-1 #
DXID-attrib $-1 -1 $-1 $-1 $23 @10 ASM ENTITY @36 573128a1-c962-4fee-adac-2e19e19391c9 #
face $51 -1 $-1 $52 $53 $9 $-1 $54 forward single #
loop $-1 -1 $-1 $-1 $55 $23 #
plane-surface $-1 -1 $-1 -19.49999999999998224 4.999999999999929834 -19.50000000000000355 3.629197509083670551e-16 1.776356839400252042e-15 1 10 1.332267629550187217e-14 -3.629197509083694217e-15 forward_v I I I I #
coedge $-1 -1 $-1 $56 $57 $58 $59 forward $24 $-1 #
coedge $-1 -1 $-1 $60 $26 $61 $62 forward $16 $-1 #
coedge $-1 -1 $-1 $26 $60 $56 $63 reversed $16 $-1 #
coedge $-1 -1 $-1 $58 $64 $26 $41 reversed $65 $-1 #
edge $66 -1 $-1 $67 -0 $68 3.900000000000000355 $26 $69 forward @7 unknown #
DXID-attrib $-1 -1 $-1 $-1 $28 @10 ASM ENTITY @36 8c43fbb4-11cb-4087-a0ae-590ebc2bb6d1 #
face $70 -1 $-1 $71 $72 $11 $-1 $73 forward single #
loop $-1 -1 $-1 $74 $75 $28 #
cone-surface $-1 -1 $-1 19.99999999999997868 -6.549201073441244897e-14 -40 -8.881784197001246407e-16 1 -2.081389478210372973e-15 2.499999999999999556 2.220446049250309531e-15 -8.326672684688669123e-16 1 I I 0 -1 2.499999999999999556 forward I I I I #
loop $-1 -1 $-1 $-1 $76 $19 #
coedge $-1 -1 $-1 $47 $47 $77 $78 reversed $29 $-1 #
coedge $-1 -1 $-1 $48 $48 $79 $80 forward $31 $-1 #
coedge $-1 -1 $-1 $49 $49 $32 $50 forward $81 $-1 #
edge $82 -1 $-1 $83 -3.141592653589793116 $83 3.141592653589793116 $32 $84 forward @7 unknown #
DXID-attrib $-1 -1 $-1 $-1 $34 @10 ASM ENTITY @36 42c4a57d-bf63-42fe-803b-e13c0c99b22a #
face $85 -1 $-1 $86 $87 $9 $-1 $88 forward single #
loop $-1 -1 $-1 $-1 $89 $34 #
plane-surface $-1 -1 $-1 -19.49999999999997158 4.999999999999999112 19.5 1 1.332267629550187257e-15 -3.629197509083694217e-16 -3.629197509083670551e-15 -1.776356839400252042e-14 -10 forward_v I I I I #
coedge $-1 -1 $-1 $90 $91 $92 $93 forward $35 $-1 #
coedge $-1 -1 $-1 $94 $37 $39 $63 forward $24 $-1 #
coedge $-1 -1 $-1 $37 $94 $90 $95 reversed $24 $-1 #
coedge $-1 -1 $-1 $92 $40 $37 $59 reversed $65 $-1 #
edge $96 -1 $-1 $97 0 $67 3.900000000000000355 $37 $98 forward @7 unknown #
coedge $-1 -1 $-1 $39 $38 $99 $100 reversed $16 $-1 #
coedge $-1 -1 $-1 $89 $101 $38 $62 reversed $53 $-1 #
edge $102 -1 $-1 $68 0 $103 7 $61 $104 forward @7 unknown #
edge $105 -1 $-1 $67 0 $106 7 $56 $107 forward @7 unknown #
coedge $-1 -1 $-1 $40 $92 $89 $108 reversed $65 $-1 #
loop $-1 -1 $-1 $-1 $64 $109 #
DXID-attrib $-1 -1 $-1 $-1 $41 @10 ASM ENTITY @36 4fb76119-465b-41a8-b4c5-392956e9edf1 #
vertex $-1 -1 $-1 $41 $110 #
vertex $-1 -1 $-1 $41 $111 #
straight-curve $-1 -1 $-1 19.50000000000003197 5.000000000000050626 19.49999999999998934 -10 -1.332267629550187217e-14 3.629197509083694217e-15 F -0 F 3.900000000000000355 #
DXID-attrib $-1 -1 $-1 $-1 $43 @10 ASM ENTITY @36 775c459b-7f6a-4edf-afd5-8b0cd41a3553 #
face $112 -1 $-1 $113 $114 $11 $-1 $115 forward single #
loop $-1 -1 $-1 $116 $117 $43 #
cone-surface $-1 -1 $-1 -20.00000000000002132 -1.010191475224173952e-13 -39.99999999999998579 -8.881784197001246407e-16 1 -2.081389478210372973e-15 2.499999999999999556 2.220446049250309531e-15 -8.326672684688669123e-16 1 I I 0 -1 2.499999999999999556 forward I I I I #
loop $-1 -1 $-1 $-1 $118 $28 #
coedge $-1 -1 $-1 $75 $75 $119 $120 reversed $44 $-1 #
coedge $-1 -1 $-1 $76 $76 $121 $122 forward $46 $-1 #
coedge $-1 -1 $-1 $77 $77 $47 $78 forward $123 $-1 #
edge $124 -1 $-1 $125 -3.141592653589793116 $125 3.141592653589793116 $47 $126 forward @7 unknown #
coedge $-1 -1 $-1 $79 $79 $48 $80 reversed $127 $-1 #
edge $128 -1 $-1 $129 -3.141592653589793116 $129 3.141592653589793116 $48 $130 forward @7 unknown #
loop $-1 -1 $-1 $-1 $49 $131 #
DXID-attrib $-1 -1 $-1 $-1 $50 @10 ASM ENTITY @36 09f52f6c-53be-4d4e-93e9-3ce9b98eb4d6 #
vertex $-1 -1 $-1 $50 $132 #
ellipse-curve $-1 -1 $-1 20.00000000000001421 5.000000000000101252 39.99999999999998579 8.881784197001246407e-16 -1 2.081389478210372973e-15 2.499999999999999556 2.220446049250309531e-15 -8.326672684688669123e-16 1 I I #
DXID-attrib $-1 -1 $-1 $-1 $52 @10 ASM ENTITY @36 fe2c3a52-b094-4584-aee9-4a4242821ae7 #
face $133 -1 $-1 $134 $135 $9 $-1 $136 forward single #
loop $-1 -1 $-1 $-1 $137 $52 #
plane-surface $-1 -1 $-1 -22.49999999999996803 5 22.5 3.629197509083670551e-16 1.776356839400252042e-15 1 10 1.332267629550187217e-14 -3.629197509083694217e-15 forward_v I I I I #
coedge $-1 -1 $-1 $138 $61 $64 $108 forward $53 $-1 #
coedge $-1 -1 $-1 $139 $55 $57 $95 forward $35 $-1 #
coedge $-1 -1 $-1 $55 $139 $138 $140 reversed $35 $-1 #
coedge $-1 -1 $-1 $64 $58 $55 $93 reversed $65 $-1 #
edge $141 -1 $-1 $142 0 $97 3.900000000000000355 $55 $143 forward @7 unknown #
coedge $-1 -1 $-1 $57 $56 $144 $145 reversed $24 $-1 #
edge $146 -1 $-1 $97 0 $147 7 $90 $148 forward @7 unknown #
DXID-attrib $-1 -1 $-1 $-1 $59 @10 ASM ENTITY @36 886af8ce-687c-4b3e-99eb-73887acc8483 #
vertex $-1 -1 $-1 $59 $149 #
straight-curve $-1 -1 $-1 19.50000000000002132 4.999999999999981348 -19.50000000000001421 3.629197509083670551e-15 1.776356839400252042e-14 10 F 0 F 3.900000000000000355 #
coedge $-1 -1 $-1 $150 $144 $60 $100 forward $151 $-1 #
edge $152 -1 $-1 $106 -0 $103 3.900000000000000355 $60 $153 forward @7 unknown #
coedge $-1 -1 $-1 $61 $138 $150 $154 reversed $53 $-1 #
DXID-attrib $-1 -1 $-1 $-1 $62 @10 ASM ENTITY @36 3c637934-51f1-4903-98cf-119241d6f9bb #
vertex $-1 -1 $-1 $62 $155 #
straight-curve $-1 -1 $-1 -19.49999999999997158 4.999999999999999112 19.5 -1.332267629550187849e-14 10 -1.776356839400251727e-14 I I #
DXID-attrib $-1 -1 $-1 $-1 $63 @10 ASM ENTITY @36 49fbf84a-1c0f-42b2-9509-529fdb8cbe5a #
vertex $-1 -1 $-1 $100 $156 #
straight-curve $-1 -1 $-1 19.50000000000003197 5.000000000000050626 19.49999999999998934 -1.332267629550187849e-14 10 -1.776356839400251727e-14 I I #
edge $157 -1 $-1 $68 -0 $142 3.900000000000000355 $89 $158 forward @7 unknown #
face $159 -1 $-1 $-1 $160 $9 $-1 $161 reversed single #
point $-1 -1 $-1 19.50000000000003197 5.000000000000050626 19.49999999999998934 #
point $-1 -1 $-1 -19.49999999999997158 4.999999999999999112 19.5 #
DXID-attrib $-1 -1 $-1 $-1 $71 @10 ASM ENTITY @36 630e37af-2692-4fd3-901a-3def2b455942 #
face $162 -1 $-1 $163 $164 $11 $-1 $165 forward single #
loop $-1 -1 $-1 $-1 $166 $71 #
plane-surface $-1 -1 $-1 -29.99999999999997158 7.742412131951495399e-14 50.00000000000000711 3.3306690738754499e-16 2.081389478210373367e-15 1 10 8.881784197001239702e-15 -3.330669073875468044e-15 forward_v I I I I #
loop $-1 -1 $-1 $-1 $167 $43 #
coedge $-1 -1 $-1 $117 $117 $168 $169 reversed $72 $-1 #
coedge $-1 -1 $-1 $118 $118 $170 $171 forward $74 $-1 #
coedge $-1 -1 $-1 $119 $119 $75 $120 forward $172 $-1 #
edge $173 -1 $-1 $174 -3.141592653589793116 $174 3.141592653589793116 $75 $175 forward @7 unknown #
coedge $-1 -1 $-1 $121 $121 $76 $122 reversed $176 $-1 #
edge $177 -1 $-1 $178 -3.141592653589793116 $178 3.141592653589793116 $76 $179 forward @7 unknown #
loop $-1 -1 $-1 $81 $77 $131 #
DXID-attrib $-1 -1 $-1 $-1 $78 @10 ASM ENTITY @36 17c0a146-20c9-4778-8aa1-3866e62994eb #
vertex $-1 -1 $-1 $78 $180 #
ellipse-curve $-1 -1 $-1 -19.99999999999998579 5.000000000000065725 40.00000000000001421 8.881784197001246407e-16 -1 2.081389478210372973e-15 2.499999999999999556 2.220446049250309531e-15 -8.326672684688669123e-16 1 I I #
loop $-1 -1 $-1 $-1 $79 $181 #
DXID-attrib $-1 -1 $-1 $-1 $80 @10 ASM ENTITY @36 6794b322-46b7-4f9e-a7b0-6c157e00129e #
vertex $-1 -1 $-1 $80 $182 #
ellipse-curve $-1 -1 $-1 20.00000000000001776 1.010191475224174204e-13 39.99999999999999289 8.881784197001246407e-16 -1 2.081389478210372973e-15 2.499999999999999556 2.220446049250309531e-15 -8.326672684688669123e-16 1 I I #
face $183 -1 $-1 $181 $184 $11 $-1 $185 forward single #
point $-1 -1 $-1 17.50000000000001421 5.000000000000098588 39.99999999999998579 #
DXID-attrib $-1 -1 $-1 $-1 $86 @10 ASM ENTITY @36 b9d876e2-a3f7-427f-b6bf-b8f765b55dd5 #
face $186 -1 $-1 $187 $188 $9 $-1 $189 forward single #
loop $-1 -1 $-1 $-1 $190 $86 #
plane-surface $-1 -1 $-1 -22.49999999999998224 4.999999999999920064 -22.5 -1 -1.332267629550187257e-15 3.629197509083694217e-16 3.629197509083670551e-15 1.776356839400252042e-14 10 forward_v I I I I #
coedge $-1 -1 $-1 $191 $192 $193 $194 forward $87 $-1 #
coedge $-1 -1 $-1 $101 $89 $91 $140 forward $53 $-1 #
coedge $-1 -1 $-1 $91 $90 $195 $196 reversed $35 $-1 #
edge $197 -1 $-1 $142 0 $198 7 $138 $199 forward @7 unknown #
DXID-attrib $-1 -1 $-1 $-1 $93 @10 ASM ENTITY @36 33de0a0d-66fc-41ad-a9e0-44519feeaf30 #
vertex $-1 -1 $-1 $93 $200 #
straight-curve $-1 -1 $-1 -19.49999999999998224 4.999999999999929834 -19.50000000000000355 10 1.332267629550187217e-14 -3.629197509083694217e-15 F 0 F 3.900000000000000355 #
coedge $-1 -1 $-1 $99 $195 $94 $145 forward $151 $-1 #
edge $201 -1 $-1 $147 0 $106 3.900000000000000355 $94 $202 forward @7 unknown #
DXID-attrib $-1 -1 $-1 $-1 $95 @10 ASM ENTITY @36 12aa9b9a-01d6-4205-876e-6350a43d352b #
vertex $-1 -1 $-1 $145 $203 #
straight-curve $-1 -1 $-1 19.50000000000002132 4.999999999999981348 -19.50000000000001421 -1.332267629550187849e-14 10 -1.776356839400251727e-14 I I #
point $-1 -1 $-1 19.50000000000002132 4.999999999999981348 -19.50000000000001421 #
coedge $-1 -1 $-1 $195 $99 $101 $154 forward $151 $-1 #
loop $-1 -1 $-1 $-1 $150 $204 #
DXID-attrib $-1 -1 $-1 $-1 $100 @10 ASM ENTITY @36 d85300a0-44db-4fd0-b0eb-a5a9bff5d340 #
straight-curve $-1 -1 $-1 19.4999999999999396 75.00000000000004263 19.499999999999865 -10 -1.332267629550187217e-14 3.629197509083694217e-15 I I #
edge $205 -1 $-1 $103 -0 $198 3.900000000000000355 $101 $206 forward @7 unknown #
point $-1 -1 $-1 -19.50000000000006395 75 19.49999999999987566 #
point $-1 -1 $-1 19.4999999999999396 75.00000000000004263 19.499999999999865 #
DXID-attrib $-1 -1 $-1 $-1 $108 @10 ASM ENTITY @36 0960bbe6-e721-4a7e-b3b3-4d0995525f10 #
straight-curve $-1 -1 $-1 -19.49999999999997158 4.999999999999999112 19.5 -3.629197509083670551e-15 -1.776356839400252042e-14 -10 F -0 F 3.900000000000000355 #
DXID-attrib $-1 -1 $-1 $-1 $109 @10 ASM ENTITY @36 894a9aaa-a62f-4bd1-9f63-36ba2a1a546a #
loop $-1 -1 $-1 $65 $207 $109 #
plane-surface $-1 -1 $-1 2.664535259100372542e-14 4.99999999999999023 -8.881784197001236546e-15 -1.332267629550187849e-15 1 -1.776356839400251648e-15 3.629197509083670551e-15 1.776356839400252042e-14 10 forward_v I I I I #
DXID-attrib $-1 -1 $-1 $-1 $113 @10 ASM ENTITY @36 dfb2a106-5310-4d33-82f9-281555438fb1 #
face $208 -1 $-1 $209 $210 $11 $-1 $211 forward single #
loop $-1 -1 $-1 $-1 $212 $113 #
plane-surface $-1 -1 $-1 -30.00000000000002842 -1.307148265015223543e-13 -49.99999999999997158 -1 -8.88178419700123556e-16 5.107025913275718705e-16 5.107025913275701153e-15 2.081389478210373209e-14 10 forward_v I I I I #
coedge $-1 -1 $-1 $213 $214 $215 $216 forward $114 $-1 #
coedge $-1 -1 $-1 $167 $167 $217 $218 forward $116 $-1 #
coedge $-1 -1 $-1 $168 $168 $117 $169 forward $219 $-1 #
edge $220 -1 $-1 $221 -3.141592653589793116 $221 3.141592653589793116 $117 $222 forward @7 unknown #
coedge $-1 -1 $-1 $170 $170 $118 $171 reversed $223 $-1 #
edge $224 -1 $-1 $225 -3.141592653589793116 $225 3.141592653589793116 $118 $226 forward @7 unknown #
loop $-1 -1 $-1 $123 $119 $131 #
DXID-attrib $-1 -1 $-1 $-1 $120 @10 ASM ENTITY @36 0231e36c-b2ae-43b8-987c-a0280ab3302c #
vertex $-1 -1 $-1 $120 $227 #
ellipse-curve $-1 -1 $-1 19.99999999999997158 4.999999999999934275 -40.00000000000000711 8.881784197001246407e-16 -1 2.081389478210372973e-15 2.499999999999999556 2.220446049250309531e-15 -8.326672684688669123e-16 1 I I #
loop $-1 -1 $-1 $127 $121 $181 #
DXID-attrib $-1 -1 $-1 $-1 $122 @10 ASM ENTITY @36 136fcdcb-0671-4ff9-80ca-cbc1384daed5 #
vertex $-1 -1 $-1 $122 $228 #
ellipse-curve $-1 -1 $-1 -19.99999999999997868 6.549201073441249946e-14 40.00000000000002842 8.881784197001246407e-16 -1 2.081389478210372973e-15 2.499999999999999556 2.220446049250309531e-15 -8.326672684688669123e-16 1 I I #
point $-1 -1 $-1 -22.49999999999998224 5.000000000000063061 40.00000000000001421 #
face $229 -1 $-1 $-1 $230 $11 $-1 $231 reversed single #
point $-1 -1 $-1 17.50000000000001776 9.879870147316710732e-14 39.99999999999999289 #
DXID-attrib $-1 -1 $-1 $-1 $131 @10 ASM ENTITY @36 b356e842-3033-436f-bbea-90ab70646a10 #
loop $-1 -1 $-1 $219 $232 $131 #
plane-surface $-1 -1 $-1 -8.881784197001246013e-15 5 -1.040694739105186289e-14 -8.881784197001246407e-16 1 -2.081389478210372973e-15 3.3306690738754499e-15 2.081389478210373209e-14 10 forward_v I I I I #
DXID-attrib $-1 -1 $-1 $-1 $134 @10 ASM ENTITY @36 7b63910a-d3ab-4c8f-9085-dc1cfc6e96e1 #
face $233 -1 $-1 $204 $234 $9 $-1 $235 forward single #
loop $-1 -1 $-1 $-1 $236 $134 #
plane-surface $-1 -1 $-1 22.50000000000001776 4.99999999999998046 -22.50000000000001421 -3.629197509083670551e-16 -1.776356839400252042e-15 -1 -10 -1.332267629550187217e-14 3.629197509083694217e-15 forward_v I I I I #
coedge $-1 -1 $-1 $237 $238 $239 $240 forward $135 $-1 #
coedge $-1 -1 $-1 $241 $137 $242 $243 forward $87 $-1 #
coedge $-1 -1 $-1 $137 $241 $237 $244 reversed $87 $-1 #
coedge $-1 -1 $-1 $239 $207 $137 $194 reversed $160 $-1 #
edge $245 -1 $-1 $246 0 $247 4.5 $137 $248 forward @7 unknown #
coedge $-1 -1 $-1 $144 $150 $139 $196 forward $151 $-1 #
edge $249 -1 $-1 $198 0 $147 3.900000000000000355 $139 $250 forward @7 unknown #
DXID-attrib $-1 -1 $-1 $-1 $140 @10 ASM ENTITY @36 523d61cc-5cc0-4d6b-86f9-d3fbf88c4509 #
vertex $-1 -1 $-1 $196 $251 #
straight-curve $-1 -1 $-1 -19.49999999999998224 4.999999999999929834 -19.50000000000000355 -1.332267629550187849e-14 10 -1.776356839400251727e-14 I I #
point $-1 -1 $-1 -19.49999999999998224 4.999999999999929834 -19.50000000000000355 #
DXID-attrib $-1 -1 $-1 $-1 $145 @10 ASM ENTITY @36 949e279a-16dd-4c15-a2df-25922a28b1a7 #
straight-curve $-1 -1 $-1 19.49999999999992539 74.99999999999997158 -19.50000000000013856 3.629197509083670551e-15 1.776356839400252042e-14 10 I I #
point $-1 -1 $-1 19.49999999999992539 74.99999999999997158 -19.50000000000013856 #
face $252 -1 $-1 $109 $253 $9 $-1 $254 forward single #
DXID-attrib $-1 -1 $-1 $-1 $154 @10 ASM ENTITY @36 baef7119-6b0a-4372-9381-42785da9bd4c #
straight-curve $-1 -1 $-1 -19.50000000000006395 75 19.49999999999987566 -3.629197509083670551e-15 -1.776356839400252042e-14 -10 I I #
coedge $-1 -1 $-1 $193 $255 $256 $257 reversed $160 $-1 #
DXID-attrib $-1 -1 $-1 $-1 $163 @10 ASM ENTITY @36 bb749a7e-f863-4481-b1af-263bd0b607d8 #
face $258 -1 $-1 $131 $259 $11 $-1 $260 forward single #
loop $-1 -1 $-1 $-1 $261 $163 #
plane-surface $-1 -1 $-1 29.99999999999997158 -7.742412131951495399e-14 -50.00000000000000711 -6.291263806209200017e-16 -2.081389478210373762e-15 -1 -10 -8.881784197001233391e-15 6.291263806209218555e-15 forward_v I I I I #
coedge $-1 -1 $-1 $262 $263 $264 $265 forward $164 $-1 #
coedge $-1 -1 $-1 $266 $166 $267 $268 forward $114 $-1 #
coedge $-1 -1 $-1 $166 $266 $262 $269 reversed $114 $-1 #
coedge $-1 -1 $-1 $264 $270 $166 $216 reversed $230 $-1 #
edge $271 -1 $-1 $272 0 $273 5.999999999999999112 $166 $274 forward @7 unknown #
coedge $-1 -1 $-1 $217 $217 $167 $218 reversed $275 $-1 #
edge $276 -1 $-1 $277 -3.141592653589793116 $277 3.141592653589793116 $167 $278 forward @7 unknown #
loop $-1 -1 $-1 $172 $168 $131 #
DXID-attrib $-1 -1 $-1 $-1 $169 @10 ASM ENTITY @36 9fe03b34-7d5d-497c-8206-164d2ed985de #
vertex $-1 -1 $-1 $169 $279 #
ellipse-curve $-1 -1 $-1 -20.00000000000002842 4.999999999999898748 -39.99999999999999289 8.881784197001246407e-16 -1 2.081389478210372973e-15 2.499999999999999556 2.220446049250309531e-15 -8.326672684688669123e-16 1 I I #
loop $-1 -1 $-1 $176 $170 $181 #
DXID-attrib $-1 -1 $-1 $-1 $171 @10 ASM ENTITY @36 efe17393-7706-46f1-ac5d-281c02711253 #
vertex $-1 -1 $-1 $171 $280 #
ellipse-curve $-1 -1 $-1 19.99999999999997868 -6.549201073441244897e-14 -40 8.881784197001246407e-16 -1 2.081389478210372973e-15 2.499999999999999556 2.220446049250309531e-15 -8.326672684688669123e-16 1 I I #
point $-1 -1 $-1 17.49999999999997158 4.999999999999932498 -40.00000000000001421 #
point $-1 -1 $-1 -22.49999999999997868 6.327156468516218638e-14 40.00000000000002842 #
DXID-attrib $-1 -1 $-1 $-1 $181 @10 ASM ENTITY @36 be1d7b58-89a5-413e-8907-270f319b13e7 #
loop $-1 -1 $-1 $275 $270 $181 #
plane-surface $-1 -1 $-1 -4.440892098500622217e-15 -3.944304526105053422e-30 1.479114197289396434e-30 -8.881784197001246407e-16 1 -2.081389478210372973e-15 3.3306690738754499e-15 2.081389478210373209e-14 10 forward_v I I I I #
coedge $-1 -1 $-1 $281 $282 $283 $284 forward $184 $-1 #
DXID-attrib $-1 -1 $-1 $-1 $187 @10 ASM ENTITY @36 242f0152-33bf-423c-a808-cf9c20180bd6 #
loop $-1 -1 $-1 $-1 $256 $187 #
plane-surface $-1 -1 $-1 22.50000000000003197 5.000000000000060396 22.49999999999998579 1 1.332267629550187257e-15 -3.629197509083694217e-16 -3.629197509083670551e-15 -1.776356839400252042e-14 -10 forward_v I I I I #
coedge $-1 -1 $-1 $285 $286 $255 $287 forward $188 $-1 #
coedge $-1 -1 $-1 $288 $190 $192 $244 forward $135 $-1 #
coedge $-1 -1 $-1 $190 $288 $285 $289 reversed $135 $-1 #
coedge $-1 -1 $-1 $255 $193 $190 $240 reversed $160 $-1 #
edge $290 -1 $-1 $291 0 $246 4.5 $190 $292 forward @7 unknown #
coedge $-1 -1 $-1 $192 $191 $293 $294 reversed $87 $-1 #
coedge $-1 -1 $-1 $256 $295 $191 $243 reversed $234 $-1 #
edge $296 -1 $-1 $247 0 $297 7 $242 $298 forward @7 unknown #
edge $299 -1 $-1 $246 0 $300 7 $237 $301 forward @7 unknown #
DXID-attrib $-1 -1 $-1 $-1 $194 @10 ASM ENTITY @36 9a7cf42e-a65c-4529-9592-aa52e39b2f0d #
vertex $-1 -1 $-1 $194 $302 #
vertex $-1 -1 $-1 $194 $303 #
straight-curve $-1 -1 $-1 -22.49999999999996803 5 22.5 10 1.332267629550187217e-14 -3.629197509083694217e-15 F 0 F 4.5 #
DXID-attrib $-1 -1 $-1 $-1 $196 @10 ASM ENTITY @36 7156a69b-c389-495d-9252-7750b2162f34 #
straight-curve $-1 -1 $-1 -19.50000000000007816 74.99999999999992895 -19.5000000000001279 10 1.332267629550187217e-14 -3.629197509083694217e-15 I I #
point $-1 -1 $-1 -19.50000000000007816 74.99999999999992895 -19.5000000000001279 #
DXID-attrib $-1 -1 $-1 $-1 $204 @10 ASM ENTITY @36 b5d1aee6-981b-49d5-ae7a-5cc32f924a50 #
loop $-1 -1 $-1 $151 $304 $204 #
plane-surface $-1 -1 $-1 -6.661338147750941767e-14 74.99999999999998579 -1.332267629550188353e-13 -1.332267629550187849e-15 1 -1.776356839400251648e-15 3.629197509083670551e-15 1.776356839400252042e-14 10 forward_v I I I I #
coedge $-1 -1 $-1 $207 $239 $236 $287 reversed $160 $-1 #
coedge $-1 -1 $-1 $305 $242 $207 $257 forward $234 $-1 #
edge $306 -1 $-1 $247 0 $307 4.5 $256 $308 forward @7 unknown #
DXID-attrib $-1 -1 $-1 $-1 $209 @10 ASM ENTITY @36 b19ef09f-0b20-4feb-9cbe-cdde4752aab4 #
loop $-1 -1 $-1 $-1 $309 $209 #
plane-surface $-1 -1 $-1 30.00000000000001776 1.307148265015223796e-13 49.99999999999999289 1 8.881784197001237532e-16 -4.21884749357559367e-16 -4.218847493575575132e-15 -2.081389478210373209e-14 -10 forward_v I I I I #
coedge $-1 -1 $-1 $310 $311 $312 $313 forward $210 $-1 #
coedge $-1 -1 $-1 $314 $212 $214 $269 forward $164 $-1 #
coedge $-1 -1 $-1 $212 $314 $310 $315 reversed $164 $-1 #
coedge $-1 -1 $-1 $312 $215 $212 $265 reversed $230 $-1 #
edge $316 -1 $-1 $317 0 $272 9.999999999999998224 $212 $318 forward @7 unknown #
coedge $-1 -1 $-1 $214 $213 $282 $319 reversed $114 $-1 #
coedge $-1 -1 $-1 $309 $283 $213 $268 reversed $259 $-1 #
edge $320 -1 $-1 $273 0 $321 0.5 $267 $322 forward @7 unknown #
edge $323 -1 $-1 $272 0 $324 0.5 $262 $325 forward @7 unknown #
coedge $-1 -1 $-1 $215 $312 $309 $326 reversed $230 $-1 #
DXID-attrib $-1 -1 $-1 $-1 $216 @10 ASM ENTITY @36 4c7ab8bf-d349-43fd-ad69-b10c08caa1f5 #
vertex $-1 -1 $-1 $216 $327 #
vertex $-1 -1 $-1 $216 $328 #
straight-curve $-1 -1 $-1 -29.99999999999997158 7.742412131951495399e-14 50.00000000000000711 10 8.881784197001239702e-15 -3.330669073875468044e-15 F 0 F 5.999999999999999112 #
loop $-1 -1 $-1 $223 $217 $181 #
DXID-attrib $-1 -1 $-1 $-1 $218 @10 ASM ENTITY @36 e54dc1b6-4b39-4983-8fcf-5206b35c73c8 #
vertex $-1 -1 $-1 $218 $329 #
ellipse-curve $-1 -1 $-1 -20.00000000000002132 -1.010191475224173952e-13 -39.99999999999998579 8.881784197001246407e-16 -1 2.081389478210372973e-15 2.499999999999999556 2.220446049250309531e-15 -8.326672684688669123e-16 1 I I #
point $-1 -1 $-1 -22.50000000000002842 4.999999999999896971 -39.99999999999998579 #
point $-1 -1 $-1 17.49999999999997868 -6.771245678366276205e-14 -40 #
coedge $-1 -1 $-1 $330 $232 $331 $332 forward $184 $-1 #
coedge $-1 -1 $-1 $232 $330 $266 $319 forward $184 $-1 #
coedge $-1 -1 $-1 $267 $333 $232 $284 reversed $259 $-1 #
edge $334 -1 $-1 $321 0 $335 10 $283 $336 forward @7 unknown #
coedge $-1 -1 $-1 $337 $236 $238 $289 forward $188 $-1 #
coedge $-1 -1 $-1 $236 $337 $305 $338 reversed $188 $-1 #
edge $339 -1 $-1 $307 0 $291 4.5 $236 $340 forward @7 unknown #
coedge $-1 -1 $-1 $238 $237 $341 $342 reversed $135 $-1 #
edge $343 -1 $-1 $291 0 $344 7 $285 $345 forward @7 unknown #
DXID-attrib $-1 -1 $-1 $-1 $240 @10 ASM ENTITY @36 bcc81d82-5428-4bce-b6af-641d9560ff24 #
vertex $-1 -1 $-1 $240 $346 #
straight-curve $-1 -1 $-1 -22.49999999999998224 4.999999999999920064 -22.5 3.629197509083670551e-15 1.776356839400252042e-14 10 F 0 F 4.5 #
coedge $-1 -1 $-1 $304 $341 $241 $294 forward $253 $-1 #
edge $347 -1 $-1 $300 0 $297 4.5 $241 $348 forward @7 unknown #
coedge $-1 -1 $-1 $242 $305 $304 $349 reversed $234 $-1 #
DXID-attrib $-1 -1 $-1 $-1 $243 @10 ASM ENTITY @36 b15d1bab-c38c-4beb-b88b-43ed7ec8b2f5 #
vertex $-1 -1 $-1 $243 $350 #
straight-curve $-1 -1 $-1 22.50000000000003197 5.000000000000060396 22.49999999999998579 -1.332267629550187849e-14 10 -1.776356839400251727e-14 I I #
DXID-attrib $-1 -1 $-1 $-1 $244 @10 ASM ENTITY @36 43157938-782f-408e-9d02-fa97592a4866 #
vertex $-1 -1 $-1 $294 $351 #
straight-curve $-1 -1 $-1 -22.49999999999996803 5 22.5 -1.332267629550187849e-14 10 -1.776356839400251727e-14 I I #
point $-1 -1 $-1 -22.49999999999996803 5 22.5 #
point $-1 -1 $-1 22.50000000000003197 5.000000000000060396 22.49999999999998579 #
coedge $-1 -1 $-1 $352 $293 $295 $349 forward $253 $-1 #
coedge $-1 -1 $-1 $295 $256 $286 $338 forward $234 $-1 #
DXID-attrib $-1 -1 $-1 $-1 $257 @10 ASM ENTITY @36 77150ac9-10f1-4d5b-81b4-a27a13c6b540 #
vertex $-1 -1 $-1 $287 $353 #
straight-curve $-1 -1 $-1 22.50000000000003197 5.000000000000060396 22.49999999999998579 -3.629197509083670551e-15 -1.776356839400252042e-14 -10 F 0 F 4.5 #
coedge $-1 -1 $-1 $333 $267 $270 $326 forward $259 $-1 #
coedge $-1 -1 $-1 $331 $261 $263 $315 forward $210 $-1 #
coedge $-1 -1 $-1 $261 $331 $333 $354 reversed $210 $-1 #
coedge $-1 -1 $-1 $270 $264 $261 $313 reversed $230 $-1 #
edge $355 -1 $-1 $356 0 $317 6 $261 $357 forward @7 unknown #
coedge $-1 -1 $-1 $263 $262 $330 $358 reversed $164 $-1 #
edge $359 -1 $-1 $317 0 $360 0.5 $310 $361 forward @7 unknown #
DXID-attrib $-1 -1 $-1 $-1 $265 @10 ASM ENTITY @36 1d16d703-39d5-40a6-aa86-2f63dba19112 #
vertex $-1 -1 $-1 $265 $362 #
straight-curve $-1 -1 $-1 -30.00000000000002842 -1.307148265015223543e-13 -49.99999999999997158 5.107025913275701153e-15 2.081389478210373209e-14 10 F 0 F 9.999999999999998224 #
edge $363 -1 $-1 $324 0 $321 5.999999999999999112 $266 $364 forward @7 unknown #
DXID-attrib $-1 -1 $-1 $-1 $268 @10 ASM ENTITY @36 e5a3557e-4da7-4b76-b4b5-5abf3a3ae586 #
vertex $-1 -1 $-1 $268 $365 #
straight-curve $-1 -1 $-1 30.00000000000001776 1.307148265015223796e-13 49.99999999999999289 -8.881784197001246013e-15 10 -2.081389478210372894e-14 I I #
DXID-attrib $-1 -1 $-1 $-1 $269 @10 ASM ENTITY @36 c4340bee-d622-43ba-aba3-a66820dc3f33 #
vertex $-1 -1 $-1 $319 $366 #
straight-curve $-1 -1 $-1 -29.99999999999997158 7.742412131951495399e-14 50.00000000000000711 -8.881784197001246013e-15 10 -2.081389478210372894e-14 I I #
edge $367 -1 $-1 $273 0 $356 10 $309 $368 forward @7 unknown #
point $-1 -1 $-1 -29.99999999999997158 7.742412131951495399e-14 50.00000000000000711 #
point $-1 -1 $-1 30.00000000000001776 1.307148265015223796e-13 49.99999999999999289 #
point $-1 -1 $-1 -22.50000000000002132 -1.032395935716677082e-13 -39.99999999999997868 #
coedge $-1 -1 $-1 $282 $281 $314 $358 forward $184 $-1 #
coedge $-1 -1 $-1 $311 $310 $281 $332 reversed $210 $-1 #
edge $369 -1 $-1 $335 0 $360 6 $331 $370 forward @7 unknown #
coedge $-1 -1 $-1 $283 $309 $311 $354 forward $259 $-1 #
DXID-attrib $-1 -1 $-1 $-1 $284 @10 ASM ENTITY @36 9eb010d6-9342-43f6-b470-730e0a140e1e #
vertex $-1 -1 $-1 $332 $371 #
straight-curve $-1 -1 $-1 30.00000000000001421 5.00000000000013145 49.99999999999998579 -4.218847493575575132e-15 -2.081389478210373209e-14 -10 I I #
coedge $-1 -1 $-1 $286 $285 $352 $372 reversed $188 $-1 #
edge $373 -1 $-1 $307 0 $374 7 $305 $375 forward @7 unknown #
DXID-attrib $-1 -1 $-1 $-1 $287 @10 ASM ENTITY @36 09b55435-a507-4de9-ac29-45ad24dbd894 #
straight-curve $-1 -1 $-1 22.50000000000001776 4.99999999999998046 -22.50000000000001421 -10 -1.332267629550187217e-14 3.629197509083694217e-15 F 0 F 4.5 #
coedge $-1 -1 $-1 $293 $352 $288 $342 forward $253 $-1 #
edge $376 -1 $-1 $344 0 $300 4.5 $288 $377 forward @7 unknown #
DXID-attrib $-1 -1 $-1 $-1 $289 @10 ASM ENTITY @36 0a75a46c-5ba6-4043-9de3-1a4a9c4992cb #
vertex $-1 -1 $-1 $342 $378 #
straight-curve $-1 -1 $-1 -22.49999999999998224 4.999999999999920064 -22.5 -1.332267629550187849e-14 10 -1.776356839400251727e-14 I I #
point $-1 -1 $-1 -22.49999999999998224 4.999999999999920064 -22.5 #
DXID-attrib $-1 -1 $-1 $-1 $294 @10 ASM ENTITY @36 bc256482-2615-4d26-93b9-18ef258cf1a3 #
straight-curve $-1 -1 $-1 -22.5000000000000604 75 22.49999999999987921 10 1.332267629550187217e-14 -3.629197509083694217e-15 I I #
edge $379 -1 $-1 $297 0 $374 4.5 $295 $380 forward @7 unknown #
point $-1 -1 $-1 22.4999999999999396 75.00000000000005684 22.49999999999985789 #
point $-1 -1 $-1 -22.5000000000000604 75 22.49999999999987921 #
coedge $-1 -1 $-1 $341 $304 $337 $372 forward $253 $-1 #
point $-1 -1 $-1 22.50000000000001776 4.99999999999998046 -22.50000000000001421 #
edge $381 -1 $-1 $356 0 $335 0.5 $333 $382 forward @7 unknown #
DXID-attrib $-1 -1 $-1 $-1 $313 @10 ASM ENTITY @36 4b3a7148-8cec-4f38-a65c-44097747d094 #
vertex $-1 -1 $-1 $313 $383 #
straight-curve $-1 -1 $-1 29.99999999999997158 -7.742412131951495399e-14 -50.00000000000000711 -10 -8.881784197001233391e-15 6.291263806209218555e-15 F 0 F 6 #
edge $384 -1 $-1 $360 0 $324 9.999999999999998224 $314 $385 forward @7 unknown #
DXID-attrib $-1 -1 $-1 $-1 $315 @10 ASM ENTITY @36 7ce59334-a1a6-4f86-9a49-ed4a1d22a51b #
vertex $-1 -1 $-1 $358 $386 #
straight-curve $-1 -1 $-1 -30.00000000000002842 -1.307148265015223543e-13 -49.99999999999997158 -8.881784197001246013e-15 10 -2.081389478210372894e-14 I I #
point $-1 -1 $-1 -30.00000000000002842 -1.307148265015223543e-13 -49.99999999999997158 #
DXID-attrib $-1 -1 $-1 $-1 $319 @10 ASM ENTITY @36 e593bf90-5eee-424d-87ac-d4763368f274 #
straight-curve $-1 -1 $-1 -29.99999999999997868 5.00000000000007816 50 10 8.881784197001239702e-15 -3.330669073875468044e-15 I I #
point $-1 -1 $-1 30.00000000000001421 5.00000000000013145 49.99999999999998579 #
point $-1 -1 $-1 -29.99999999999997868 5.00000000000007816 50 #
DXID-attrib $-1 -1 $-1 $-1 $326 @10 ASM ENTITY @36 a45fa4e8-98fa-496f-8bd5-6bdd12bf418d #
straight-curve $-1 -1 $-1 30.00000000000001776 1.307148265015223796e-13 49.99999999999999289 -4.218847493575575132e-15 -2.081389478210373209e-14 -10 F 0 F 10 #
DXID-attrib $-1 -1 $-1 $-1 $332 @10 ASM ENTITY @36 7ef6f3e9-5bdc-4493-913a-a10995223ab8 #
straight-curve $-1 -1 $-1 29.99999999999996803 4.999999999999922728 -50.00000000000001421 -10 -8.881784197001233391e-15 6.291263806209218555e-15 I I #
point $-1 -1 $-1 29.99999999999996803 4.999999999999922728 -50.00000000000001421 #
edge $387 -1 $-1 $374 0 $344 4.5 $337 $388 forward @7 unknown #
DXID-attrib $-1 -1 $-1 $-1 $338 @10 ASM ENTITY @36 f242d6f2-a770-465b-b5cc-13137029ca3e #
vertex $-1 -1 $-1 $372 $389 #
straight-curve $-1 -1 $-1 22.50000000000001776 4.99999999999998046 -22.50000000000001421 -1.332267629550187849e-14 10 -1.776356839400251727e-14 I I #
DXID-attrib $-1 -1 $-1 $-1 $342 @10 ASM ENTITY @36 18d57cbb-4aa8-4e8f-b955-fa7499e16b06 #
straight-curve $-1 -1 $-1 -22.50000000000007816 74.99999999999991473 -22.50000000000012079 3.629197509083670551e-15 1.776356839400252042e-14 10 I I #
point $-1 -1 $-1 -22.50000000000007816 74.99999999999991473 -22.50000000000012079 #
DXID-attrib $-1 -1 $-1 $-1 $349 @10 ASM ENTITY @36 62b9891d-d6cb-4ef2-bba1-f571ae70de27 #
straight-curve $-1 -1 $-1 22.4999999999999396 75.00000000000005684 22.49999999999985789 -3.629197509083670551e-15 -1.776356839400252042e-14 -10 I I #
DXID-attrib $-1 -1 $-1 $-1 $354 @10 ASM ENTITY @36 15224f10-4f28-43d2-a598-f4c98738cb1b #
straight-curve $-1 -1 $-1 29.99999999999997158 -7.742412131951495399e-14 -50.00000000000000711 -8.881784197001246013e-15 10 -2.081389478210372894e-14 I I #
point $-1 -1 $-1 29.99999999999997158 -7.742412131951495399e-14 -50.00000000000000711 #
DXID-attrib $-1 -1 $-1 $-1 $358 @10 ASM ENTITY @36 b53ec172-5c27-493b-85f6-25820d0b3444 #
straight-curve $-1 -1 $-1 -30.00000000000003197 4.999999999999869438 -49.99999999999998579 5.107025913275701153e-15 2.081389478210373209e-14 10 I I #
point $-1 -1 $-1 -30.00000000000003197 4.999999999999869438 -49.99999999999998579 #
DXID-attrib $-1 -1 $-1 $-1 $372 @10 ASM ENTITY @36 df241f0b-5e8b-4ba9-8e7d-7fae89d17f22 #
straight-curve $-1 -1 $-1 22.49999999999992184 74.99999999999997158 -22.50000000000014211 -10 -1.332267629550187217e-14 3.629197509083694217e-15 I I #
point $-1 -1 $-1 22.49999999999992184 74.99999999999997158 -22.50000000000014211 #
End-of-ACIS-data 