700 0 2 0           
30 Autodesk Translation Framework 20 ASM 228.3.1.65535 NT 24 Mon May  1 19:32:03 2023 
1 9.999999999999999547e-07 1.000000000000000036e-10 
body $2 -1 $-1 $3 $-1 $4 #
body $5 -1 $-1 $6 $-1 $7 #
rgb_color-st-attrib $-1 -1 $8 $-1 $0 0.7450980392156862919 0.737254901960784359 0.7294117647058823151 #
lump $-1 -1 $-1 $-1 $9 $0 #
transform $-1 -1 1 0 0 0 1 0 0 0 1 0 0 0 1 no_rotate no_reflect no_shear #
rgb_color-st-attrib $-1 -1 $10 $-1 $1 0.7450980392156862919 0.737254901960784359 0.7294117647058823151 #
lump $-1 -1 $-1 $-1 $11 $1 #
transform $-1 -1 1 0 0 0 1 0 0 0 1 0 0 0 1 no_rotate no_reflect no_shear #
DXID-attrib $-1 -1 $-1 $2 $0 @10 ASM ENTITY @107 SQUARE_PROFILE_H2.IPT|:|0795B9D8FD5446AB9EF64EE0354186194CDEF64C|:|DA4B9237BACCCDF19C0760CAB7AEC4A8359010B0 #
shell $-1 -1 $-1 $-1 $-1 $12 $-1 $3 #
DXID-attrib $-1 -1 $-1 $5 $1 @10 ASM ENTITY @116 STEEL_PLATE_L2_COUNTERSINK.IPT|:|34731630547C04AE8473BD8BBABC7AC003727525|:|DA4B9237BACCCDF19C0760CAB7AEC4A8359010B0 #
shell $-1 -1 $-1 $-1 $-1 $13 $-1 $6 #
face $14 -1 $-1 $15 $16 $9 $-1 $17 forward single #
face $18 -1 $-1 $19 $20 $11 $-1 $21 forward single #
DXID-attrib $-1 -1 $-1 $-1 $12 @10 ASM ENTITY @36 a00a6962-97f3-491e-b5dc-5b7482290331 #
face $22 -1 $-1 $23 $24 $9 $-1 $25 forward single #
loop $-1 -1 $-1 $-1 $26 $12 #
plane-surface $-1 -1 $-1 19.50000000000001066 5.000000000000000888 19.50000000000002842 5.412395276691368666e-31 -3.659293507942681333e-16 -1 -10 3.330669073875469621e-15 -6.631184848605165257e-30 forward_v I I I I #
DXID-attrib $-1 -1 $-1 $-1 $13 @10 ASM ENTITY @36 a506b772-ca37-4032-a396-5e42e87fa5b6 #
face $27 -1 $-1 $28 $29 $11 $-1 $30 forward single #
loop $-1 -1 $-1 $31 $32 $13 #
cone-surface $-1 -1 $-1 19.99999999999999289 3.65000000000001501 -39.99999999999999289 -2.054193592485897957e-46 1 3.795350279260529855e-16 3.600000000000000533 -3.407506073850134503e-46 2.846272995098650301e-30 1 I I -0.6316729511622359849 -0.775234985517288977 3.600000000000000533 forward I I I I #
DXID-attrib $-1 -1 $-1 $-1 $15 @10 ASM ENTITY @36 f0e42b73-87d3-4d29-98f5-d80bf0350434 #
face $33 -1 $-1 $34 $35 $9 $-1 $36 forward single #
loop $-1 -1 $-1 $-1 $37 $15 #
plane-surface $-1 -1 $-1 19.50000000000001066 4.999999999999986677 -19.49999999999997158 -1 3.330669073875469621e-16 -6.631184848605165608e-31 -5.41239527669136849e-30 3.659293507942681235e-15 10 forward_v I I I I #
coedge $-1 -1 $-1 $38 $39 $40 $41 forward $16 $-1 #
DXID-attrib $-1 -1 $-1 $-1 $19 @10 ASM ENTITY @36 8ee72520-02cd-4870-ac59-fe66965cfdb5 #
face $42 -1 $-1 $43 $44 $11 $-1 $45 forward single #
loop $-1 -1 $-1 $46 $47 $19 #
plane-surface $-1 -1 $-1 -4.440892098500626162e-15 5 1.897675139630265026e-15 -2.054193592485897957e-46 1 3.795350279260529855e-16 -7.906313875274027486e-30 -3.795350279260530052e-15 10 forward_v I I I I #
loop $-1 -1 $-1 $-1 $48 $13 #
coedge $-1 -1 $-1 $32 $32 $49 $50 forward $20 $-1 #
DXID-attrib $-1 -1 $-1 $-1 $23 @10 ASM ENTITY @36 50e0e5fc-7f08-4881-a767-00170a0fe5b8 #
face $51 -1 $-1 $52 $53 $9 $-1 $54 forward single #
loop $-1 -1 $-1 $-1 $55 $23 #
plane-surface $-1 -1 $-1 -19.49999999999998934 4.999999999999999112 -19.49999999999997158 -5.412395276691368666e-31 3.659293507942681333e-16 1 10 -3.330669073875469621e-15 6.631184848605165257e-30 forward_v I I I I #
coedge $-1 -1 $-1 $56 $57 $58 $59 forward $24 $-1 #
coedge $-1 -1 $-1 $60 $26 $61 $62 forward $16 $-1 #
coedge $-1 -1 $-1 $26 $60 $56 $63 reversed $16 $-1 #
coedge $-1 -1 $-1 $58 $64 $26 $41 reversed $65 $-1 #
edge $66 -1 $-1 $67 -0 $68 3.900000000000000355 $26 $69 forward @7 unknown #
DXID-attrib $-1 -1 $-1 $-1 $28 @10 ASM ENTITY @36 b3e2fab0-d0ff-4146-af45-d215b9568275 #
face $70 -1 $-1 $71 $72 $11 $-1 $73 forward single #
loop $-1 -1 $-1 $74 $75 $28 #
cone-surface $-1 -1 $-1 19.99999999999999289 1.518140111704211705e-14 -39.99999999999999289 -2.054193592485897957e-46 1 3.795350279260529855e-16 2.499999999999999556 -2.366323662395926079e-46 1.976578468818506521e-30 1 I I 0 -1 2.499999999999999556 forward I I I I #
loop $-1 -1 $-1 $76 $77 $19 #
coedge $-1 -1 $-1 $47 $47 $78 $79 reversed $29 $-1 #
coedge $-1 -1 $-1 $48 $48 $80 $81 forward $31 $-1 #
coedge $-1 -1 $-1 $49 $49 $32 $50 reversed $74 $-1 #
edge $-1 -1 $-1 $82 -3.141592653589793116 $82 3.141592653589793116 $49 $83 forward @7 unknown #
DXID-attrib $-1 -1 $-1 $-1 $34 @10 ASM ENTITY @36 1d3f4517-1f46-4717-a601-c5525cbe21cc #
face $84 -1 $-1 $85 $86 $9 $-1 $87 forward single #
loop $-1 -1 $-1 $-1 $88 $34 #
plane-surface $-1 -1 $-1 -19.49999999999998934 5.000000000000013323 19.50000000000002842 1 -3.330669073875469621e-16 6.631184848605165608e-31 5.41239527669136849e-30 -3.659293507942681235e-15 -10 forward_v I I I I #
coedge $-1 -1 $-1 $89 $90 $91 $92 forward $35 $-1 #
coedge $-1 -1 $-1 $93 $37 $39 $63 forward $24 $-1 #
coedge $-1 -1 $-1 $37 $93 $89 $94 reversed $24 $-1 #
coedge $-1 -1 $-1 $91 $40 $37 $59 reversed $65 $-1 #
edge $95 -1 $-1 $96 0 $67 3.900000000000000355 $37 $97 forward @7 unknown #
coedge $-1 -1 $-1 $39 $38 $98 $99 reversed $16 $-1 #
coedge $-1 -1 $-1 $88 $100 $38 $62 reversed $53 $-1 #
edge $101 -1 $-1 $68 0 $102 7 $61 $103 forward @7 unknown #
edge $104 -1 $-1 $67 0 $105 7 $56 $106 forward @7 unknown #
coedge $-1 -1 $-1 $40 $91 $88 $107 reversed $65 $-1 #
loop $-1 -1 $-1 $-1 $64 $108 #
DXID-attrib $-1 -1 $-1 $-1 $41 @10 ASM ENTITY @36 a74ee986-4db1-4301-9e99-5fe2eb267111 #
vertex $-1 -1 $-1 $41 $109 #
vertex $-1 -1 $-1 $41 $110 #
straight-curve $-1 -1 $-1 19.50000000000001066 5.000000000000000888 19.50000000000002842 -10 3.330669073875469621e-15 -6.631184848605165257e-30 F -0 F 3.900000000000000355 #
DXID-attrib $-1 -1 $-1 $-1 $43 @10 ASM ENTITY @36 0d826d73-3f98-40ca-8836-5dbb79c1fee8 #
face $111 -1 $-1 $112 $113 $11 $-1 $114 forward single #
loop $-1 -1 $-1 $115 $116 $43 #
cone-surface $-1 -1 $-1 -20.00000000000000711 3.65000000000001501 -39.99999999999998579 -2.054193592485897957e-46 1 3.795350279260529855e-16 3.599999999999999201 -3.407506073850133337e-46 2.846272995098649601e-30 1 I I -0.6316729511622356519 -0.7752349855172894211 3.599999999999999201 forward I I I I #
loop $-1 -1 $-1 $-1 $49 $28 #
coedge $-1 -1 $-1 $75 $75 $117 $118 forward $44 $-1 #
loop $-1 -1 $-1 $119 $120 $19 #
coedge $-1 -1 $-1 $77 $77 $121 $122 reversed $46 $-1 #
coedge $-1 -1 $-1 $78 $78 $47 $79 forward $115 $-1 #
edge $-1 -1 $-1 $123 -3.141592653589793116 $123 3.141592653589793116 $47 $124 forward @7 unknown #
coedge $-1 -1 $-1 $80 $80 $48 $81 reversed $125 $-1 #
edge $-1 -1 $-1 $126 -3.141592653589793116 $126 3.141592653589793116 $80 $127 forward @7 unknown #
vertex $-1 -1 $-1 $50 $128 #
ellipse-curve $-1 -1 $-1 19.99999999999999289 2.300000000000014921 -39.99999999999999289 2.054193592485897957e-46 -1 -3.795350279260529855e-16 2.499999999999999556 -2.366323662395926079e-46 1.976578468818506521e-30 1 I I #
DXID-attrib $-1 -1 $-1 $-1 $52 @10 ASM ENTITY @36 b10f851b-285f-4977-a0cf-14ccbce31964 #
face $129 -1 $-1 $130 $131 $9 $-1 $132 forward single #
loop $-1 -1 $-1 $-1 $133 $52 #
plane-surface $-1 -1 $-1 -22.49999999999998934 5.000000000000015987 22.50000000000002842 -5.412395276691368666e-31 3.659293507942681333e-16 1 10 -3.330669073875469621e-15 6.631184848605165257e-30 forward_v I I I I #
coedge $-1 -1 $-1 $134 $61 $64 $107 forward $53 $-1 #
coedge $-1 -1 $-1 $135 $55 $57 $94 forward $35 $-1 #
coedge $-1 -1 $-1 $55 $135 $134 $136 reversed $35 $-1 #
coedge $-1 -1 $-1 $64 $58 $55 $92 reversed $65 $-1 #
edge $137 -1 $-1 $138 0 $96 3.900000000000000355 $55 $139 forward @7 unknown #
coedge $-1 -1 $-1 $57 $56 $140 $141 reversed $24 $-1 #
edge $142 -1 $-1 $96 0 $143 7 $89 $144 forward @7 unknown #
DXID-attrib $-1 -1 $-1 $-1 $59 @10 ASM ENTITY @36 2a0d3df6-38b0-4fbd-9647-168b1175c8e3 #
vertex $-1 -1 $-1 $59 $145 #
straight-curve $-1 -1 $-1 19.50000000000001066 4.999999999999986677 -19.49999999999997158 -5.41239527669136849e-30 3.659293507942681235e-15 10 F 0 F 3.900000000000000355 #
coedge $-1 -1 $-1 $146 $140 $60 $99 forward $147 $-1 #
edge $148 -1 $-1 $105 -0 $102 3.900000000000000355 $60 $149 forward @7 unknown #
coedge $-1 -1 $-1 $61 $134 $146 $150 reversed $53 $-1 #
DXID-attrib $-1 -1 $-1 $-1 $62 @10 ASM ENTITY @36 fb923523-a18d-436b-8655-981629057c61 #
vertex $-1 -1 $-1 $62 $151 #
straight-curve $-1 -1 $-1 -19.49999999999998934 5.000000000000013323 19.50000000000002842 3.330669073875469621e-15 10 -3.659293507942681235e-15 I I #
DXID-attrib $-1 -1 $-1 $-1 $63 @10 ASM ENTITY @36 18c46ea0-4cff-4100-b7a4-e1c913c78fd5 #
vertex $-1 -1 $-1 $99 $152 #
straight-curve $-1 -1 $-1 19.50000000000001066 5.000000000000000888 19.50000000000002842 3.330669073875469621e-15 10 -3.659293507942681235e-15 I I #
edge $153 -1 $-1 $68 -0 $138 3.900000000000000355 $88 $154 forward @7 unknown #
face $155 -1 $-1 $-1 $156 $9 $-1 $157 reversed single #
point $-1 -1 $-1 19.50000000000001066 5.000000000000000888 19.50000000000002842 #
point $-1 -1 $-1 -19.49999999999998934 5.000000000000013323 19.50000000000002842 #
DXID-attrib $-1 -1 $-1 $-1 $71 @10 ASM ENTITY @36 b9d90b9a-bd0e-4854-837c-732cd756b24a #
face $158 -1 $-1 $159 $160 $11 $-1 $161 forward single #
loop $-1 -1 $-1 $162 $163 $71 #
cone-surface $-1 -1 $-1 -20.00000000000000711 1.51814011170421139e-14 -39.99999999999998579 -2.054193592485897957e-46 1 3.795350279260529855e-16 2.499999999999999556 -2.366323662395926079e-46 1.976578468818506521e-30 1 I I 0 -1 2.499999999999999556 forward I I I I #
loop $-1 -1 $-1 $-1 $78 $43 #
coedge $-1 -1 $-1 $116 $116 $164 $165 forward $72 $-1 #
coedge $-1 -1 $-1 $117 $117 $75 $118 reversed $166 $-1 #
edge $167 -1 $-1 $168 -3.141592653589793116 $168 3.141592653589793116 $75 $169 forward @7 unknown #
loop $-1 -1 $-1 $125 $170 $19 #
coedge $-1 -1 $-1 $171 $172 $173 $174 forward $76 $-1 #
coedge $-1 -1 $-1 $121 $121 $77 $122 forward $175 $-1 #
edge $-1 -1 $-1 $176 -3.141592653589793116 $176 3.141592653589793116 $77 $177 forward @7 unknown #
vertex $-1 -1 $-1 $79 $178 #
ellipse-curve $-1 -1 $-1 -20.00000000000000711 5.000000000000015987 -39.99999999999998579 -2.054193592485897957e-46 1 3.795350279260529855e-16 4.699999999999999289 -4.448688485304340983e-46 3.71596752137879233e-30 1 I I #
loop $-1 -1 $-1 $-1 $80 $19 #
vertex $-1 -1 $-1 $81 $179 #
ellipse-curve $-1 -1 $-1 19.99999999999999289 5.000000000000015987 -39.99999999999999289 -2.054193592485897957e-46 1 3.795350279260529855e-16 4.700000000000001066 -4.448688485304343316e-46 3.715967521378794432e-30 1 I I #
point $-1 -1 $-1 17.49999999999999289 2.300000000000014921 -39.99999999999999289 #
DXID-attrib $-1 -1 $-1 $-1 $85 @10 ASM ENTITY @36 cfdf99d1-3b53-412f-8cbd-4936b7c0a0b4 #
face $180 -1 $-1 $181 $182 $9 $-1 $183 forward single #
loop $-1 -1 $-1 $-1 $184 $85 #
plane-surface $-1 -1 $-1 -22.49999999999998934 4.999999999999999112 -22.49999999999997158 -1 3.330669073875469621e-16 -6.631184848605165608e-31 -5.41239527669136849e-30 3.659293507942681235e-15 10 forward_v I I I I #
coedge $-1 -1 $-1 $185 $186 $187 $188 forward $86 $-1 #
coedge $-1 -1 $-1 $100 $88 $90 $136 forward $53 $-1 #
coedge $-1 -1 $-1 $90 $89 $189 $190 reversed $35 $-1 #
edge $191 -1 $-1 $138 0 $192 7 $134 $193 forward @7 unknown #
DXID-attrib $-1 -1 $-1 $-1 $92 @10 ASM ENTITY @36 e7d8d127-6bd2-4537-af88-510cfebf998a #
vertex $-1 -1 $-1 $92 $194 #
straight-curve $-1 -1 $-1 -19.49999999999998934 4.999999999999999112 -19.49999999999997158 10 -3.330669073875469621e-15 6.631184848605165257e-30 F 0 F 3.900000000000000355 #
coedge $-1 -1 $-1 $98 $189 $93 $141 forward $147 $-1 #
edge $195 -1 $-1 $143 0 $105 3.900000000000000355 $93 $196 forward @7 unknown #
DXID-attrib $-1 -1 $-1 $-1 $94 @10 ASM ENTITY @36 8dddac36-2124-4930-b929-e0e2edc1e9e6 #
vertex $-1 -1 $-1 $141 $197 #
straight-curve $-1 -1 $-1 19.50000000000001066 4.999999999999986677 -19.49999999999997158 3.330669073875469621e-15 10 -3.659293507942681235e-15 I I #
point $-1 -1 $-1 19.50000000000001066 4.999999999999986677 -19.49999999999997158 #
coedge $-1 -1 $-1 $189 $98 $100 $150 forward $147 $-1 #
loop $-1 -1 $-1 $-1 $146 $198 #
DXID-attrib $-1 -1 $-1 $-1 $99 @10 ASM ENTITY @36 5ba1f882-ed92-416a-8617-51467a6536be #
straight-curve $-1 -1 $-1 19.50000000000003553 75 19.50000000000000355 -10 3.330669073875469621e-15 -6.631184848605165257e-30 I I #
edge $199 -1 $-1 $102 -0 $192 3.900000000000000355 $100 $200 forward @7 unknown #
point $-1 -1 $-1 -19.49999999999996803 75.00000000000001421 19.50000000000000355 #
point $-1 -1 $-1 19.50000000000003553 75 19.50000000000000355 #
DXID-attrib $-1 -1 $-1 $-1 $107 @10 ASM ENTITY @36 7b824b1d-3154-4ca4-9466-f5cfbf6607dd #
straight-curve $-1 -1 $-1 -19.49999999999998934 5.000000000000013323 19.50000000000002842 5.41239527669136849e-30 -3.659293507942681235e-15 -10 F -0 F 3.900000000000000355 #
DXID-attrib $-1 -1 $-1 $-1 $108 @10 ASM ENTITY @36 3e03fd01-cbe0-4c8c-b00a-f9cfdf55df90 #
loop $-1 -1 $-1 $65 $201 $108 #
plane-surface $-1 -1 $-1 8.88178419700126179e-15 5 2.664535259100376328e-14 3.330669073875469621e-16 1 -3.659293507942681333e-16 -5.41239527669136849e-30 3.659293507942681235e-15 10 forward_v I I I I #
DXID-attrib $-1 -1 $-1 $-1 $112 @10 ASM ENTITY @36 f320e5a4-1270-4d19-906f-89e0a8a126e2 #
face $202 -1 $-1 $203 $204 $11 $-1 $205 forward single #
loop $-1 -1 $-1 $206 $207 $112 #
cone-surface $-1 -1 $-1 20.00000000000000355 3.649999999999984812 40 -2.054193592485897957e-46 1 3.795350279260529855e-16 3.600000000000000533 -3.407506073850134503e-46 2.846272995098650301e-30 1 I I -0.6316729511622359849 -0.775234985517288977 3.600000000000000533 forward I I I I #
loop $-1 -1 $-1 $-1 $164 $71 #
coedge $-1 -1 $-1 $163 $163 $208 $209 forward $113 $-1 #
coedge $-1 -1 $-1 $164 $164 $116 $165 reversed $162 $-1 #
edge $-1 -1 $-1 $210 -3.141592653589793116 $210 3.141592653589793116 $164 $211 forward @7 unknown #
loop $-1 -1 $-1 $212 $117 $213 #
DXID-attrib $-1 -1 $-1 $-1 $118 @10 ASM ENTITY @36 04aca0ad-1622-477d-bee0-9dd30be7c2b5 #
vertex $-1 -1 $-1 $118 $214 #
ellipse-curve $-1 -1 $-1 19.99999999999999289 1.518140111704211705e-14 -39.99999999999999289 2.054193592485897957e-46 -1 -3.795350279260529855e-16 2.499999999999999556 -2.366323662395926079e-46 1.976578468818506521e-30 1 I I #
coedge $-1 -1 $-1 $170 $170 $215 $216 reversed $119 $-1 #
coedge $-1 -1 $-1 $217 $120 $218 $219 forward $76 $-1 #
coedge $-1 -1 $-1 $120 $217 $220 $221 forward $76 $-1 #
coedge $-1 -1 $-1 $222 $223 $120 $174 reversed $224 $-1 #
edge $225 -1 $-1 $226 0 $227 10 $173 $228 forward @7 unknown #
loop $-1 -1 $-1 $-1 $121 $203 #
vertex $-1 -1 $-1 $122 $229 #
ellipse-curve $-1 -1 $-1 -19.99999999999999289 4.999999999999984901 40.00000000000001421 -2.054193592485897957e-46 1 3.795350279260529855e-16 4.699999999999999289 -4.448688485304340983e-46 3.71596752137879233e-30 1 I I #
point $-1 -1 $-1 -24.70000000000000639 5.000000000000015987 -39.99999999999998579 #
point $-1 -1 $-1 15.29999999999999005 5.000000000000015987 -39.99999999999999289 #
DXID-attrib $-1 -1 $-1 $-1 $130 @10 ASM ENTITY @36 1f1604ec-4193-4403-ad52-d0b2323a9eae #
face $230 -1 $-1 $198 $231 $9 $-1 $232 forward single #
loop $-1 -1 $-1 $-1 $233 $130 #
plane-surface $-1 -1 $-1 22.50000000000001066 4.999999999999984013 -22.49999999999997158 5.412395276691368666e-31 -3.659293507942681333e-16 -1 -10 3.330669073875469621e-15 -6.631184848605165257e-30 forward_v I I I I #
coedge $-1 -1 $-1 $234 $235 $236 $237 forward $131 $-1 #
coedge $-1 -1 $-1 $238 $133 $239 $240 forward $86 $-1 #
coedge $-1 -1 $-1 $133 $238 $234 $241 reversed $86 $-1 #
coedge $-1 -1 $-1 $236 $201 $133 $188 reversed $156 $-1 #
edge $242 -1 $-1 $243 0 $244 4.5 $133 $245 forward @7 unknown #
coedge $-1 -1 $-1 $140 $146 $135 $190 forward $147 $-1 #
edge $246 -1 $-1 $192 0 $143 3.900000000000000355 $135 $247 forward @7 unknown #
DXID-attrib $-1 -1 $-1 $-1 $136 @10 ASM ENTITY @36 63c24b2e-ec11-4bae-ade3-1d00d20ef537 #
vertex $-1 -1 $-1 $190 $248 #
straight-curve $-1 -1 $-1 -19.49999999999998934 4.999999999999999112 -19.49999999999997158 3.330669073875469621e-15 10 -3.659293507942681235e-15 I I #
point $-1 -1 $-1 -19.49999999999998934 4.999999999999999112 -19.49999999999997158 #
DXID-attrib $-1 -1 $-1 $-1 $141 @10 ASM ENTITY @36 4193d3e1-4d59-4af6-a4f4-580b1e1af1e4 #
straight-curve $-1 -1 $-1 19.50000000000003553 74.99999999999998579 -19.5 -5.41239527669136849e-30 3.659293507942681235e-15 10 I I #
point $-1 -1 $-1 19.50000000000003553 74.99999999999998579 -19.5 #
face $249 -1 $-1 $108 $250 $9 $-1 $251 forward single #
DXID-attrib $-1 -1 $-1 $-1 $150 @10 ASM ENTITY @36 6b242fd4-afb2-4f14-bad1-8db77e232012 #
straight-curve $-1 -1 $-1 -19.49999999999996803 75.00000000000001421 19.50000000000000355 5.41239527669136849e-30 -3.659293507942681235e-15 -10 I I #
coedge $-1 -1 $-1 $187 $252 $253 $254 reversed $156 $-1 #
DXID-attrib $-1 -1 $-1 $-1 $159 @10 ASM ENTITY @36 a4d353e9-b052-4218-a22c-e5973fb519dd #
face $255 -1 $-1 $256 $257 $11 $-1 $258 forward single #
loop $-1 -1 $-1 $259 $260 $159 #
cone-surface $-1 -1 $-1 20.00000000000000355 -1.518140111704212021e-14 40 -2.054193592485897957e-46 1 3.795350279260529855e-16 2.499999999999999556 -2.366323662395926079e-46 1.976578468818506521e-30 1 I I 0 -1 2.499999999999999556 forward I I I I #
loop $-1 -1 $-1 $-1 $215 $112 #
coedge $-1 -1 $-1 $207 $207 $261 $262 forward $160 $-1 #
coedge $-1 -1 $-1 $208 $208 $163 $209 reversed $263 $-1 #
edge $264 -1 $-1 $265 -3.141592653589793116 $265 3.141592653589793116 $163 $266 forward @7 unknown #
vertex $-1 -1 $-1 $165 $267 #
ellipse-curve $-1 -1 $-1 -20.00000000000000711 2.300000000000014921 -39.99999999999998579 2.054193592485897957e-46 -1 -3.795350279260529855e-16 2.499999999999999556 -2.366323662395926079e-46 1.976578468818506521e-30 1 I I #
loop $-1 -1 $-1 $268 $269 $213 #
face $270 -1 $-1 $-1 $271 $11 $-1 $272 reversed single #
point $-1 -1 $-1 17.49999999999999289 1.518140111704211705e-14 -39.99999999999999289 #
coedge $-1 -1 $-1 $215 $215 $170 $216 forward $206 $-1 #
edge $-1 -1 $-1 $273 -3.141592653589793116 $273 3.141592653589793116 $170 $274 forward @7 unknown #
coedge $-1 -1 $-1 $172 $171 $275 $276 forward $76 $-1 #
coedge $-1 -1 $-1 $277 $278 $171 $219 reversed $279 $-1 #
edge $280 -1 $-1 $227 0 $281 6 $218 $282 forward @7 unknown #
coedge $-1 -1 $-1 $283 $284 $172 $221 reversed $285 $-1 #
edge $286 -1 $-1 $287 0 $226 5.999999999999999112 $220 $288 forward @7 unknown #
coedge $-1 -1 $-1 $289 $173 $284 $290 reversed $224 $-1 #
coedge $-1 -1 $-1 $173 $289 $277 $291 forward $224 $-1 #
loop $-1 -1 $-1 $-1 $289 $292 #
DXID-attrib $-1 -1 $-1 $-1 $174 @10 ASM ENTITY @36 4df94841-83fd-4413-a373-29ae35a79f2a #
vertex $-1 -1 $-1 $174 $293 #
vertex $-1 -1 $-1 $174 $294 #
straight-curve $-1 -1 $-1 30 4.999999999999981348 50 -8.881784197001173437e-16 3.795350279260530052e-15 -10 I I #
point $-1 -1 $-1 -24.69999999999999218 4.999999999999984901 40.00000000000001421 #
DXID-attrib $-1 -1 $-1 $-1 $181 @10 ASM ENTITY @36 9382dd6a-5574-4756-9911-3cdceb1f1123 #
loop $-1 -1 $-1 $-1 $253 $181 #
plane-surface $-1 -1 $-1 22.50000000000001066 5.000000000000000888 22.50000000000002842 1 -3.330669073875469621e-16 6.631184848605165608e-31 5.41239527669136849e-30 -3.659293507942681235e-15 -10 forward_v I I I I #
coedge $-1 -1 $-1 $295 $296 $252 $297 forward $182 $-1 #
coedge $-1 -1 $-1 $298 $184 $186 $241 forward $131 $-1 #
coedge $-1 -1 $-1 $184 $298 $295 $299 reversed $131 $-1 #
coedge $-1 -1 $-1 $252 $187 $184 $237 reversed $156 $-1 #
edge $300 -1 $-1 $301 0 $243 4.5 $184 $302 forward @7 unknown #
coedge $-1 -1 $-1 $186 $185 $303 $304 reversed $86 $-1 #
coedge $-1 -1 $-1 $253 $305 $185 $240 reversed $231 $-1 #
edge $306 -1 $-1 $244 0 $307 7 $239 $308 forward @7 unknown #
edge $309 -1 $-1 $243 0 $310 7 $234 $311 forward @7 unknown #
DXID-attrib $-1 -1 $-1 $-1 $188 @10 ASM ENTITY @36 856df71f-65c5-440a-969c-ca94ad358872 #
vertex $-1 -1 $-1 $188 $312 #
vertex $-1 -1 $-1 $188 $313 #
straight-curve $-1 -1 $-1 -22.49999999999998934 5.000000000000015987 22.50000000000002842 10 -3.330669073875469621e-15 6.631184848605165257e-30 F 0 F 4.5 #
DXID-attrib $-1 -1 $-1 $-1 $190 @10 ASM ENTITY @36 b1ab32bf-2ece-4239-9ded-8bf450a2c6a9 #
straight-curve $-1 -1 $-1 -19.49999999999996803 75 -19.5 10 -3.330669073875469621e-15 6.631184848605165257e-30 I I #
point $-1 -1 $-1 -19.49999999999996803 75 -19.5 #
DXID-attrib $-1 -1 $-1 $-1 $198 @10 ASM ENTITY @36 e9ab675a-f711-4cb7-8a40-573a960696e9 #
loop $-1 -1 $-1 $147 $314 $198 #
plane-surface $-1 -1 $-1 3.219646771412955229e-14 75 1.030298035404995427e-15 3.330669073875469621e-16 1 -3.659293507942681333e-16 -5.41239527669136849e-30 3.659293507942681235e-15 10 forward_v I I I I #
coedge $-1 -1 $-1 $201 $236 $233 $297 reversed $156 $-1 #
coedge $-1 -1 $-1 $315 $239 $201 $254 forward $231 $-1 #
edge $316 -1 $-1 $244 0 $317 4.5 $253 $318 forward @7 unknown #
DXID-attrib $-1 -1 $-1 $-1 $203 @10 ASM ENTITY @36 a86b54af-2d33-45eb-86a6-e9a3346c6334 #
face $319 -1 $-1 $320 $321 $11 $-1 $322 forward single #
loop $-1 -1 $-1 $175 $323 $203 #
cone-surface $-1 -1 $-1 -19.99999999999999289 3.649999999999984812 40.00000000000001421 -2.054193592485897957e-46 1 3.795350279260529855e-16 3.599999999999999201 -3.407506073850133337e-46 2.846272995098649601e-30 1 I I -0.6316729511622356519 -0.7752349855172894211 3.599999999999999201 forward I I I I #
loop $-1 -1 $-1 $-1 $261 $159 #
coedge $-1 -1 $-1 $260 $260 $324 $325 forward $204 $-1 #
coedge $-1 -1 $-1 $261 $261 $207 $262 reversed $259 $-1 #
edge $-1 -1 $-1 $326 -3.141592653589793116 $326 3.141592653589793116 $261 $327 forward @7 unknown #
loop $-1 -1 $-1 $166 $208 $213 #
DXID-attrib $-1 -1 $-1 $-1 $209 @10 ASM ENTITY @36 d41bf30a-3a16-4e55-b392-0fa6544346a4 #
vertex $-1 -1 $-1 $209 $328 #
ellipse-curve $-1 -1 $-1 -20.00000000000000711 1.51814011170421139e-14 -39.99999999999998579 2.054193592485897957e-46 -1 -3.795350279260529855e-16 2.499999999999999556 -2.366323662395926079e-46 1.976578468818506521e-30 1 I I #
point $-1 -1 $-1 -22.50000000000000711 2.300000000000014921 -39.99999999999998579 #
loop $-1 -1 $-1 $-1 $324 $213 #
coedge $-1 -1 $-1 $269 $269 $329 $330 reversed $212 $-1 #
DXID-attrib $-1 -1 $-1 $-1 $213 @10 ASM ENTITY @36 f5f8287a-5333-4c1f-9cf2-3f102dc40ace #
loop $-1 -1 $-1 $263 $331 $213 #
plane-surface $-1 -1 $-1 -4.440892098500626162e-15 4.203435221931653253e-61 -3.511108681697029382e-45 -2.054193592485897957e-46 1 3.795350279260529855e-16 -7.906313875274027486e-30 -3.795350279260530052e-15 10 forward_v I I I I #
vertex $-1 -1 $-1 $216 $332 #
ellipse-curve $-1 -1 $-1 20.00000000000000355 4.999999999999984901 40 -2.054193592485897957e-46 1 3.795350279260529855e-16 4.700000000000001066 -4.448688485304343316e-46 3.715967521378794432e-30 1 I I #
coedge $-1 -1 $-1 $333 $334 $217 $276 reversed $335 $-1 #
edge $336 -1 $-1 $281 0 $287 9.999999999999998224 $275 $337 forward @7 unknown #
coedge $-1 -1 $-1 $338 $218 $223 $291 reversed $279 $-1 #
coedge $-1 -1 $-1 $218 $338 $333 $339 forward $279 $-1 #
loop $-1 -1 $-1 $-1 $338 $340 #
DXID-attrib $-1 -1 $-1 $-1 $219 @10 ASM ENTITY @36 ba4096a3-b31d-4716-8c2e-ad665e626240 #
vertex $-1 -1 $-1 $219 $341 #
straight-curve $-1 -1 $-1 29.99999999999999289 5.000000000000018652 -50 -10 -1.123649404414014355e-30 2.960594732333742623e-15 I I #
coedge $-1 -1 $-1 $342 $220 $334 $343 reversed $285 $-1 #
coedge $-1 -1 $-1 $220 $342 $222 $290 forward $285 $-1 #
loop $-1 -1 $-1 $-1 $342 $320 #
DXID-attrib $-1 -1 $-1 $-1 $221 @10 ASM ENTITY @36 6c4758c1-6968-446d-b531-09ea48c17a48 #
vertex $-1 -1 $-1 $276 $344 #
straight-curve $-1 -1 $-1 -29.99999999999999289 4.999999999999981348 50 10 -9.465294649583705873e-46 7.906313875274027486e-30 I I #
coedge $-1 -1 $-1 $223 $222 $331 $345 forward $224 $-1 #
edge $346 -1 $-1 $347 0 $226 0.5 $222 $348 forward @7 unknown #
edge $349 -1 $-1 $350 0 $227 0.5 $223 $351 forward @7 unknown #
face $352 -1 $-1 $213 $224 $11 $-1 $353 forward single #
point $-1 -1 $-1 30 4.999999999999981348 50 #
point $-1 -1 $-1 29.99999999999999289 5.000000000000018652 -50 #
coedge $-1 -1 $-1 $354 $233 $235 $299 forward $182 $-1 #
coedge $-1 -1 $-1 $233 $354 $315 $355 reversed $182 $-1 #
edge $356 -1 $-1 $317 0 $301 4.5 $233 $357 forward @7 unknown #
coedge $-1 -1 $-1 $235 $234 $358 $359 reversed $131 $-1 #
edge $360 -1 $-1 $301 0 $361 7 $295 $362 forward @7 unknown #
DXID-attrib $-1 -1 $-1 $-1 $237 @10 ASM ENTITY @36 eeacd965-030c-4a4b-bb41-c303b7591e38 #
vertex $-1 -1 $-1 $237 $363 #
straight-curve $-1 -1 $-1 -22.49999999999998934 4.999999999999999112 -22.49999999999997158 -5.41239527669136849e-30 3.659293507942681235e-15 10 F 0 F 4.5 #
coedge $-1 -1 $-1 $314 $358 $238 $304 forward $250 $-1 #
edge $364 -1 $-1 $310 0 $307 4.5 $238 $365 forward @7 unknown #
coedge $-1 -1 $-1 $239 $315 $314 $366 reversed $231 $-1 #
DXID-attrib $-1 -1 $-1 $-1 $240 @10 ASM ENTITY @36 bca5c267-a339-44e8-a275-1351a48aef51 #
vertex $-1 -1 $-1 $240 $367 #
straight-curve $-1 -1 $-1 22.50000000000001066 5.000000000000000888 22.50000000000002842 3.330669073875469621e-15 10 -3.659293507942681235e-15 I I #
DXID-attrib $-1 -1 $-1 $-1 $241 @10 ASM ENTITY @36 ae3b5655-4b93-499a-8b0b-61dff9bafb53 #
vertex $-1 -1 $-1 $304 $368 #
straight-curve $-1 -1 $-1 -22.49999999999998934 5.000000000000015987 22.50000000000002842 3.330669073875469621e-15 10 -3.659293507942681235e-15 I I #
point $-1 -1 $-1 -22.49999999999998934 5.000000000000015987 22.50000000000002842 #
point $-1 -1 $-1 22.50000000000001066 5.000000000000000888 22.50000000000002842 #
coedge $-1 -1 $-1 $369 $303 $305 $366 forward $250 $-1 #
coedge $-1 -1 $-1 $305 $253 $296 $355 forward $231 $-1 #
DXID-attrib $-1 -1 $-1 $-1 $254 @10 ASM ENTITY @36 45e5c881-50a4-4157-b29f-c1727f525c4a #
vertex $-1 -1 $-1 $297 $370 #
straight-curve $-1 -1 $-1 22.50000000000001066 5.000000000000000888 22.50000000000002842 5.41239527669136849e-30 -3.659293507942681235e-15 -10 F 0 F 4.5 #
DXID-attrib $-1 -1 $-1 $-1 $256 @10 ASM ENTITY @36 d13c45dc-b5f1-48ea-b4d4-ce17cc9bfbb3 #
face $371 -1 $-1 $372 $285 $11 $-1 $373 forward single #
loop $-1 -1 $-1 $374 $329 $256 #
cone-surface $-1 -1 $-1 -19.99999999999999289 -1.518140111704212652e-14 40.00000000000001421 -2.054193592485897957e-46 1 3.795350279260529855e-16 2.499999999999999556 -2.366323662395926079e-46 1.976578468818506521e-30 1 I I 0 -1 2.499999999999999556 forward I I I I #
coedge $-1 -1 $-1 $323 $323 $375 $376 forward $257 $-1 #
coedge $-1 -1 $-1 $324 $324 $260 $325 reversed $268 $-1 #
edge $377 -1 $-1 $378 -3.141592653589793116 $378 3.141592653589793116 $260 $379 forward @7 unknown #
vertex $-1 -1 $-1 $262 $380 #
ellipse-curve $-1 -1 $-1 20.00000000000000355 2.299999999999984723 40 2.054193592485897957e-46 -1 -3.795350279260529855e-16 2.499999999999999556 -2.366323662395926079e-46 1.976578468818506521e-30 1 I I #
point $-1 -1 $-1 -22.50000000000000711 1.51814011170421139e-14 -39.99999999999998579 #
coedge $-1 -1 $-1 $329 $329 $269 $330 forward $321 $-1 #
edge $381 -1 $-1 $382 -3.141592653589793116 $382 3.141592653589793116 $329 $383 forward @7 unknown #
coedge $-1 -1 $-1 $384 $385 $289 $345 reversed $271 $-1 #
point $-1 -1 $-1 15.30000000000000249 4.999999999999984901 40 #
coedge $-1 -1 $-1 $386 $275 $278 $339 reversed $335 $-1 #
coedge $-1 -1 $-1 $275 $386 $283 $343 forward $335 $-1 #
loop $-1 -1 $-1 $-1 $386 $372 #
DXID-attrib $-1 -1 $-1 $-1 $276 @10 ASM ENTITY @36 6dc34b17-9052-4ffd-9927-c51f31a57034 #
straight-curve $-1 -1 $-1 -30.00000000000000711 5.000000000000018652 -49.99999999999998579 1.77635683940024297e-15 -3.795350279260530052e-15 10 I I #
coedge $-1 -1 $-1 $278 $277 $385 $387 forward $279 $-1 #
edge $388 -1 $-1 $389 0 $281 0.5 $278 $390 forward @7 unknown #
face $391 -1 $-1 $292 $279 $11 $-1 $392 forward single #
point $-1 -1 $-1 -30.00000000000000711 5.000000000000018652 -49.99999999999998579 #
coedge $-1 -1 $-1 $284 $283 $384 $393 forward $285 $-1 #
edge $394 -1 $-1 $395 0 $287 0.5 $334 $396 forward @7 unknown #
point $-1 -1 $-1 -29.99999999999999289 4.999999999999981348 50 #
edge $397 -1 $-1 $347 0 $350 10 $289 $398 forward @7 unknown #
DXID-attrib $-1 -1 $-1 $-1 $290 @10 ASM ENTITY @36 59145d02-5584-4d1b-824e-d90ca36fe8fd #
vertex $-1 -1 $-1 $393 $399 #
straight-curve $-1 -1 $-1 30 -1.897675139630264947e-14 50 -2.054193592485897879e-45 10 3.795350279260530052e-15 I I #
DXID-attrib $-1 -1 $-1 $-1 $291 @10 ASM ENTITY @36 4625ed0c-5526-484c-b31f-ad48603f22d5 #
vertex $-1 -1 $-1 $387 $400 #
straight-curve $-1 -1 $-1 29.99999999999999289 1.897675139630264947e-14 -50 -2.054193592485897879e-45 10 3.795350279260530052e-15 I I #
DXID-attrib $-1 -1 $-1 $-1 $292 @10 ASM ENTITY @36 3cae5fa6-1c4c-4afa-b220-943eb8e294ca #
plane-surface $-1 -1 $-1 30 -1.897675139630264947e-14 50 1 3.370948213242037305e-32 -8.88178419700117393e-17 -8.881784197001173437e-16 3.795350279260530052e-15 -10 forward_v I I I I #
coedge $-1 -1 $-1 $296 $295 $369 $401 reversed $182 $-1 #
edge $402 -1 $-1 $317 0 $403 7 $315 $404 forward @7 unknown #
DXID-attrib $-1 -1 $-1 $-1 $297 @10 ASM ENTITY @36 105481c5-164b-43a8-a11f-fe8639c516dd #
straight-curve $-1 -1 $-1 22.50000000000001066 4.999999999999984013 -22.49999999999997158 -10 3.330669073875469621e-15 -6.631184848605165257e-30 F 0 F 4.5 #
coedge $-1 -1 $-1 $303 $369 $298 $359 forward $250 $-1 #
edge $405 -1 $-1 $361 0 $310 4.5 $298 $406 forward @7 unknown #
DXID-attrib $-1 -1 $-1 $-1 $299 @10 ASM ENTITY @36 6c07f1a1-5b27-4b96-a3e5-77c8b6fa28fc #
vertex $-1 -1 $-1 $359 $407 #
straight-curve $-1 -1 $-1 -22.49999999999998934 4.999999999999999112 -22.49999999999997158 3.330669073875469621e-15 10 -3.659293507942681235e-15 I I #
point $-1 -1 $-1 -22.49999999999998934 4.999999999999999112 -22.49999999999997158 #
DXID-attrib $-1 -1 $-1 $-1 $304 @10 ASM ENTITY @36 c044a639-9312-490d-a203-52a4c9d9c83d #
straight-curve $-1 -1 $-1 -22.49999999999996803 75.00000000000001421 22.5 10 -3.330669073875469621e-15 6.631184848605165257e-30 I I #
edge $408 -1 $-1 $307 0 $403 4.5 $305 $409 forward @7 unknown #
point $-1 -1 $-1 22.50000000000003197 75 22.5 #
point $-1 -1 $-1 -22.49999999999996803 75.00000000000001421 22.5 #
coedge $-1 -1 $-1 $358 $314 $354 $401 forward $250 $-1 #
point $-1 -1 $-1 22.50000000000001066 4.999999999999984013 -22.49999999999997158 #
DXID-attrib $-1 -1 $-1 $-1 $320 @10 ASM ENTITY @36 3334e7ac-a887-4b25-ac3d-e924ccacb8c9 #
face $410 -1 $-1 $340 $335 $11 $-1 $411 forward single #
plane-surface $-1 -1 $-1 -29.99999999999999289 -1.897675139630264947e-14 50 -7.906313875274027836e-31 -3.795350279260529855e-16 1 10 -9.465294649583705873e-46 7.906313875274027486e-30 forward_v I I I I #
loop $-1 -1 $-1 $-1 $375 $256 #
coedge $-1 -1 $-1 $375 $375 $323 $376 reversed $374 $-1 #
edge $-1 -1 $-1 $412 -3.141592653589793116 $412 3.141592653589793116 $375 $413 forward @7 unknown #
DXID-attrib $-1 -1 $-1 $-1 $325 @10 ASM ENTITY @36 5ac0d9fc-14f3-414f-aa60-1636fa5f1a49 #
vertex $-1 -1 $-1 $325 $414 #
ellipse-curve $-1 -1 $-1 20.00000000000000355 -1.518140111704212021e-14 40 2.054193592485897957e-46 -1 -3.795350279260529855e-16 2.499999999999999556 -2.366323662395926079e-46 1.976578468818506521e-30 1 I I #
point $-1 -1 $-1 17.50000000000000355 2.299999999999984723 40 #
DXID-attrib $-1 -1 $-1 $-1 $330 @10 ASM ENTITY @36 4382dcc9-093f-413c-83cf-3b708e0b44e6 #
vertex $-1 -1 $-1 $330 $415 #
ellipse-curve $-1 -1 $-1 -19.99999999999999289 -1.518140111704212652e-14 40.00000000000001421 2.054193592485897957e-46 -1 -3.795350279260529855e-16 2.499999999999999556 -2.366323662395926079e-46 1.976578468818506521e-30 1 I I #
coedge $-1 -1 $-1 $416 $331 $342 $393 reversed $271 $-1 #
coedge $-1 -1 $-1 $331 $416 $338 $387 reversed $271 $-1 #
coedge $-1 -1 $-1 $334 $333 $416 $417 forward $335 $-1 #
edge $418 -1 $-1 $350 0 $389 6 $338 $419 forward @7 unknown #
DXID-attrib $-1 -1 $-1 $-1 $339 @10 ASM ENTITY @36 a2bf667b-578e-4a2c-9c8a-563cda0d3b14 #
vertex $-1 -1 $-1 $417 $420 #
straight-curve $-1 -1 $-1 -30.00000000000000711 1.897675139630264316e-14 -49.99999999999998579 -2.054193592485897879e-45 10 3.795350279260530052e-15 I I #
DXID-attrib $-1 -1 $-1 $-1 $340 @10 ASM ENTITY @36 0d51553c-44d4-412e-b11c-9d6a0a3811a8 #
plane-surface $-1 -1 $-1 29.99999999999999289 1.897675139630264947e-14 -50 -2.960594732333742722e-16 3.795350279260529855e-16 -1 -10 -1.123649404414014355e-30 2.960594732333742623e-15 forward_v I I I I #
edge $421 -1 $-1 $395 0 $347 5.999999999999999112 $342 $422 forward @7 unknown #
DXID-attrib $-1 -1 $-1 $-1 $343 @10 ASM ENTITY @36 cc0c89c9-2968-4208-b95e-52e5c6860621 #
vertex $-1 -1 $-1 $393 $423 #
straight-curve $-1 -1 $-1 -29.99999999999999289 -1.897675139630264947e-14 50 -2.054193592485897879e-45 10 3.795350279260530052e-15 I I #
DXID-attrib $-1 -1 $-1 $-1 $345 @10 ASM ENTITY @36 621dd46b-24b6-4ee7-84be-12f6a0ccad0f #
straight-curve $-1 -1 $-1 30 -1.897675139630264947e-14 50 -8.881784197001173437e-16 3.795350279260530052e-15 -10 F 0 F 10 #
point $-1 -1 $-1 30 -1.897675139630264947e-14 50 #
point $-1 -1 $-1 29.99999999999999289 1.897675139630264947e-14 -50 #
edge $424 -1 $-1 $403 0 $361 4.5 $354 $425 forward @7 unknown #
DXID-attrib $-1 -1 $-1 $-1 $355 @10 ASM ENTITY @36 d990bbd8-c7bb-4301-bdf4-bc09159e56c1 #
vertex $-1 -1 $-1 $401 $426 #
straight-curve $-1 -1 $-1 22.50000000000001066 4.999999999999984013 -22.49999999999997158 3.330669073875469621e-15 10 -3.659293507942681235e-15 I I #
DXID-attrib $-1 -1 $-1 $-1 $359 @10 ASM ENTITY @36 ec1f5bf1-0ec4-412c-a519-7e305f92ef88 #
straight-curve $-1 -1 $-1 -22.49999999999996803 75 -22.5 -5.41239527669136849e-30 3.659293507942681235e-15 10 I I #
point $-1 -1 $-1 -22.49999999999996803 75 -22.5 #
DXID-attrib $-1 -1 $-1 $-1 $366 @10 ASM ENTITY @36 4f542340-b60e-4c93-a746-8a94cec5edb5 #
straight-curve $-1 -1 $-1 22.50000000000003197 75 22.5 5.41239527669136849e-30 -3.659293507942681235e-15 -10 I I #
DXID-attrib $-1 -1 $-1 $-1 $372 @10 ASM ENTITY @36 2d99c990-84f2-4b64-bd54-f74e1e6c1bd7 #
plane-surface $-1 -1 $-1 -30.00000000000000711 1.897675139630264316e-14 -49.99999999999998579 -1 -6.741896426484084464e-32 1.776356839400242921e-16 1.77635683940024297e-15 -3.795350279260530052e-15 10 forward_v I I I I #
vertex $-1 -1 $-1 $376 $427 #
ellipse-curve $-1 -1 $-1 -19.99999999999999289 2.299999999999984723 40.00000000000001421 2.054193592485897957e-46 -1 -3.795350279260529855e-16 2.499999999999999556 -2.366323662395926079e-46 1.976578468818506521e-30 1 I I #
point $-1 -1 $-1 17.50000000000000355 -1.518140111704212021e-14 40 #
point $-1 -1 $-1 -22.49999999999999289 -1.518140111704212652e-14 40.00000000000001421 #
coedge $-1 -1 $-1 $385 $384 $386 $417 reversed $271 $-1 #
edge $428 -1 $-1 $389 0 $395 9.999999999999998224 $386 $429 forward @7 unknown #
DXID-attrib $-1 -1 $-1 $-1 $387 @10 ASM ENTITY @36 1ee7bdb6-7d6d-4f04-b25a-87ed17928c77 #
straight-curve $-1 -1 $-1 29.99999999999999289 1.897675139630264947e-14 -50 -10 -1.123649404414014355e-30 2.960594732333742623e-15 F 0 F 6 #
point $-1 -1 $-1 -30.00000000000000711 1.897675139630264316e-14 -49.99999999999998579 #
DXID-attrib $-1 -1 $-1 $-1 $393 @10 ASM ENTITY @36 e05ab4a3-54a9-4fd6-8663-a886b037b631 #
straight-curve $-1 -1 $-1 -29.99999999999999289 -1.897675139630264947e-14 50 10 -9.465294649583705873e-46 7.906313875274027486e-30 F 0 F 5.999999999999999112 #
point $-1 -1 $-1 -29.99999999999999289 -1.897675139630264947e-14 50 #
DXID-attrib $-1 -1 $-1 $-1 $401 @10 ASM ENTITY @36 6ec31f70-822d-4553-8ebf-3cfc82d65b66 #
straight-curve $-1 -1 $-1 22.50000000000003197 74.99999999999998579 -22.5 -10 3.330669073875469621e-15 -6.631184848605165257e-30 I I #
point $-1 -1 $-1 22.50000000000003197 74.99999999999998579 -22.5 #
point $-1 -1 $-1 -22.49999999999999289 2.299999999999984723 40.00000000000001421 #
DXID-attrib $-1 -1 $-1 $-1 $417 @10 ASM ENTITY @36 88e7acad-fdf3-4067-9c00-a5d6b211b81c #
straight-curve $-1 -1 $-1 -30.00000000000000711 1.897675139630264316e-14 -49.99999999999998579 1.77635683940024297e-15 -3.795350279260530052e-15 10 F 0 F 9.999999999999998224 #
End-of-ACIS-data 